<svg width="274" height="204" viewBox="0 0 274 204" fill="none" xmlns="http://www.w3.org/2000/svg">
<path d="M137 203.578C212.663 203.578 274 200.232 274 196.104C274 191.976 212.663 188.63 137 188.63C61.337 188.63 0 191.976 0 196.104C0 200.232 61.337 203.578 137 203.578Z" fill="#407BFF"/>
<path opacity="0.3" d="M137 203.578C212.663 203.578 274 200.232 274 196.104C274 191.976 212.663 188.63 137 188.63C61.337 188.63 0 191.976 0 196.104C0 200.232 61.337 203.578 137 203.578Z" fill="white"/>
<path d="M217.963 83.4509C217.922 83.4509 218.439 80.8768 218.495 80.6905C219.088 78.8548 221.324 75.6527 223.484 75.6596C223.843 75.6698 224.196 75.7556 224.52 75.9112C224.844 76.0669 225.131 76.2889 225.364 76.5629C225.596 76.837 225.768 77.1569 225.869 77.5018C225.969 77.8467 225.996 78.2089 225.948 78.5649C225.789 80.0901 224.423 81.3806 223.187 82.1328C221.738 83.0368 217.963 83.4509 217.963 83.4509Z" fill="#407BFF"/>
<path d="M213.774 66.1223C215.81 66.8538 216.825 70.6218 216.756 72.5541C216.756 72.7197 216.369 75.3145 216.335 75.3145H216.293C216.452 75.908 216.624 76.5498 216.797 77.2468C217.101 78.5442 217.432 80.0073 217.687 81.6359C217.983 83.3829 218.177 85.1456 218.267 86.9152C218.377 88.8955 218.31 90.8817 218.067 92.8501C218.063 92.873 218.063 92.8963 218.067 92.9191C218.336 92.3464 219.13 90.7591 219.205 90.6418C220.268 89.0269 223.263 86.5011 225.354 87.1084C225.697 87.2141 226.014 87.3905 226.284 87.6264C226.554 87.8622 226.772 88.1522 226.923 88.4775C227.073 88.8028 227.154 89.1562 227.16 89.5148C227.166 89.8733 227.096 90.2291 226.955 90.559C226.403 91.9806 224.747 92.8708 223.36 93.2642C221.793 93.7128 218.301 93.1814 218.025 93.14C217.731 95.1357 217.302 97.1093 216.742 99.0473C216.42 100.179 216.07 101.311 215.693 102.443C215.934 101.953 216.162 101.518 216.197 101.456C217.259 99.8409 220.254 97.3151 222.345 97.9155C222.689 98.0202 223.006 98.1961 223.277 98.4318C223.548 98.6674 223.766 98.9575 223.917 99.2831C224.068 99.6087 224.149 99.9625 224.154 100.321C224.159 100.68 224.088 101.036 223.946 101.366C223.394 102.795 221.738 103.678 220.351 104.078C218.964 104.478 215.955 104.078 215.168 103.975C215.023 104.403 214.878 104.837 214.727 105.265C214.037 107.335 213.291 109.406 212.656 111.435C212.429 112.125 212.228 112.87 212.028 113.588C212.249 113.153 212.435 112.787 212.47 112.739C213.526 111.124 216.528 108.598 218.612 109.199C218.955 109.305 219.271 109.481 219.542 109.717C219.812 109.952 220.03 110.242 220.181 110.567C220.333 110.892 220.415 111.246 220.421 111.604C220.428 111.963 220.359 112.319 220.22 112.649C219.668 114.071 218.005 114.961 216.618 115.355C215.23 115.748 212.518 115.403 211.58 115.272C211.393 116.017 211.214 116.755 211.069 117.48C210.979 117.977 210.862 118.453 210.8 118.957C210.738 119.461 210.662 119.951 210.593 120.434C210.496 121.379 210.386 122.359 210.317 123.284C210.262 123.926 210.22 124.54 210.179 125.154C210.393 124.464 210.869 123.042 210.903 122.925C211.67 121.408 212.81 120.111 214.216 119.157C214.293 118.984 214.387 118.82 214.499 118.667C214.694 118.366 214.951 118.109 215.252 117.914C215.554 117.718 215.893 117.588 216.247 117.532C216.602 117.476 216.964 117.496 217.311 117.589C217.658 117.682 217.981 117.847 218.26 118.074C219.902 119.454 219.488 123.374 218.736 125.154C218.695 125.258 218.081 126.341 217.687 127.017C217.984 126.658 218.26 126.327 218.571 125.927C219.171 125.195 219.792 124.478 220.455 123.705L221.469 122.608C221.8 122.228 222.2 121.876 222.566 121.51C223.429 120.675 224.347 119.868 225.292 119.074C224.643 118.55 222.387 116.638 221.738 115.341C221.089 114.043 220.627 112.228 221.303 110.862C221.451 110.534 221.667 110.24 221.936 110.001C222.205 109.762 222.521 109.582 222.864 109.473C223.207 109.364 223.57 109.329 223.927 109.37C224.285 109.411 224.63 109.526 224.94 109.709C226.769 110.855 226.955 114.754 226.479 116.611C226.479 116.728 225.955 118.032 225.672 118.743C226.245 118.274 226.81 117.797 227.404 117.363C229.115 116.038 230.889 114.754 232.649 113.464L234.257 112.27C234.029 112.083 231.296 109.875 230.565 108.426C229.923 107.135 229.454 105.313 230.13 103.94C230.279 103.613 230.494 103.32 230.764 103.081C231.033 102.843 231.349 102.663 231.692 102.554C232.035 102.446 232.397 102.41 232.754 102.451C233.111 102.491 233.456 102.606 233.767 102.788C235.595 103.94 235.782 107.839 235.306 109.689C235.271 109.834 234.56 111.711 234.353 112.18C235.533 111.297 236.7 110.413 237.804 109.496C239.316 108.261 240.745 106.928 242.082 105.507C241.979 105.424 239.115 103.133 238.37 101.642C237.721 100.352 237.259 98.5297 237.935 97.1633C238.082 96.8353 238.297 96.542 238.565 96.3027C238.833 96.0634 239.149 95.8835 239.492 95.7747C239.835 95.6659 240.196 95.6307 240.554 95.6714C240.911 95.7121 241.255 95.8277 241.565 96.0108C243.401 97.1564 243.587 101.055 243.111 102.912C243.076 103.029 242.538 104.465 242.262 105.141L242.372 105.203C243.681 103.737 244.857 102.157 245.885 100.483C246.458 99.5718 246.962 98.6677 247.431 97.7706C246.851 97.3979 244.236 95.7003 243.414 94.4029C242.593 93.1055 241.972 91.4354 242.49 90C242.601 89.6622 242.782 89.3513 243.02 89.0873C243.259 88.8232 243.549 88.6117 243.874 88.4662C244.199 88.3208 244.55 88.2446 244.906 88.2425C245.262 88.2404 245.614 88.3125 245.94 88.4541C247.893 89.3927 248.5 93.2504 248.231 95.162C248.231 95.2655 247.955 96.3076 247.755 97.0667C247.955 96.6595 248.176 96.2455 248.362 95.8521C249.053 94.3753 249.639 92.9813 250.122 91.7115C250.398 91.0213 250.626 90.3312 250.812 89.7585C250.433 89.0683 248.956 86.4114 248.811 84.9277C248.666 83.444 248.901 81.6221 250.026 80.5869C250.282 80.3353 250.589 80.1404 250.926 80.0151C251.263 79.8898 251.622 79.8368 251.981 79.8596C252.339 79.8824 252.689 79.9804 253.008 80.1474C253.326 80.3143 253.605 80.5464 253.828 80.8285C255.125 82.5606 253.89 86.2596 252.772 87.84C252.676 87.9711 250.916 89.9103 250.895 89.9103V89.8689C250.702 90.4555 250.495 91.0835 250.246 91.7598C249.791 93.0089 249.253 94.4236 248.576 95.9004C247.856 97.5193 247.042 99.0954 246.14 100.621C245.135 102.33 243.981 103.947 242.69 105.451L242.641 105.507C243.18 105.169 244.712 104.292 244.843 104.237C246.623 103.478 250.502 103.043 251.923 104.679C252.151 104.956 252.318 105.278 252.414 105.625C252.509 105.971 252.531 106.333 252.477 106.688C252.424 107.043 252.297 107.383 252.104 107.686C251.911 107.989 251.657 108.248 251.357 108.447C250.108 109.33 248.231 109.137 246.858 108.716C245.305 108.226 242.717 105.859 242.476 105.672C241.13 107.174 239.685 108.582 238.149 109.889C237.252 110.662 236.334 111.407 235.388 112.139C235.865 111.869 236.292 111.628 236.355 111.6C238.128 110.841 242.007 110.406 243.428 112.042C243.657 112.319 243.825 112.641 243.921 112.988C244.017 113.334 244.039 113.697 243.986 114.052C243.932 114.408 243.805 114.748 243.611 115.051C243.418 115.354 243.162 115.612 242.862 115.81C241.62 116.693 239.743 116.5 238.37 116.079C236.996 115.658 234.698 113.671 234.105 113.139L233.021 113.974C231.282 115.306 229.571 116.624 227.88 117.97C227.293 118.446 226.734 118.936 226.169 119.419C226.596 119.178 226.948 118.978 227.011 118.957C228.784 118.191 232.663 117.763 234.084 119.392C234.314 119.668 234.483 119.991 234.579 120.337C234.676 120.684 234.698 121.047 234.645 121.402C234.592 121.758 234.464 122.099 234.269 122.401C234.075 122.704 233.819 122.963 233.518 123.16C232.269 124.043 230.399 123.85 229.026 123.436C227.652 123.022 225.575 121.214 224.885 120.586C224.326 121.103 223.76 121.614 223.243 122.145C222.891 122.511 222.552 122.835 222.207 123.229C221.862 123.622 221.517 123.974 221.214 124.347C220.613 125.078 219.985 125.837 219.412 126.569C219.012 127.073 218.64 127.562 218.267 128.052C218.84 127.576 219.999 126.672 220.103 126.596C221.738 125.575 225.506 124.561 227.162 125.955C227.43 126.195 227.644 126.49 227.79 126.818C227.937 127.147 228.012 127.503 228.012 127.863C228.012 128.223 227.937 128.578 227.79 128.907C227.644 129.236 227.43 129.53 227.162 129.771C226.065 130.827 224.188 130.944 222.766 130.723C221.193 130.475 218.35 128.653 217.998 128.391C217.377 129.205 216.783 130.005 216.231 130.771C214.319 133.415 212.829 135.685 211.807 137.293L211.704 137.452L210.379 136.81C210.448 136.706 210.517 136.61 210.586 136.499C211.656 134.898 213.215 132.635 215.203 130.005C215.831 129.177 216.514 128.301 217.225 127.404C216.485 126.599 215.794 125.751 215.155 124.864C213.629 125.458 210.462 125.485 210.055 125.485C209.993 126.507 209.937 127.5 209.896 128.439C209.758 131.703 209.772 134.422 209.806 136.32V136.548L208.35 135.858C208.35 133.974 208.426 131.413 208.619 128.398C208.681 127.355 208.771 126.244 208.875 125.113C208.467 125.009 205.176 124.16 203.933 123.167C202.808 122.269 201.622 120.806 201.663 119.281C201.659 118.921 201.731 118.565 201.875 118.235C202.018 117.905 202.23 117.609 202.496 117.367C202.762 117.125 203.076 116.941 203.417 116.829C203.759 116.716 204.121 116.677 204.479 116.714C206.625 116.99 208.419 120.454 208.778 122.352C208.778 122.463 208.888 123.732 208.93 124.492C208.978 124.022 209.013 123.574 209.061 123.111C209.157 122.166 209.282 121.22 209.413 120.206C209.489 119.723 209.572 119.233 209.647 118.736C209.723 118.239 209.854 117.728 209.958 117.218C210.22 116.045 210.538 114.865 210.89 113.684C210.062 113.595 207.129 113.25 205.866 112.532C204.603 111.814 203.223 110.544 203.036 109.033C202.977 108.678 202.994 108.314 203.086 107.966C203.178 107.618 203.342 107.293 203.568 107.013C203.794 106.732 204.077 106.503 204.398 106.34C204.719 106.177 205.071 106.083 205.431 106.066C207.591 106.01 209.896 109.164 210.531 110.986C210.572 111.103 210.883 112.463 211.035 113.215C211.255 112.525 211.462 111.794 211.725 111.09C212.415 109.019 213.195 106.99 213.954 104.941C214.188 104.313 214.409 103.685 214.644 103.064C214.347 103.064 210.848 102.698 209.44 101.891C208.191 101.2 206.797 99.903 206.604 98.3917C206.548 98.0367 206.566 97.6738 206.659 97.3265C206.751 96.9791 206.916 96.6551 207.141 96.3754C207.367 96.0956 207.649 95.8664 207.969 95.7026C208.289 95.5387 208.64 95.4439 208.999 95.4242C211.166 95.369 213.471 98.5228 214.106 100.345C214.154 100.483 214.596 102.415 214.685 102.946C215.182 101.566 215.672 100.186 216.065 98.8058C216.649 96.9424 217.11 95.0429 217.446 93.1193C217.308 93.1193 213.65 92.7742 212.215 91.9461C210.959 91.256 209.565 89.9586 209.378 88.4473C209.322 88.0923 209.34 87.7294 209.433 87.382C209.525 87.0347 209.69 86.7107 209.916 86.4309C210.141 86.1512 210.423 85.922 210.743 85.7581C211.063 85.5943 211.414 85.4995 211.773 85.4798C213.933 85.4315 216.238 88.5784 216.873 90.4003C216.914 90.5245 217.252 92.0151 217.397 92.7259H217.522C217.806 90.7821 217.917 88.8167 217.853 86.8531C217.853 85.7696 217.749 84.7414 217.646 83.7338C216.956 83.7338 213.823 83.7338 212.442 83.1403C211.062 82.5468 209.592 81.4565 209.233 79.9727C209.138 79.6252 209.116 79.2613 209.171 78.905C209.226 78.5486 209.355 78.2078 209.55 77.9049C209.746 77.602 210.003 77.3437 210.305 77.1471C210.607 76.9504 210.948 76.8198 211.304 76.7637C213.45 76.4739 216.086 79.3516 216.921 81.0976C216.963 81.1942 217.321 82.2087 217.563 82.9471C217.515 82.4985 217.466 82.0293 217.404 81.6014C217.19 79.9796 216.887 78.5028 216.611 77.2054C216.445 76.467 216.286 75.8252 216.128 75.1834C215.437 74.8383 212.732 73.4167 211.801 72.2643C210.869 71.1118 210.055 69.4624 210.42 67.9787C210.499 67.625 210.652 67.2921 210.869 67.002C211.086 66.7118 211.362 66.4711 211.679 66.2956C211.997 66.1201 212.347 66.0139 212.708 65.9841C213.069 65.9542 213.433 66.0013 213.774 66.1223Z" fill="#407BFF"/>
<path d="M252.89 99.4752C251.199 99.4062 247.817 97.674 247.817 97.6671C247.817 97.6602 249.632 95.79 249.763 95.6865C251.275 94.4788 254.905 93.0434 256.706 94.2373C257 94.4449 257.246 94.7119 257.43 95.0211C257.614 95.3302 257.731 95.6745 257.773 96.0318C257.816 96.389 257.782 96.7511 257.676 97.0946C257.569 97.4382 257.392 97.7555 257.154 98.0259C256.188 99.1853 254.332 99.5304 252.89 99.4752Z" fill="#407BFF"/>
<g opacity="0.5">
<path d="M217.963 83.4509C217.922 83.4509 218.439 80.8768 218.495 80.6905C219.088 78.8548 221.324 75.6527 223.484 75.6596C223.843 75.6698 224.196 75.7556 224.52 75.9112C224.844 76.0669 225.131 76.2889 225.364 76.563C225.596 76.837 225.768 77.1569 225.869 77.5018C225.969 77.8467 225.996 78.2089 225.948 78.5649C225.789 80.0901 224.423 81.3806 223.187 82.1328C221.738 83.0368 217.963 83.4509 217.963 83.4509Z" fill="white"/>
<path d="M213.774 66.1223C215.81 66.8538 216.825 70.6218 216.756 72.5541C216.756 72.7197 216.369 75.3145 216.335 75.3145H216.293C216.452 75.908 216.624 76.5498 216.797 77.2468C217.101 78.5442 217.432 80.0073 217.687 81.6359C217.983 83.3829 218.177 85.1456 218.267 86.9152C218.377 88.8955 218.31 90.8817 218.067 92.8501C218.063 92.873 218.063 92.8963 218.067 92.9191C218.336 92.3464 219.13 90.7591 219.205 90.6418C220.268 89.0269 223.263 86.5011 225.354 87.1084C225.697 87.2141 226.014 87.3905 226.284 87.6264C226.554 87.8622 226.772 88.1522 226.923 88.4775C227.073 88.8028 227.154 89.1562 227.16 89.5148C227.166 89.8733 227.096 90.2291 226.955 90.559C226.403 91.9806 224.747 92.8708 223.36 93.2642C221.793 93.7128 218.301 93.1814 218.025 93.14C217.731 95.1357 217.302 97.1093 216.742 99.0473C216.42 100.179 216.07 101.311 215.693 102.443C215.934 101.953 216.162 101.518 216.197 101.456C217.259 99.8409 220.254 97.3151 222.345 97.9155C222.689 98.0202 223.006 98.1961 223.277 98.4318C223.548 98.6674 223.766 98.9575 223.917 99.2831C224.068 99.6087 224.149 99.9625 224.154 100.321C224.159 100.68 224.088 101.036 223.946 101.366C223.394 102.795 221.738 103.678 220.351 104.078C218.964 104.478 215.955 104.078 215.168 103.975C215.023 104.403 214.878 104.837 214.727 105.265C214.037 107.335 213.291 109.406 212.656 111.435C212.429 112.125 212.228 112.87 212.028 113.588C212.249 113.153 212.435 112.787 212.47 112.739C213.526 111.124 216.528 108.598 218.612 109.199C218.955 109.305 219.271 109.481 219.542 109.717C219.812 109.952 220.03 110.242 220.181 110.567C220.333 110.892 220.415 111.246 220.421 111.604C220.428 111.963 220.359 112.319 220.22 112.649C219.668 114.071 218.005 114.961 216.618 115.355C215.23 115.748 212.518 115.403 211.58 115.272C211.393 116.017 211.214 116.755 211.069 117.48C210.979 117.977 210.862 118.453 210.8 118.957C210.738 119.461 210.662 119.951 210.593 120.434C210.496 121.379 210.386 122.359 210.317 123.284C210.262 123.926 210.22 124.54 210.179 125.154C210.393 124.464 210.869 123.042 210.903 122.925C211.67 121.408 212.81 120.111 214.216 119.157C214.293 118.984 214.387 118.82 214.499 118.667C214.694 118.366 214.951 118.109 215.252 117.914C215.554 117.718 215.893 117.588 216.247 117.532C216.602 117.476 216.964 117.496 217.311 117.589C217.658 117.682 217.981 117.847 218.26 118.074C219.902 119.454 219.488 123.374 218.736 125.154C218.695 125.258 218.081 126.341 217.687 127.017C217.984 126.658 218.26 126.327 218.571 125.927C219.171 125.195 219.792 124.478 220.455 123.705L221.469 122.608C221.8 122.228 222.2 121.876 222.566 121.51C223.429 120.675 224.347 119.868 225.292 119.074C224.643 118.55 222.387 116.638 221.738 115.341C221.089 114.043 220.627 112.228 221.303 110.862C221.451 110.534 221.667 110.24 221.936 110.001C222.205 109.762 222.521 109.582 222.864 109.473C223.207 109.364 223.57 109.329 223.927 109.37C224.285 109.411 224.63 109.526 224.94 109.709C226.769 110.855 226.955 114.754 226.479 116.611C226.479 116.728 225.955 118.032 225.672 118.743C226.245 118.274 226.81 117.797 227.404 117.363C229.115 116.038 230.889 114.754 232.649 113.464L234.257 112.27C234.029 112.083 231.296 109.875 230.565 108.426C229.923 107.135 229.454 105.313 230.13 103.94C230.279 103.613 230.494 103.32 230.764 103.081C231.033 102.843 231.349 102.663 231.692 102.554C232.035 102.446 232.397 102.41 232.754 102.451C233.111 102.491 233.456 102.606 233.767 102.788C235.595 103.94 235.782 107.839 235.306 109.689C235.271 109.834 234.56 111.711 234.353 112.18C235.533 111.297 236.7 110.413 237.804 109.496C239.316 108.261 240.745 106.928 242.082 105.507C241.979 105.424 239.115 103.133 238.37 101.642C237.721 100.352 237.259 98.5297 237.935 97.1633C238.082 96.8353 238.297 96.542 238.565 96.3027C238.833 96.0634 239.149 95.8835 239.492 95.7747C239.835 95.6659 240.196 95.6307 240.554 95.6714C240.911 95.7121 241.255 95.8277 241.565 96.0108C243.401 97.1564 243.587 101.055 243.111 102.912C243.076 103.029 242.538 104.465 242.262 105.141L242.372 105.203C243.681 103.737 244.857 102.157 245.885 100.483C246.458 99.5718 246.962 98.6677 247.431 97.7706C246.851 97.3979 244.236 95.7003 243.414 94.4029C242.593 93.1055 241.972 91.4354 242.49 90C242.601 89.6622 242.782 89.3513 243.02 89.0873C243.259 88.8232 243.549 88.6117 243.874 88.4662C244.199 88.3208 244.55 88.2446 244.906 88.2425C245.262 88.2404 245.614 88.3125 245.94 88.4541C247.893 89.3927 248.5 93.2504 248.231 95.162C248.231 95.2655 247.955 96.3076 247.755 97.0667C247.955 96.6595 248.176 96.2455 248.362 95.8521C249.053 94.3753 249.639 92.9813 250.122 91.7115C250.398 91.0213 250.626 90.3312 250.812 89.7585C250.433 89.0683 248.956 86.4114 248.811 84.9277C248.666 83.444 248.901 81.6221 250.026 80.5869C250.282 80.3353 250.589 80.1404 250.926 80.0151C251.263 79.8898 251.622 79.8368 251.981 79.8596C252.339 79.8824 252.689 79.9804 253.008 80.1474C253.326 80.3143 253.605 80.5464 253.828 80.8285C255.125 82.5606 253.89 86.2596 252.772 87.84C252.676 87.9711 250.916 89.9103 250.895 89.9103V89.8689C250.702 90.4555 250.495 91.0835 250.246 91.7598C249.791 93.0089 249.253 94.4236 248.576 95.9004C247.856 97.5193 247.042 99.0954 246.14 100.621C245.135 102.33 243.981 103.947 242.69 105.451L242.641 105.507C243.18 105.169 244.712 104.292 244.843 104.237C246.623 103.478 250.502 103.043 251.923 104.679C252.151 104.956 252.318 105.278 252.414 105.625C252.509 105.971 252.531 106.333 252.477 106.688C252.424 107.043 252.297 107.383 252.104 107.686C251.911 107.989 251.657 108.248 251.357 108.447C250.108 109.33 248.231 109.137 246.858 108.716C245.305 108.226 242.717 105.859 242.476 105.672C241.13 107.174 239.685 108.582 238.149 109.889C237.252 110.662 236.334 111.407 235.388 112.139C235.865 111.869 236.292 111.628 236.355 111.6C238.128 110.841 242.007 110.406 243.428 112.042C243.657 112.319 243.825 112.641 243.921 112.988C244.017 113.334 244.039 113.697 243.986 114.052C243.932 114.408 243.805 114.748 243.611 115.051C243.418 115.354 243.162 115.612 242.862 115.81C241.62 116.693 239.743 116.5 238.37 116.079C236.996 115.658 234.698 113.671 234.105 113.139L233.021 113.974C231.282 115.306 229.571 116.624 227.88 117.97C227.293 118.446 226.734 118.936 226.169 119.419C226.596 119.178 226.948 118.978 227.011 118.957C228.784 118.191 232.663 117.763 234.084 119.392C234.314 119.668 234.483 119.991 234.579 120.337C234.676 120.684 234.698 121.047 234.645 121.402C234.592 121.758 234.464 122.099 234.269 122.401C234.075 122.704 233.819 122.963 233.518 123.16C232.269 124.043 230.399 123.85 229.026 123.436C227.652 123.022 225.575 121.214 224.885 120.586C224.326 121.103 223.76 121.614 223.243 122.145C222.891 122.511 222.552 122.835 222.207 123.229C221.862 123.622 221.517 123.974 221.214 124.347C220.613 125.078 219.985 125.837 219.412 126.569C219.012 127.073 218.64 127.562 218.267 128.052C218.84 127.576 219.999 126.672 220.103 126.596C221.738 125.575 225.506 124.561 227.162 125.955C227.43 126.195 227.644 126.49 227.79 126.818C227.937 127.147 228.012 127.503 228.012 127.863C228.012 128.223 227.937 128.578 227.79 128.907C227.644 129.236 227.43 129.53 227.162 129.771C226.065 130.827 224.188 130.944 222.766 130.723C221.193 130.475 218.35 128.653 217.998 128.391C217.377 129.205 216.783 130.005 216.231 130.771C214.319 133.415 212.829 135.685 211.807 137.293L211.704 137.452L210.379 136.81C210.448 136.706 210.517 136.61 210.586 136.499C211.656 134.898 213.215 132.635 215.203 130.005C215.831 129.177 216.514 128.301 217.225 127.404C216.485 126.599 215.794 125.751 215.155 124.864C213.629 125.458 210.462 125.485 210.055 125.485C209.993 126.507 209.937 127.5 209.896 128.439C209.758 131.703 209.772 134.422 209.806 136.32V136.548L208.35 135.858C208.35 133.974 208.426 131.413 208.619 128.398C208.681 127.355 208.771 126.244 208.875 125.113C208.467 125.009 205.176 124.16 203.933 123.167C202.808 122.269 201.622 120.806 201.663 119.281C201.659 118.921 201.731 118.565 201.875 118.235C202.018 117.905 202.23 117.609 202.496 117.367C202.762 117.125 203.076 116.941 203.417 116.829C203.759 116.716 204.121 116.677 204.479 116.714C206.625 116.99 208.419 120.454 208.778 122.352C208.778 122.463 208.888 123.732 208.93 124.492C208.978 124.022 209.013 123.574 209.061 123.111C209.157 122.166 209.282 121.22 209.413 120.206C209.489 119.723 209.572 119.233 209.647 118.736C209.723 118.239 209.854 117.728 209.958 117.218C210.22 116.045 210.538 114.865 210.89 113.684C210.062 113.595 207.129 113.25 205.866 112.532C204.603 111.814 203.223 110.544 203.036 109.033C202.977 108.678 202.994 108.314 203.086 107.966C203.178 107.618 203.342 107.293 203.568 107.013C203.794 106.732 204.077 106.503 204.398 106.34C204.719 106.177 205.071 106.083 205.431 106.066C207.591 106.01 209.896 109.164 210.531 110.986C210.572 111.103 210.883 112.463 211.035 113.215C211.255 112.525 211.462 111.794 211.725 111.09C212.415 109.019 213.195 106.99 213.954 104.941C214.188 104.313 214.409 103.685 214.644 103.064C214.347 103.064 210.848 102.698 209.44 101.891C208.191 101.2 206.797 99.903 206.604 98.3917C206.548 98.0367 206.566 97.6738 206.659 97.3265C206.751 96.9791 206.916 96.6551 207.141 96.3754C207.367 96.0956 207.649 95.8664 207.969 95.7026C208.289 95.5387 208.64 95.4439 208.999 95.4242C211.166 95.369 213.471 98.5228 214.106 100.345C214.154 100.483 214.596 102.415 214.685 102.946C215.182 101.566 215.672 100.186 216.065 98.8058C216.649 96.9424 217.11 95.0429 217.446 93.1193C217.308 93.1193 213.65 92.7742 212.215 91.9461C210.959 91.256 209.565 89.9586 209.378 88.4473C209.322 88.0923 209.34 87.7294 209.433 87.382C209.525 87.0347 209.69 86.7107 209.916 86.4309C210.141 86.1512 210.423 85.922 210.743 85.7581C211.063 85.5943 211.414 85.4995 211.773 85.4798C213.933 85.4315 216.238 88.5784 216.873 90.4003C216.914 90.5245 217.252 92.0151 217.397 92.7259H217.522C217.806 90.7821 217.917 88.8167 217.853 86.8531C217.853 85.7696 217.749 84.7414 217.646 83.7338C216.956 83.7338 213.823 83.7338 212.442 83.1403C211.062 82.5468 209.592 81.4565 209.233 79.9727C209.138 79.6252 209.116 79.2613 209.171 78.905C209.226 78.5486 209.355 78.2078 209.55 77.9049C209.746 77.602 210.003 77.3437 210.305 77.1471C210.607 76.9504 210.948 76.8198 211.304 76.7637C213.45 76.4739 216.086 79.3516 216.921 81.0976C216.963 81.1942 217.321 82.2087 217.563 82.9471C217.515 82.4985 217.466 82.0293 217.404 81.6014C217.19 79.9796 216.887 78.5028 216.611 77.2054C216.445 76.467 216.286 75.8252 216.128 75.1834C215.437 74.8383 212.732 73.4167 211.801 72.2643C210.869 71.1118 210.055 69.4624 210.42 67.9787C210.499 67.625 210.652 67.2921 210.869 67.002C211.086 66.7118 211.362 66.4711 211.679 66.2956C211.997 66.1201 212.347 66.0139 212.708 65.9841C213.069 65.9542 213.433 66.0013 213.774 66.1223Z" fill="white"/>
<path d="M252.89 99.4752C251.199 99.4062 247.817 97.674 247.817 97.6671C247.817 97.6602 249.632 95.79 249.763 95.6865C251.275 94.4788 254.905 93.0434 256.706 94.2373C257 94.4449 257.246 94.7119 257.43 95.0211C257.614 95.3302 257.731 95.6746 257.773 96.0318C257.816 96.389 257.782 96.7511 257.676 97.0946C257.569 97.4382 257.392 97.7555 257.154 98.026C256.188 99.1853 254.332 99.5304 252.89 99.4752Z" fill="white"/>
</g>
<path d="M233.146 141.82C233.146 141.82 222.884 117.08 217.142 118.156C211.401 119.233 226.976 157.589 226.976 157.589C226.976 157.589 208.923 123.532 196.612 123.532C184.3 123.532 201.125 161.178 216.714 173.724C216.714 173.724 192.098 147.196 177.737 152.931C163.376 158.666 206.459 185.552 206.459 185.552C206.459 185.552 181.429 177.664 184.3 183.758C187.171 189.852 194.969 190.928 194.969 190.928L166.675 192.364H265.153L242.994 190.21C242.994 190.21 265.974 178.741 259.818 174.083C253.663 169.424 240.123 179.459 240.123 179.459C240.123 179.459 263.51 153.649 258.997 143.966C254.484 134.284 234.374 161.536 234.374 161.536C234.374 161.536 250.792 126.762 247.486 120.668C244.181 114.575 233.146 141.82 233.146 141.82Z" fill="#407BFF"/>
<path opacity="0.4" d="M233.146 141.82C233.146 141.82 222.884 117.08 217.142 118.156C211.401 119.233 226.976 157.589 226.976 157.589C226.976 157.589 208.923 123.532 196.612 123.532C184.3 123.532 201.125 161.178 216.714 173.724C216.714 173.724 192.098 147.196 177.737 152.931C163.376 158.666 206.459 185.552 206.459 185.552C206.459 185.552 181.429 177.664 184.3 183.758C187.171 189.852 194.969 190.928 194.969 190.928L166.675 192.364H265.153L242.994 190.21C242.994 190.21 265.974 178.741 259.818 174.083C253.663 169.424 240.123 179.459 240.123 179.459C240.123 179.459 263.51 153.649 258.997 143.966C254.484 134.284 234.374 161.536 234.374 161.536C234.374 161.536 250.792 126.762 247.486 120.668C244.181 114.575 233.146 141.82 233.146 141.82Z" fill="white"/>
<path d="M236.431 143.118C227.397 169.79 227.397 188.665 227.397 188.665C227.397 188.665 238.066 189.072 249.149 180.866" stroke="#263238" stroke-linecap="round" stroke-linejoin="round"/>
<path d="M231.917 157.486C230.054 149.51 227.583 141.689 224.526 134.091" stroke="#263238" stroke-linecap="round" stroke-linejoin="round"/>
<path d="M205.245 141.889L228.218 175.946C228.218 175.946 243.815 162.834 249.149 155.429" stroke="#263238" stroke-linecap="round" stroke-linejoin="round"/>
<path d="M227.811 184.158C227.811 184.158 203.602 172.668 193.754 166.126" stroke="#263238" stroke-linecap="round" stroke-linejoin="round"/>
<path d="M206.08 0.500062H132.349C129.33 0.500062 126.883 2.94711 126.883 5.96571V186.898C126.883 189.916 129.33 192.364 132.349 192.364H206.08C209.098 192.364 211.545 189.916 211.545 186.898V5.96571C211.545 2.94711 209.098 0.500062 206.08 0.500062Z" fill="white" stroke="#263238" stroke-linecap="round" stroke-linejoin="round"/>
<path d="M208.716 34.0876C208.418 34.0876 208.131 33.969 207.92 33.7581C207.709 33.5471 207.591 33.261 207.591 32.9627V17.8839C207.613 17.5998 207.742 17.3347 207.951 17.1412C208.16 16.9478 208.434 16.8404 208.719 16.8404C209.004 16.8404 209.279 16.9478 209.488 17.1412C209.697 17.3347 209.825 17.5998 209.848 17.8839V32.9351C209.85 33.0854 209.823 33.2348 209.767 33.3745C209.712 33.5143 209.629 33.6415 209.524 33.7488C209.418 33.8561 209.292 33.9413 209.154 33.9995C209.015 34.0576 208.866 34.0876 208.716 34.0876Z" fill="#263238"/>
<path d="M208.716 48.0553C208.418 48.0553 208.131 47.9368 207.92 47.7258C207.709 47.5149 207.591 47.2288 207.591 46.9304V38.5042C207.613 38.2202 207.742 37.955 207.951 37.7616C208.16 37.5682 208.434 37.4608 208.719 37.4608C209.004 37.4608 209.279 37.5682 209.488 37.7616C209.697 37.955 209.825 38.2202 209.848 38.5042V46.9304C209.846 47.2294 209.726 47.5155 209.514 47.7263C209.302 47.937 209.015 48.0553 208.716 48.0553Z" fill="#263238"/>
<path d="M199.696 0.500062H125.965C122.947 0.500062 120.5 2.94711 120.5 5.96571V186.898C120.5 189.916 122.947 192.364 125.965 192.364H199.696C202.715 192.364 205.162 189.916 205.162 186.898V5.96571C205.162 2.94711 202.715 0.500062 199.696 0.500062Z" fill="#263238" stroke="#263238" stroke-linecap="round" stroke-linejoin="round"/>
<path d="M199.524 13.2739H126.138V177.837H199.524V13.2739Z" fill="#407BFF"/>
<path d="M151.934 8.01533H171.471" stroke="white" stroke-width="3" stroke-linecap="round" stroke-linejoin="round"/>
<path d="M160.201 183.661C160.201 185.007 159.359 186.097 158.317 186.097C157.275 186.097 156.44 185.007 156.44 183.661C156.44 182.316 157.282 181.218 158.317 181.218C159.353 181.218 160.201 182.309 160.201 183.661Z" fill="white"/>
<path d="M162.831 54.2249C169.859 54.2249 175.556 47.582 175.556 39.3876C175.556 31.1932 169.859 24.5503 162.831 24.5503C155.803 24.5503 150.105 31.1932 150.105 39.3876C150.105 47.582 155.803 54.2249 162.831 54.2249Z" fill="white"/>
<path d="M162.831 39.2013C165.499 39.2013 167.661 36.677 167.661 33.5631C167.661 30.4492 165.499 27.9249 162.831 27.9249C160.163 27.9249 158 30.4492 158 33.5631C158 36.677 160.163 39.2013 162.831 39.2013Z" fill="#263238" stroke="#263238" stroke-linecap="round" stroke-linejoin="round"/>
<path d="M162.831 40.6988C158 40.6988 154.046 44.4046 154.046 48.9801C154.05 49.4058 154.089 49.8306 154.163 50.2498C155.235 51.5005 156.564 52.5044 158.06 53.1927C159.556 53.881 161.184 54.2374 162.831 54.2374C164.478 54.2374 166.105 53.881 167.601 53.1927C169.097 52.5044 170.427 51.5005 171.498 50.2498C171.567 49.8299 171.604 49.4055 171.609 48.9801C171.609 44.4046 167.675 40.6988 162.831 40.6988Z" fill="#263238" stroke="#263238" stroke-linecap="round" stroke-linejoin="round"/>
<path d="M178.303 104.016H147.359C146.54 103.984 145.767 103.628 145.211 103.026C144.654 102.424 144.359 101.626 144.391 100.807V81.7049C144.391 70.6977 152.672 61.7401 162.831 61.7401C172.989 61.7401 181.263 70.7115 181.263 81.7049V100.793C181.281 101.199 181.218 101.605 181.079 101.987C180.94 102.369 180.726 102.719 180.451 103.019C180.177 103.318 179.845 103.56 179.477 103.731C179.108 103.902 178.709 103.999 178.303 104.016ZM150.319 97.5981H175.335V81.7256C175.335 74.2587 169.725 68.1788 162.831 68.1788C155.937 68.1788 150.319 74.2587 150.319 81.7256V97.5981Z" fill="#263238"/>
<path d="M184.314 90.9799H141.348V131.627H184.314V90.9799Z" fill="white"/>
<path d="M169.09 118.964L165.902 111.297C166.607 110.764 167.177 110.073 167.566 109.279C167.956 108.486 168.154 107.612 168.144 106.728C168.144 103.671 165.86 101.207 163.038 101.207C160.215 101.207 157.938 103.678 157.938 106.728C157.927 107.612 158.124 108.485 158.512 109.279C158.9 110.072 159.47 110.763 160.174 111.297L156.992 118.964H169.09Z" fill="#263238" stroke="#263238" stroke-linecap="round" stroke-linejoin="round"/>
<path d="M149.739 168.155C149.805 168.203 149.885 168.23 149.967 168.23C150.026 168.23 150.083 168.216 150.135 168.188C150.187 168.16 150.231 168.12 150.264 168.072L199.524 101.069V99.7995L149.684 167.63C149.653 167.668 149.63 167.712 149.616 167.759C149.602 167.806 149.598 167.855 149.603 167.904C149.608 167.953 149.623 168 149.646 168.043C149.67 168.086 149.701 168.124 149.739 168.155Z" fill="white"/>
<path d="M189.614 37.4139C189.584 37.4536 189.563 37.4988 189.551 37.5468C189.54 37.5948 189.538 37.6446 189.545 37.6934C189.553 37.7422 189.57 37.789 189.596 37.8311C189.622 37.8731 189.656 37.9096 189.696 37.9384C189.777 37.9959 189.878 38.0194 189.976 38.0039C190.074 37.9884 190.162 37.9352 190.221 37.8555L199.524 25.2059V23.9637L189.614 37.4139Z" fill="white"/>
<path d="M126.138 125.037L186.95 42.3412C187.008 42.2607 187.033 42.1602 187.017 42.0618C187.002 41.9635 186.948 41.8753 186.867 41.8167C186.787 41.7582 186.686 41.734 186.588 41.7495C186.489 41.7651 186.401 41.819 186.343 41.8996L126.165 123.767L126.138 125.037Z" fill="white"/>
<path d="M144.025 176.312C144.084 176.311 144.142 176.296 144.194 176.27C144.247 176.244 144.293 176.206 144.329 176.16L147.78 171.495C147.809 171.455 147.83 171.41 147.842 171.362C147.854 171.314 147.856 171.264 147.848 171.215C147.84 171.166 147.823 171.12 147.797 171.077C147.771 171.035 147.737 170.999 147.697 170.97C147.616 170.913 147.516 170.889 147.418 170.905C147.32 170.92 147.231 170.973 147.172 171.053L143.722 175.711C143.692 175.751 143.67 175.795 143.658 175.843C143.646 175.891 143.643 175.941 143.65 175.989C143.657 176.038 143.674 176.085 143.699 176.127C143.725 176.17 143.758 176.206 143.798 176.236C143.862 176.287 143.943 176.314 144.025 176.312Z" fill="white"/>
<path d="M199.524 114.485L159.083 169.493C159.042 169.549 159.018 169.615 159.012 169.684C159.007 169.753 159.02 169.822 159.052 169.884C159.083 169.946 159.131 169.997 159.191 170.033C159.25 170.069 159.318 170.088 159.387 170.087C159.446 170.088 159.505 170.075 159.558 170.048C159.61 170.022 159.656 169.983 159.691 169.935L199.524 115.748V114.485Z" fill="white"/>
<path d="M57.4928 37.1723C58.1771 35.6562 58.5075 34.0043 58.459 32.3416C58.459 29.2568 54.7255 27.4694 50.3364 26.9795C45.9474 26.4895 44.0013 28.2769 44.65 29.4155C45.3241 30.3547 46.1469 31.1775 47.086 31.8516C47.086 31.8516 42.697 29.4155 39.7709 31.3685C36.8449 33.3215 41.0752 32.5072 40.2609 34.4533C39.4466 36.3994 34.8987 35.592 33.7601 40.7885C32.6214 45.985 35.8718 51.1884 32.9457 53.4658C30.0197 55.7431 21.2139 52.6514 18.6467 58.3379C16.0795 64.0244 19.7233 66.5502 13.5537 70.1249C7.38419 73.6997 2.8847 77.1916 4.67208 85.9629C6.45945 94.7341 12.3116 97.8051 23.8501 94.7065C35.3887 91.608 34.5744 84.631 38.3424 77.4539C42.1104 70.2768 47.9349 71.7674 49.7222 67.7027C51.5096 63.6379 49.2323 58.7658 49.3979 55.0254C49.5635 51.285 53.297 50.4776 54.76 46.054C56.223 41.6304 57.4928 37.1723 57.4928 37.1723Z" fill="#263238" stroke="#263238" stroke-linecap="round" stroke-linejoin="round"/>
<path d="M6.01778 85.7973C5.71514 86.4083 5.56143 87.0822 5.56921 87.7641" stroke="white" stroke-width="0.5" stroke-linecap="round" stroke-linejoin="round"/>
<path d="M51.2542 33.9495C51.2542 33.9495 49.2253 31.6032 53.1313 32.6935C58.0518 34.0738 52.2756 39.7671 50.0535 40.9127C45.5954 43.197 39.7019 42.4655 36.2513 46.6199C33.1182 50.3741 37.3486 54.287 35.4715 57.2614C33.5944 60.2357 26.0791 58.5104 23.581 62.0921C21.0828 65.6738 28.115 73.3615 20.9172 77.585C15.7137 80.6422 10.0135 81.8153 7.25994 84.2376" stroke="white" stroke-width="0.5" stroke-linecap="round" stroke-linejoin="round"/>
<path d="M39.5846 47.8345C39.1581 48.8325 39.0287 49.9324 39.2119 51.0021C39.833 53.659 43.4354 58.6692 40.1504 61.4848C36.8655 64.3004 31.2274 64.1417 30.2957 67.4404C29.3641 70.7391 31.2343 79.8002 28.1081 84.003C24.9819 88.2057 18.8745 87.9159 15.5895 90.7315C12.3046 93.5472 12.7739 95.1137 12.7739 95.1137" stroke="white" stroke-width="0.5" stroke-linecap="round" stroke-linejoin="round"/>
<path d="M41.2407 44.7428C40.9563 45.1448 40.6937 45.5618 40.454 45.9919" stroke="white" stroke-width="0.5" stroke-linecap="round" stroke-linejoin="round"/>
<path d="M59.5977 85.5488L60.3913 91.7598C60.3913 91.7598 64.5319 95.9004 67.5753 98.4607C70.6187 101.021 78.4169 106.438 78.4169 106.438L74.4626 107.563C74.4626 107.563 61.5369 99.903 58.9835 99.2819C56.4301 98.6608 54.5185 94.9757 53.7249 93.8577C52.9312 92.7397 57.5204 84.4309 59.5977 85.5488Z" fill="white" stroke="#263238" stroke-linecap="round" stroke-linejoin="round"/>
<path d="M67.4925 186.601C67.4925 186.601 71.3985 189.9 73.0133 191.004C74.6282 192.108 76.5122 192.605 76.2154 193.205C75.9187 193.806 75.1113 194.406 71.3088 193.896C67.5063 193.385 66.409 192.094 65.7051 191.894C65.0012 191.694 63.3035 192.198 62.0061 191.397C60.7087 190.597 62.7653 185.828 62.7653 185.828C63.3351 186.494 64.1224 186.938 64.9876 187.079C65.8528 187.22 66.7401 187.051 67.4925 186.601Z" fill="white" stroke="#263238" stroke-linecap="round" stroke-linejoin="round"/>
<path d="M76.2016 193.205C76.2047 193.173 76.2047 193.141 76.2016 193.109C74.0062 193.311 71.7925 193.102 69.6732 192.495C67.2164 191.915 66.4918 190.611 64.1524 190.611C63.2343 190.619 62.3216 190.47 61.454 190.169C61.4289 190.399 61.4604 190.632 61.5458 190.847C61.6312 191.063 61.7679 191.254 61.944 191.404C63.2414 192.205 64.946 191.701 65.643 191.901C66.34 192.101 67.4442 193.406 71.2467 193.902C75.0492 194.399 75.898 193.806 76.2016 193.205Z" fill="white" stroke="#263238" stroke-linecap="round" stroke-linejoin="round"/>
<path d="M47.0448 53.2242C47.0448 53.2242 47.797 58.2896 46.8309 60.3323C45.8647 62.375 42.8421 62.5959 40.2611 63.0306C37.6801 63.4654 31.752 65.722 32.3938 71.5396C33.0356 77.3572 40.475 89.9586 40.475 93.5126C40.475 97.0667 38.2114 98.8955 35.734 105.79C33.2565 112.684 33.5808 125.506 34.3537 133.801C34.9202 139.276 36.0016 144.685 37.5834 149.956C37.5834 149.956 31.3725 159.977 28.6121 164.283C25.8516 168.589 16.1901 187.34 16.1901 187.34C16.1901 187.34 16.1901 187.981 17.6946 188.416C18.753 188.674 19.848 188.746 20.9312 188.63C20.9312 188.63 39.4536 166.333 42.9042 162.565C46.3547 158.797 49.5844 152.213 50.0123 149.204C50.4401 146.195 49.9087 127.77 49.9087 127.77C49.9087 127.77 53.7802 137.031 56.8098 141.772C58.6473 144.673 60.3334 147.668 61.8614 150.743C61.4371 154.642 61.4371 158.576 61.8614 162.475C62.6136 167.858 61.9787 185.152 62.7309 186.553C63.4831 187.954 66.4023 187.367 67.051 186.725C67.6997 186.084 68.0033 181.895 68.0033 181.895C68.0033 181.895 69.2938 168.783 70.0737 162.613C70.8535 156.443 72.144 151.192 71.6954 149.791C71.2468 148.39 68.5692 133.415 66.5196 126.327C64.47 119.24 58.2383 105.969 56.8581 102.525C55.4779 99.0818 54.6981 95.9487 54.9189 94.8721C55.1397 93.7956 59.3356 87.3362 60.4398 85.6109C61.0692 84.4414 61.4164 83.1408 61.4536 81.8131C61.4907 80.4854 61.2168 79.1675 60.6537 77.9645C59.3632 75.1627 60.6537 71.3878 60.4398 69.1312C60.2258 66.8745 56.8857 65.8946 55.1605 65.0388C53.4352 64.1831 52.7865 62.237 52.7865 60.6222C52.8919 59.2618 53.2206 57.9282 53.7595 56.6747C53.7595 56.6747 48.4457 53.2242 47.0448 53.2242Z" fill="white" stroke="#263238" stroke-linecap="round" stroke-linejoin="round"/>
<path d="M60.1015 76.2669C59.534 74.8248 59.0614 73.3471 58.6868 71.8433" stroke="#263238" stroke-linecap="round" stroke-linejoin="round"/>
<path d="M46.1131 88.2609C46.1131 88.2609 48.0592 88.6888 51.9583 86.7427" stroke="#263238" stroke-linecap="round" stroke-linejoin="round"/>
<path d="M66.5403 126.258C64.5873 119.468 58.7973 107.066 57.0651 102.974C48.7839 106.079 41.0409 103.429 37.404 101.718C36.8795 102.864 36.3136 104.189 35.734 105.79C33.2565 112.691 33.5808 125.506 34.3537 133.801C34.9202 139.276 36.0016 144.685 37.5834 149.956C37.5834 149.956 31.3725 159.977 28.6121 164.283C25.8516 168.589 16.1901 187.34 16.1901 187.34C16.1901 187.34 16.1901 187.981 17.6946 188.416C18.753 188.674 19.848 188.746 20.9312 188.63C20.9312 188.63 39.4536 166.333 42.9042 162.565C46.3547 158.797 49.5844 152.213 50.0123 149.204C50.4401 146.195 49.9087 127.77 49.9087 127.77C49.9087 127.77 53.7802 137.031 56.8098 141.772C58.6473 144.673 60.3334 147.668 61.8614 150.743C61.4371 154.642 61.4371 158.576 61.8614 162.475C62.6136 167.858 61.9787 185.152 62.7309 186.553C63.4831 187.954 66.4023 187.367 67.051 186.725C67.6997 186.084 68.0033 181.895 68.0033 181.895C68.0033 181.895 69.2938 168.783 70.0737 162.613C70.8535 156.443 72.144 151.192 71.6954 149.791C71.2468 148.39 68.5899 133.366 66.5403 126.258Z" fill="#263238" stroke="#263238" stroke-linecap="round" stroke-linejoin="round"/>
<path d="M108.733 119.419V118.011H109.913V106.956H108.733H97.0843H95.9042V118.011H97.0843V119.419H95.8973V121.986H100.445V121.124H105.373V121.986H109.92V119.419H108.733Z" fill="#407BFF" stroke="#263238" stroke-linecap="round" stroke-linejoin="round"/>
<path d="M33.4426 103.65H114.71C115.035 103.65 115.348 103.78 115.578 104.01C115.809 104.24 115.938 104.553 115.938 104.879V107.349C115.938 107.675 115.809 107.988 115.578 108.218C115.348 108.448 115.035 108.578 114.71 108.578H33.4426V103.643V103.65Z" fill="#407BFF" stroke="#263238" stroke-linecap="round" stroke-linejoin="round"/>
<path d="M91.7706 102.912H86.8225C86.4452 102.912 86.1393 103.218 86.1393 103.595V108.64C86.1393 109.017 86.4452 109.323 86.8225 109.323H91.7706C92.1479 109.323 92.4538 109.017 92.4538 108.64V103.595C92.4538 103.218 92.1479 102.912 91.7706 102.912Z" fill="#407BFF" stroke="#263238" stroke-linecap="round" stroke-linejoin="round"/>
<path d="M35.9853 108.193C37.1303 101.2 32.3903 94.6039 25.3981 93.4589C18.4059 92.3139 11.8094 97.054 10.6644 104.046C9.51938 111.038 14.2594 117.635 21.2516 118.78C28.2438 119.925 34.8403 115.185 35.9853 108.193Z" fill="#407BFF" stroke="#263238" stroke-linecap="round" stroke-linejoin="round"/>
<path d="M25.9619 106.086C26.7057 105.73 27.3368 105.176 27.7861 104.484C28.2353 103.793 28.4853 102.991 28.5084 102.167C28.5084 99.6477 26.1897 97.605 23.3257 97.605C20.4618 97.605 18.143 99.6753 18.143 102.167C18.1646 102.991 18.4139 103.794 18.8633 104.486C19.3128 105.177 19.9448 105.731 20.6895 106.086C19.9452 106.444 19.3138 106.999 18.8646 107.692C18.4153 108.385 18.1657 109.188 18.143 110.013C18.143 112.532 20.4618 114.575 23.3257 114.575C26.1897 114.575 28.5084 112.504 28.5084 110.013C28.4842 109.188 28.2339 108.386 27.7849 107.693C27.3358 107.001 26.7053 106.445 25.9619 106.086Z" fill="white" stroke="#263238" stroke-linecap="round" stroke-linejoin="round"/>
<path d="M75.8842 108.688C75.8842 108.688 79.9006 110.386 81.1428 110.386C82.385 110.386 83.8204 109.137 84.5313 107.625C85.2421 106.114 85.2214 105.396 84.8004 105.755L83.9102 106.445C83.9102 106.445 84.6003 104.934 83.8204 105.113C83.2804 105.293 82.8322 105.677 82.5714 106.183C82.5714 106.183 82.4816 104.844 81.7708 105.493C81.3004 105.919 80.8812 106.398 80.5217 106.921C80.5217 106.921 80.432 105.231 79.9835 105.672C79.5349 106.114 77.851 108.522 77.851 108.522L75.8842 108.688Z" fill="white" stroke="#263238" stroke-linecap="round" stroke-linejoin="round"/>
<path d="M80.5218 106.908C80.5218 106.908 80.2526 109.047 78.9207 109.406L80.5218 106.908Z" fill="white"/>
<path d="M80.5218 106.908C80.5218 106.908 80.2526 109.047 78.9207 109.406" stroke="#263238" stroke-linecap="round" stroke-linejoin="round"/>
<path d="M82.5713 106.197C82.5713 106.197 81.8812 109.578 80.7908 110.117L82.5713 106.197Z" fill="white"/>
<path d="M82.5713 106.197C82.5713 106.197 81.8812 109.578 80.7908 110.117" stroke="#263238" stroke-linecap="round" stroke-linejoin="round"/>
<path d="M83.9101 106.459C83.5543 107.693 83.0757 108.888 82.4816 110.027L83.9101 106.459Z" fill="white"/>
<path d="M83.9101 106.459C83.5543 107.693 83.0757 108.888 82.4816 110.027" stroke="#263238" stroke-linecap="round" stroke-linejoin="round"/>
<path d="M54.905 64.8318C54.2099 64.3625 53.6469 63.7227 53.27 62.9735C52.893 62.2244 52.7146 61.391 52.7518 60.5531C52.8756 59.2143 53.2159 57.9045 53.7594 56.6747C53.7594 56.6747 48.4801 53.2242 47.0792 53.2242C47.0792 53.2242 47.8314 58.2896 46.8652 60.3323C46.5486 60.9677 46.0322 61.4817 45.3953 61.7953C46.6712 65.2304 48.4003 68.4797 50.5366 71.4568C52.4758 73.8929 53.4213 68.7585 54.905 64.8318Z" fill="white" stroke="#263238" stroke-linecap="round" stroke-linejoin="round"/>
<path d="M38.6115 63.7276C37.2946 63.9525 36.048 64.4804 34.9701 65.2697C33.8922 66.0589 33.0126 67.0879 32.4005 68.2754C30.275 72.3747 20.9862 90.98 21.7798 92.091C26.2931 98.44 42.7107 103.009 44.3808 104.679C46.0504 106.425 47.8829 108.008 49.8533 109.406C51.5234 110.469 54.8566 110.013 55.4639 109.709C56.0712 109.406 56.5267 108.039 55.4639 108.039C55.0579 108.045 54.6623 107.911 54.3433 107.659C54.0242 107.408 53.8011 107.055 53.711 106.659C53.5592 106.052 55.3811 107.266 56.292 106.811C57.203 106.356 54.2562 104.692 53.3453 103.933C52.4343 103.174 51.6752 102.118 50.4606 102.118C49.246 102.118 46.9618 102.118 46.9618 102.118C46.9618 102.118 41.3719 98.0673 37.9904 95.0516C35.3592 92.6774 32.4891 90.5821 29.4262 88.7992L39.6743 71.9399" fill="white"/>
<path d="M38.6115 63.7276C37.2946 63.9525 36.048 64.4804 34.9701 65.2697C33.8922 66.0589 33.0126 67.0879 32.4005 68.2754C30.275 72.3747 20.9862 90.98 21.7798 92.091C26.2931 98.44 42.7107 103.009 44.3808 104.679C46.0504 106.425 47.8829 108.008 49.8533 109.406C51.5234 110.469 54.8566 110.013 55.4639 109.709C56.0712 109.406 56.5267 108.039 55.4639 108.039C55.0579 108.045 54.6623 107.911 54.3433 107.659C54.0242 107.408 53.8011 107.055 53.711 106.659C53.5592 106.052 55.3811 107.266 56.292 106.811C57.203 106.356 54.2562 104.692 53.3453 103.933C52.4343 103.174 51.6752 102.118 50.4606 102.118C49.246 102.118 46.9618 102.118 46.9618 102.118C46.9618 102.118 41.3719 98.0673 37.9904 95.0516C35.3592 92.6774 32.4891 90.5821 29.4262 88.7992L39.6743 71.9399" stroke="#263238" stroke-linecap="round" stroke-linejoin="round"/>
<path d="M53.3385 103.94C52.4275 103.181 51.6684 102.125 50.4538 102.125C49.2392 102.125 46.955 102.125 46.955 102.125C46.955 102.125 41.3651 98.0743 37.9836 95.0585C35.3524 92.6843 32.4823 90.589 29.4194 88.8061L33.5186 82.0569C31.4229 80.7884 29.0257 80.1045 26.5761 80.0763C23.8157 85.8318 21.3382 91.5182 21.7454 92.1186C26.2587 98.4676 42.6763 103.036 44.3464 104.706C46.0159 106.453 47.8484 108.035 49.8189 109.433C51.489 110.496 54.8222 110.041 55.4295 109.737C56.0368 109.433 56.4923 108.067 55.4295 108.067C55.0235 108.072 54.6279 107.938 54.3089 107.687C53.9898 107.436 53.7666 107.083 53.6766 106.687C53.5248 106.079 55.3467 107.294 56.2576 106.839C57.1686 106.383 54.2494 104.706 53.3385 103.94Z" fill="white" stroke="#263238" stroke-linecap="round" stroke-linejoin="round"/>
<path d="M58.8937 45.7918C58.3554 44.7152 58.3554 43.8526 58.5694 42.3412C58.7833 40.8299 57.4928 37.1654 57.4928 37.1654C56.1747 39.4428 52.3653 40.7954 50.6814 41.3061C48.8251 41.872 51.5372 43.1556 51.2473 44.8739C50.9575 46.5923 47.2516 47.5861 47.2516 47.5861C47.2516 47.5861 46.1682 45.357 44.6637 45.357C43.1593 45.357 42.0896 48.8075 42.9454 50.6363C43.1683 51.1429 43.5567 51.5588 44.047 51.8159C44.5372 52.0729 45.1002 52.1558 45.6437 52.051C45.6437 52.051 45.5402 55.2876 47.5829 56.2538C49.7625 57.2938 52.0363 58.1234 54.3735 58.7313C55.664 58.9452 56.9545 58.3034 57.4928 56.3642C57.9138 54.4099 58.202 52.4294 58.3554 50.4362C59.2591 49.8449 60.0905 49.1501 60.8329 48.3659C61.3505 47.6206 59.432 46.8683 58.8937 45.7918Z" fill="white" stroke="#263238" stroke-linecap="round" stroke-linejoin="round"/>
<path d="M56.7959 45.8401C56.7959 46.4336 56.6027 46.9098 56.3681 46.9098C56.1334 46.9098 55.9402 46.4336 55.9402 45.8401C55.9402 45.2466 56.1334 44.7704 56.3681 44.7704C56.6027 44.7704 56.7959 45.2466 56.7959 45.8401Z" fill="#263238"/>
<path d="M54.9395 44.0596C54.9395 44.0596 56.085 42.7691 56.9408 43.0589" stroke="#263238" stroke-linecap="round" stroke-linejoin="round"/>
<path d="M56.9408 52.9068C56.4236 53.0628 55.8747 53.0812 55.3483 52.9601C54.8218 52.8391 54.336 52.5829 53.9389 52.2167" stroke="#263238" stroke-linecap="round" stroke-linejoin="round"/>
<path d="M16.2382 187.34C16.2382 187.34 13.6641 192.502 13.7607 193.205C13.8573 193.909 18.9641 197.608 21.3519 198.906C23.7397 200.203 28.0597 200.41 27.7561 198.609C27.4524 196.808 23.3532 195.607 22.3525 192.902C21.8197 191.502 21.359 190.077 20.9723 188.63C19.3042 188.655 17.663 188.207 16.2382 187.34Z" fill="white" stroke="#263238" stroke-linecap="round" stroke-linejoin="round"/>
<path d="M27.77 198.637C25.9326 198.883 24.063 198.618 22.3664 197.871C18.6606 196.263 15.072 192.978 14.0852 192.046C13.9099 192.418 13.7979 192.817 13.7539 193.226C13.8574 193.916 18.9573 197.629 21.3451 198.926C23.7329 200.224 28.0184 200.403 27.77 198.637Z" fill="white" stroke="#263238" stroke-linecap="round" stroke-linejoin="round"/>
</svg>
