<svg width="285" height="212" viewBox="0 0 285 212" fill="none" xmlns="http://www.w3.org/2000/svg">
<path d="M284.362 186.2H0V186.343H284.362V186.2Z" fill="#EBEBEB"/>
<path d="M255.869 195.351H237.033V195.493H255.869V195.351Z" fill="#EBEBEB"/>
<path d="M188.373 196.898H183.431V197.04H188.373V196.898Z" fill="#EBEBEB"/>
<path d="M236.464 190.074H225.551V190.216H236.464V190.074Z" fill="#EBEBEB"/>
<path d="M54.3986 191.029H29.8353V191.171H54.3986V191.029Z" fill="#EBEBEB"/>
<path d="M63.0659 191.029H59.4659V191.171H63.0659V191.029Z" fill="#EBEBEB"/>
<path d="M128.048 193.429H74.7703V193.571H128.048V193.429Z" fill="#EBEBEB"/>
<path d="M134.788 160.835H24.9727C24.1124 160.834 23.2879 160.491 22.6801 159.882C22.0723 159.273 21.731 158.448 21.731 157.588V3.21898C21.7385 2.36363 22.0831 1.54578 22.6901 0.94307C23.2971 0.340358 24.1173 0.00146526 24.9727 0H134.788C135.649 0 136.475 0.342138 137.084 0.951147C137.693 1.56016 138.035 2.38615 138.035 3.24742V157.588C138.035 158.449 137.693 159.275 137.084 159.884C136.475 160.493 135.649 160.835 134.788 160.835ZM24.9727 0.113745C24.1501 0.115252 23.3618 0.443074 22.7807 1.02526C22.1995 1.60744 21.8732 2.39641 21.8732 3.21898V157.588C21.8732 158.411 22.1995 159.199 22.7807 159.782C23.3618 160.364 24.1501 160.692 24.9727 160.693H134.788C135.611 160.692 136.4 160.364 136.982 159.782C137.564 159.2 137.892 158.411 137.893 157.588V3.21898C137.892 2.39588 137.564 1.60693 136.982 1.02491C136.4 0.442889 135.611 0.115249 134.788 0.113745H24.9727Z" fill="#EBEBEB"/>
<path d="M257.809 160.835H147.988C147.127 160.834 146.302 160.491 145.693 159.883C145.085 159.274 144.742 158.449 144.74 157.588V3.21898C144.749 2.36312 145.095 1.54527 145.703 0.942714C146.311 0.340159 147.132 0.00144928 147.988 0H257.809C258.663 0.00295993 259.482 0.342514 260.088 0.945066C260.693 1.54762 261.037 2.36462 261.045 3.21898V157.588C261.045 158.447 260.704 159.272 260.098 159.88C259.491 160.489 258.668 160.832 257.809 160.835ZM147.988 0.113745C147.165 0.115249 146.376 0.442889 145.794 1.02491C145.212 1.60693 144.884 2.39588 144.883 3.21898V157.588C144.884 158.411 145.212 159.2 145.794 159.782C146.376 160.364 147.165 160.692 147.988 160.693H257.809C258.632 160.692 259.421 160.364 260.003 159.782C260.585 159.2 260.912 158.411 260.914 157.588V3.21898C260.912 2.39588 260.585 1.60693 260.003 1.02491C259.421 0.442889 258.632 0.115249 257.809 0.113745H147.988Z" fill="#EBEBEB"/>
<path d="M48.5691 103.946H51.771L51.771 36.5519H48.5691L48.5691 103.946Z" fill="#E0E0E0"/>
<path d="M111.351 36.5576H50.4175V103.952H111.351V36.5576Z" fill="#E0E0E0"/>
<path d="M113.296 36.5576H50.0933V103.952H113.296V36.5576Z" fill="#F0F0F0"/>
<path d="M110.623 38.7074H52.6696V100.852H110.623V38.7074Z" fill="white"/>
<path d="M110.623 38.7074H108.945V100.852H110.623V38.7074Z" fill="#E0E0E0"/>
<path d="M52.5161 83.3921V85.0699H109.121V83.3921H52.5161Z" fill="#E0E0E0"/>
<path d="M110.623 80.5826H51.771V83.3978H110.623V80.5826Z" fill="#F0F0F0"/>
<path d="M155.666 185.148H239.501V78.9845L155.666 78.9845V185.148Z" fill="#F0F0F0"/>
<path d="M158.629 105.55L236.538 105.55V82.8461L158.629 82.8461V105.55Z" fill="#E0E0E0"/>
<path d="M232.108 105.55H236.533V86.5258H232.108V105.55Z" fill="#EBEBEB"/>
<path d="M210.707 105.55H215.132V86.5258H210.707V105.55Z" fill="#EBEBEB"/>
<path d="M183.186 104.797L187.546 105.549L190.778 86.8013L186.417 86.0497L183.186 104.797Z" fill="#EBEBEB"/>
<path d="M226.631 105.55H231.056V89.0282H226.631V105.55Z" fill="#EBEBEB"/>
<path d="M216.451 105.55H220.876V89.0282H216.451V105.55Z" fill="#EBEBEB"/>
<path d="M190.773 105.55H195.198V89.0282H190.773V105.55Z" fill="#EBEBEB"/>
<path d="M201.321 104.589L205.64 105.549L209.224 89.421L204.905 88.461L201.321 104.589Z" fill="#EBEBEB"/>
<path d="M222.804 105.55H225.016V85.576H222.804V105.55Z" fill="#EBEBEB"/>
<path d="M196.477 105.55H198.69V85.576H196.477V105.55Z" fill="#EBEBEB"/>
<path d="M236.533 109.15H158.623V131.853H236.533V109.15Z" fill="#E0E0E0"/>
<path d="M163.048 112.824H158.623V131.847H163.048V112.824Z" fill="#EBEBEB"/>
<path d="M184.449 112.824H180.024V131.847H184.449V112.824Z" fill="#EBEBEB"/>
<path d="M208.746 112.342L204.386 113.094L207.618 131.841L211.978 131.09L208.746 112.342Z" fill="#EBEBEB"/>
<path d="M168.536 115.332H164.111V131.853H168.536V115.332Z" fill="#EBEBEB"/>
<path d="M178.705 115.332H174.28V131.853H178.705V115.332Z" fill="#EBEBEB"/>
<path d="M204.383 115.332H199.958V131.853H204.383V115.332Z" fill="#EBEBEB"/>
<path d="M190.269 114.756L185.95 115.716L189.534 131.844L193.853 130.884L190.269 114.756Z" fill="#EBEBEB"/>
<path d="M172.363 111.88H170.151V131.853H172.363V111.88Z" fill="#EBEBEB"/>
<path d="M198.684 111.88H196.472V131.853H198.684V111.88Z" fill="#EBEBEB"/>
<path d="M232.108 131.847H236.533V112.824H232.108V131.847Z" fill="#EBEBEB"/>
<path d="M226.631 131.847H231.056V115.326H226.631V131.847Z" fill="#EBEBEB"/>
<path d="M216.451 131.847H220.876V115.326H216.451V131.847Z" fill="#EBEBEB"/>
<path d="M222.804 131.847H225.016V111.874H222.804V131.847Z" fill="#EBEBEB"/>
<path d="M158.629 158.145H236.538V135.442L158.629 135.442V158.145Z" fill="#E0E0E0"/>
<path d="M187.389 158.145H191.814V139.121H187.389V158.145Z" fill="#EBEBEB"/>
<path d="M159.87 157.386L164.23 158.138L167.462 139.39L163.101 138.639L159.87 157.386Z" fill="#EBEBEB"/>
<path d="M203.313 158.145H207.738V141.624H203.313V158.145Z" fill="#EBEBEB"/>
<path d="M193.139 158.145H197.564V141.624H193.139V158.145Z" fill="#EBEBEB"/>
<path d="M167.455 158.145H171.88V141.624H167.455V158.145Z" fill="#EBEBEB"/>
<path d="M178.007 157.178L182.326 158.138L185.911 142.01L181.591 141.05L178.007 157.178Z" fill="#EBEBEB"/>
<path d="M199.486 158.145H201.698V138.172H199.486V158.145Z" fill="#EBEBEB"/>
<path d="M173.16 158.145H175.372V138.172H173.16V158.145Z" fill="#EBEBEB"/>
<path d="M210.788 157.387L215.149 158.139L218.38 139.392L214.02 138.64L210.788 157.387Z" fill="#EBEBEB"/>
<path d="M218.379 158.145H222.804V141.624H218.379V158.145Z" fill="#EBEBEB"/>
<path d="M228.926 157.176L233.246 158.136L236.83 142.008L232.511 141.048L228.926 157.176Z" fill="#EBEBEB"/>
<path d="M224.072 158.145H226.284V138.172H224.072V158.145Z" fill="#EBEBEB"/>
<path d="M100.323 119.876H51.663C50.4066 119.874 49.162 120.119 48.0005 120.598C46.839 121.077 45.7833 121.781 44.8938 122.668C44.0044 123.555 43.2985 124.609 42.8167 125.77C42.3348 126.93 42.0864 128.174 42.0857 129.43V167.433H109.883V129.43C109.883 128.175 109.636 126.932 109.155 125.773C108.675 124.613 107.971 123.56 107.083 122.672C106.195 121.785 105.141 121.081 103.981 120.601C102.821 120.122 101.578 119.875 100.323 119.876Z" fill="#E6E6E6"/>
<path d="M124.272 148.039H115.565C114.057 148.039 112.61 148.638 111.543 149.705C110.477 150.771 109.878 152.218 109.878 153.726V185.148H129.942V153.721C129.941 152.216 129.343 150.774 128.281 149.709C127.218 148.644 125.776 148.044 124.272 148.039Z" fill="#E0E0E0"/>
<path d="M124.272 148.039H124.084C122.576 148.039 121.129 148.638 120.063 149.705C118.996 150.771 118.397 152.218 118.397 153.726V185.148H129.937V153.721C129.935 152.217 129.338 150.776 128.277 149.711C127.215 148.646 125.775 148.045 124.272 148.039Z" fill="#EBEBEB"/>
<path d="M115.98 170.708H49.1947V185.143H115.98V170.708Z" fill="#E6E6E6"/>
<path d="M116.071 157.508H51.663C48.4749 157.508 45.8904 160.093 45.8904 163.281V166.881C45.8904 170.069 48.4749 172.653 51.663 172.653H116.071C119.259 172.653 121.844 170.069 121.844 166.881V163.281C121.844 160.093 119.259 157.508 116.071 157.508Z" fill="#F5F5F5"/>
<path d="M59.7616 157.508H51.771C48.5829 157.508 45.9985 160.093 45.9985 163.281V166.881C45.9985 170.069 48.5829 172.653 51.771 172.653H59.7616C62.9497 172.653 65.5342 170.069 65.5342 166.881V163.281C65.5342 160.093 62.9497 157.508 59.7616 157.508Z" fill="#E0E0E0"/>
<path d="M50.9066 148.039H42.1994C40.6911 148.039 39.2445 148.638 38.1779 149.705C37.1113 150.771 36.5122 152.218 36.5122 153.726V185.148H56.5881V153.721C56.5866 152.214 55.9876 150.77 54.9224 149.705C53.8572 148.64 52.413 148.041 50.9066 148.039Z" fill="#E0E0E0"/>
<path d="M50.9066 148.039H50.7246C49.2162 148.039 47.7696 148.638 46.7031 149.705C45.6365 150.771 45.0373 152.218 45.0373 153.726V185.148H56.5881V153.721C56.5866 152.214 55.9875 150.77 54.9224 149.705C53.8572 148.64 52.4129 148.041 50.9066 148.039Z" fill="#F0F0F0"/>
<path d="M195.459 53.7616C201.854 53.7616 207.039 48.5773 207.039 42.1823C207.039 35.7873 201.854 30.6031 195.459 30.6031C189.064 30.6031 183.88 35.7873 183.88 42.1823C183.88 48.5773 189.064 53.7616 195.459 53.7616Z" fill="#E0E0E0"/>
<path d="M205.187 43.7634C206.058 38.3966 202.413 33.3398 197.047 32.4686C191.68 31.5975 186.623 35.2419 185.752 40.6087C184.881 45.9755 188.525 51.0323 193.892 51.9035C199.259 52.7746 204.316 49.1302 205.187 43.7634Z" fill="#F0F0F0"/>
<path d="M194.999 35.4259V42.3074L190.438 39.7254" fill="#F0F0F0"/>
<path d="M194.999 42.8022C194.912 42.8025 194.828 42.7789 194.754 42.734L190.204 40.1577C190.097 40.0893 190.021 39.9826 189.99 39.8594C189.96 39.7363 189.978 39.6061 190.041 39.4959C190.104 39.3857 190.206 39.3038 190.328 39.2671C190.449 39.2304 190.58 39.2418 190.693 39.2989L194.515 41.4657V35.4259C194.528 35.3045 194.586 35.1923 194.677 35.1107C194.767 35.0292 194.885 34.984 195.007 34.984C195.129 34.984 195.247 35.0292 195.338 35.1107C195.429 35.1923 195.486 35.3045 195.499 35.4259V42.3074C195.5 42.3938 195.477 42.4788 195.434 42.5537C195.391 42.6286 195.329 42.6908 195.255 42.734C195.178 42.781 195.089 42.8047 194.999 42.8022Z" fill="#E0E0E0"/>
<path d="M142.181 211.89C203.082 211.89 252.451 208.384 252.451 204.058C252.451 199.733 203.082 196.227 142.181 196.227C81.2807 196.227 31.9112 199.733 31.9112 204.058C31.9112 208.384 81.2807 211.89 142.181 211.89Z" fill="#F5F5F5"/>
<path d="M221.041 85.7751H205.685C204.287 85.7751 202.946 86.3305 201.957 87.3192C200.968 88.3079 200.413 89.6489 200.413 91.0472V97.4055C200.413 98.8037 200.968 100.145 201.957 101.133C202.946 102.122 204.287 102.678 205.685 102.678H212.248L214.011 108.245L215.791 102.678H221.012C222.41 102.678 223.751 102.122 224.74 101.133C225.729 100.145 226.284 98.8037 226.284 97.4055V91.0472C226.284 89.6538 225.733 88.3171 224.75 87.3292C223.768 86.3414 222.434 85.7826 221.041 85.7751Z" fill="#407BFF"/>
<path d="M207.403 93.8396C207.403 94.0499 207.34 94.2556 207.223 94.4304C207.106 94.6053 206.94 94.7417 206.746 94.8222C206.552 94.9027 206.338 94.9237 206.132 94.8827C205.925 94.8416 205.736 94.7403 205.587 94.5916C205.438 94.4429 205.337 94.2534 205.296 94.0471C205.255 93.8408 205.276 93.6269 205.356 93.4326C205.437 93.2383 205.573 93.0722 205.748 92.9553C205.923 92.8384 206.129 92.7761 206.339 92.7761C206.479 92.7761 206.617 92.8036 206.746 92.857C206.875 92.9105 206.992 92.9888 207.091 93.0876C207.19 93.1863 207.268 93.3036 207.322 93.4326C207.375 93.5616 207.403 93.6999 207.403 93.8396ZM211.031 92.7761C210.821 92.7761 210.615 92.8384 210.44 92.9553C210.265 93.0722 210.129 93.2383 210.048 93.4326C209.968 93.6269 209.947 93.8408 209.988 94.0471C210.029 94.2534 210.13 94.4429 210.279 94.5916C210.428 94.7403 210.617 94.8416 210.824 94.8827C211.03 94.9237 211.244 94.9027 211.438 94.8222C211.632 94.7417 211.798 94.6053 211.915 94.4304C212.032 94.2556 212.094 94.0499 212.094 93.8396C212.089 93.5615 211.974 93.2968 211.775 93.1022C211.576 92.9077 211.309 92.7988 211.031 92.7988V92.7761ZM215.723 92.7761C215.513 92.7761 215.307 92.8384 215.132 92.9553C214.957 93.0722 214.821 93.2383 214.74 93.4326C214.66 93.6269 214.639 93.8408 214.68 94.0471C214.721 94.2534 214.822 94.4429 214.971 94.5916C215.12 94.7403 215.309 94.8416 215.515 94.8827C215.722 94.9237 215.936 94.9027 216.13 94.8222C216.324 94.7417 216.49 94.6053 216.607 94.4304C216.724 94.2556 216.786 94.0499 216.786 93.8396C216.781 93.5615 216.666 93.2968 216.467 93.1022C216.268 92.9077 216.001 92.7988 215.723 92.7988V92.7761ZM220.415 92.7761C220.205 92.7761 219.999 92.8384 219.824 92.9553C219.649 93.0722 219.513 93.2383 219.432 93.4326C219.352 93.6269 219.331 93.8408 219.372 94.0471C219.413 94.2534 219.514 94.4429 219.663 94.5916C219.812 94.7403 220.001 94.8416 220.207 94.8827C220.414 94.9237 220.628 94.9027 220.822 94.8222C221.016 94.7417 221.182 94.6053 221.299 94.4304C221.416 94.2556 221.478 94.0499 221.478 93.8396C221.473 93.5615 221.358 93.2968 221.159 93.1022C220.96 92.9077 220.693 92.7988 220.415 92.7988V92.7761Z" fill="white"/>
<path d="M63.4128 104.543H48.0857C47.3933 104.543 46.7078 104.679 46.0681 104.944C45.4285 105.209 44.8473 105.598 44.3578 106.087C43.8682 106.577 43.4799 107.158 43.2149 107.798C42.95 108.437 42.8136 109.123 42.8136 109.815V116.173C42.8136 117.572 43.369 118.913 44.3578 119.901C45.3465 120.89 46.6874 121.445 48.0857 121.445H54.6488L56.4118 127.008L58.1919 121.445H63.4128C64.8111 121.445 66.152 120.89 67.1407 119.901C68.1294 118.913 68.6849 117.572 68.6849 116.173V109.815C68.6849 109.123 68.5485 108.437 68.2836 107.798C68.0186 107.158 67.6303 106.577 67.1407 106.087C66.6512 105.598 66.07 105.209 65.4303 104.944C64.7907 104.679 64.1051 104.543 63.4128 104.543Z" fill="#407BFF"/>
<path d="M49.7748 112.608C49.7748 112.818 49.7124 113.023 49.5956 113.198C49.4787 113.373 49.3126 113.51 49.1183 113.59C48.9239 113.671 48.7101 113.692 48.5038 113.651C48.2975 113.61 48.108 113.508 47.9593 113.36C47.8105 113.211 47.7092 113.021 47.6682 112.815C47.6272 112.609 47.6482 112.395 47.7287 112.201C47.8092 112.006 47.9455 111.84 48.1204 111.723C48.2953 111.606 48.5009 111.544 48.7113 111.544C48.9934 111.544 49.2639 111.656 49.4633 111.855C49.6628 112.055 49.7748 112.325 49.7748 112.608ZM53.4033 111.544C53.1929 111.544 52.9873 111.606 52.8124 111.723C52.6375 111.84 52.5012 112.006 52.4207 112.201C52.3402 112.395 52.3192 112.609 52.3602 112.815C52.4012 113.021 52.5025 113.211 52.6513 113.36C52.8 113.508 52.9895 113.61 53.1958 113.651C53.4021 113.692 53.6159 113.671 53.8103 113.59C54.0046 113.51 54.1707 113.373 54.2875 113.198C54.4044 113.023 54.4668 112.818 54.4668 112.608C54.4623 112.329 54.3481 112.063 54.149 111.869C53.9498 111.674 53.6819 111.565 53.4033 111.567V111.544ZM58.0952 111.544C57.8844 111.542 57.6777 111.602 57.5013 111.718C57.3249 111.833 57.1869 111.998 57.1046 112.193C57.0224 112.387 56.9997 112.601 57.0394 112.808C57.0792 113.015 57.1796 113.206 57.3278 113.355C57.4761 113.505 57.6656 113.608 57.8722 113.65C58.0788 113.692 58.2932 113.671 58.4882 113.591C58.6832 113.511 58.85 113.375 58.9673 113.2C59.0847 113.024 59.1474 112.818 59.1474 112.608C59.1429 112.331 59.0303 112.067 58.8336 111.873C58.6369 111.678 58.3719 111.568 58.0952 111.567V111.544ZM62.7872 111.544C62.5769 111.544 62.3713 111.606 62.1964 111.723C62.0215 111.84 61.8852 112.006 61.8047 112.201C61.7242 112.395 61.7031 112.609 61.7441 112.815C61.7852 113.021 61.8865 113.211 62.0352 113.36C62.1839 113.508 62.3734 113.61 62.5797 113.651C62.786 113.692 62.9999 113.671 63.1942 113.59C63.3885 113.51 63.5546 113.373 63.6715 113.198C63.7884 113.023 63.8507 112.818 63.8507 112.608C63.8463 112.329 63.732 112.063 63.5329 111.869C63.3338 111.674 63.0658 111.565 62.7872 111.567V111.544Z" fill="white"/>
<path d="M234.883 204.855H162.701C149.216 204.855 148.352 188.976 159.436 181.503C161.463 180.155 163.706 179.167 166.068 178.58C188.015 172.807 218.851 134.003 240.571 150.24L240.633 150.286C262.267 166.636 247.145 204.855 234.883 204.855Z" fill="#263238"/>
<path opacity="0.5" d="M234.883 204.855H162.701C149.216 204.855 148.352 188.976 159.436 181.503C161.463 180.155 163.706 179.167 166.068 178.58C188.015 172.807 218.851 134.003 240.571 150.24L240.633 150.286C262.267 166.636 247.145 204.855 234.883 204.855Z" fill="white"/>
<path opacity="0.2" d="M240.514 150.212C238.694 150.092 236.487 150.604 234.11 152.595C227.939 157.77 237.323 182.686 222.565 193.048C214.33 198.832 178.801 201.38 166.943 194.288C158.191 189.05 158.077 185.757 159.436 181.503C161.463 180.155 163.706 179.167 166.068 178.58C187.986 172.779 218.822 133.974 240.514 150.212Z" fill="black"/>
<path d="M184.392 145.514L180.087 142.483L183.306 139.19C183.306 139.19 186.61 140.896 186.297 143.939L184.392 145.514Z" fill="#E4897B"/>
<path d="M178.398 139.139L181.383 137.262L183.306 139.19L180.087 142.483L178.398 139.139Z" fill="#E4897B"/>
<path d="M205.571 137.683C201.493 138.883 199.486 146.054 196.119 152.828L186.32 143.091L183.203 145.855C183.203 145.855 192.178 160.113 196.415 160.113C201.704 160.113 207.192 145.423 207.192 145.423L205.571 137.683Z" fill="#263238"/>
<path opacity="0.1" d="M207.192 145.423C207.192 145.423 206.322 147.749 204.917 150.541C203.581 153.26 201.761 156.428 199.799 158.344C198.69 159.419 197.524 160.102 196.386 160.102C192.149 160.102 183.175 145.844 183.175 145.844L186.291 143.08L196.091 152.816C199.457 146.043 201.459 138.871 205.548 137.671L207.192 145.423Z" fill="white"/>
<path opacity="0.2" d="M204.94 150.553C203.603 153.271 201.784 156.439 199.821 158.356C200.032 151.855 203.234 145.514 203.234 145.514C204.117 147.07 204.696 148.78 204.94 150.553Z" fill="black"/>
<path d="M201.67 177.3C201.67 177.3 167.063 172.329 165.232 179.922C163.304 187.952 191.092 193.366 207.698 193.935C224.305 194.504 229.071 190.523 226.404 170.049H203.655L201.67 177.3Z" fill="#407BFF"/>
<path opacity="0.6" d="M201.67 177.3C201.67 177.3 167.063 172.329 165.232 179.922C163.304 187.952 191.092 193.366 207.698 193.935C224.305 194.504 229.071 190.523 226.404 170.049H203.655L201.67 177.3Z" fill="white"/>
<path d="M182.396 193.133L175.144 193.139L171.664 193.145L171.249 189.476L174.468 189.044L182.333 187.998L182.396 193.133Z" fill="#E4897B"/>
<path d="M172.034 189.016L172.915 193.201C172.927 193.256 172.928 193.313 172.918 193.369C172.908 193.424 172.886 193.477 172.855 193.524C172.823 193.571 172.783 193.611 172.736 193.641C172.688 193.672 172.635 193.693 172.58 193.702L170.492 194.077C170.492 194.077 167.723 194.783 166.943 194.288C164.669 192.832 162.485 183.63 163.412 182.947C163.747 182.697 164.333 183.078 164.629 183.38C165.561 184.329 167.546 186.985 168.337 187.77C169.252 188.691 170.885 188.72 171.601 188.68C171.702 188.675 171.8 188.707 171.879 188.768C171.959 188.83 172.013 188.917 172.034 189.016Z" fill="#263238"/>
<path opacity="0.2" d="M182.396 193.133L175.144 193.139L174.468 189.044L182.333 187.998L182.396 193.133Z" fill="black"/>
<path d="M192.997 186.661L199.878 188.953L203.183 190.051L202.415 193.656L199.224 193.048L191.433 191.558L192.997 186.661Z" fill="#E4897B"/>
<path d="M201.528 193.844L202.011 189.596C202.018 189.54 202.036 189.486 202.064 189.438C202.092 189.389 202.129 189.346 202.173 189.312C202.218 189.277 202.268 189.252 202.322 189.238C202.377 189.223 202.433 189.219 202.489 189.226L204.587 189.533C204.587 189.533 207.431 189.738 208 190.455C209.706 192.553 208.864 201.977 207.772 202.33C207.368 202.46 206.936 201.914 206.748 201.539C206.18 200.339 205.122 197.188 204.621 196.199C204.053 195.033 202.5 194.493 201.812 194.299C201.718 194.269 201.638 194.207 201.586 194.124C201.534 194.04 201.513 193.941 201.528 193.844Z" fill="#263238"/>
<path opacity="0.2" d="M192.997 186.661L199.878 188.953L199.224 193.048L191.433 191.558L192.997 186.661Z" fill="black"/>
<path d="M198.03 193.685L196.068 193.873L197.239 187.082L199.492 188.271L198.03 193.685Z" fill="#407BFF"/>
<path opacity="0.6" d="M198.03 193.685L196.068 193.873L197.239 187.082L199.492 188.271L198.03 193.685Z" fill="white"/>
<path d="M204.599 196.147C204.65 196.455 204.604 196.771 204.468 197.052C204.413 197.136 204.336 197.204 204.247 197.249C204.157 197.294 204.056 197.314 203.956 197.308C203.895 197.31 203.835 197.297 203.781 197.269C203.727 197.241 203.682 197.2 203.649 197.148C203.353 196.648 204.047 195.107 204.132 194.936C204.138 194.917 204.15 194.901 204.167 194.89C204.184 194.879 204.204 194.876 204.223 194.879C204.245 194.881 204.265 194.89 204.282 194.904C204.298 194.918 204.31 194.938 204.314 194.959C204.449 195.344 204.544 195.743 204.599 196.147ZM203.78 196.887C203.784 196.937 203.799 196.986 203.825 197.029C203.836 197.051 203.853 197.069 203.875 197.08C203.896 197.091 203.921 197.095 203.945 197.092C204.014 197.1 204.083 197.088 204.146 197.058C204.208 197.027 204.261 196.98 204.297 196.921C204.463 196.38 204.433 195.798 204.212 195.277C203.972 195.784 203.826 196.329 203.78 196.887Z" fill="#407BFF"/>
<path d="M204.331 194.97V195.016C204.144 195.51 203.291 196.489 202.807 196.42C202.728 196.407 202.656 196.367 202.602 196.307C202.549 196.247 202.517 196.171 202.512 196.091C202.49 196.011 202.485 195.927 202.499 195.846C202.513 195.764 202.544 195.687 202.591 195.619C202.944 195.05 204.166 194.868 204.235 194.874C204.254 194.87 204.273 194.872 204.29 194.881C204.308 194.889 204.322 194.902 204.331 194.919C204.336 194.936 204.336 194.953 204.331 194.97ZM202.694 196.011V196.056C202.728 196.199 202.784 196.204 202.813 196.216C203.097 196.256 203.751 195.619 204.036 195.129C203.551 195.188 203.099 195.406 202.75 195.749C202.702 195.828 202.68 195.919 202.688 196.011H202.694Z" fill="#407BFF"/>
<path d="M175.804 188.515C175.804 188.515 208 176.003 217.861 178.096C227.723 180.189 227.769 185.347 222.769 190.159C217.77 194.97 210.303 193.116 210.303 193.116C210.303 193.116 216.172 189.601 215.763 187.429C215.353 185.256 211.622 190.221 211.622 190.221C211.622 190.221 192.166 194.982 176.1 193.725L175.804 188.515Z" fill="#407BFF"/>
<path d="M168.559 187.838C168.372 187.591 168.268 187.29 168.263 186.98C168.272 186.88 168.307 186.784 168.365 186.702C168.423 186.62 168.502 186.555 168.593 186.513C168.646 186.484 168.706 186.468 168.766 186.468C168.827 186.468 168.887 186.484 168.94 186.513C169.429 186.826 169.508 188.515 169.508 188.709C169.511 188.728 169.506 188.748 169.496 188.764C169.486 188.781 169.47 188.793 169.452 188.8C169.434 188.811 169.413 188.818 169.392 188.818C169.371 188.818 169.35 188.811 169.332 188.8C169.041 188.507 168.782 188.185 168.559 187.838ZM168.945 186.803C168.917 186.762 168.88 186.728 168.837 186.701C168.818 186.687 168.795 186.68 168.772 186.68C168.748 186.68 168.726 186.687 168.706 186.701C168.641 186.725 168.583 186.767 168.541 186.822C168.499 186.878 168.473 186.944 168.468 187.014C168.569 187.57 168.866 188.072 169.304 188.43C169.282 187.871 169.16 187.32 168.945 186.803Z" fill="#407BFF"/>
<path d="M169.332 188.76V188.709C169.275 188.185 169.577 186.923 170.043 186.758C170.12 186.734 170.203 186.736 170.278 186.765C170.354 186.794 170.417 186.848 170.458 186.917C170.565 187.043 170.618 187.207 170.606 187.372C170.549 188.037 169.548 188.76 169.469 188.794C169.453 188.805 169.434 188.81 169.415 188.81C169.395 188.81 169.377 188.805 169.361 188.794C169.348 188.785 169.339 188.773 169.332 188.76ZM170.31 187.082V187.042C170.219 186.934 170.162 186.957 170.134 186.963C169.861 187.054 169.565 187.918 169.565 188.487C169.844 188.254 170.384 187.764 170.418 187.349C170.424 187.257 170.4 187.165 170.35 187.088L170.31 187.082Z" fill="#407BFF"/>
<path opacity="0.7" d="M175.804 188.515C175.804 188.515 208 176.003 217.861 178.096C227.723 180.189 227.769 185.347 222.769 190.159C217.77 194.97 210.303 193.116 210.303 193.116C210.303 193.116 216.172 189.601 215.763 187.429C215.353 185.256 211.622 190.221 211.622 190.221C211.622 190.221 192.166 194.982 176.1 193.725L175.804 188.515Z" fill="white"/>
<path d="M175.412 188.419L177.22 187.588L178.261 194.362L175.747 193.952L175.412 188.419Z" fill="#407BFF"/>
<path opacity="0.6" d="M175.412 188.419L177.22 187.588L178.261 194.362L175.747 193.952L175.412 188.419Z" fill="white"/>
<path d="M228.69 138.769C225.215 158.105 226.478 170.617 226.478 170.617C226.478 170.617 210.309 170.396 203.666 170.02C200.123 146.583 205.571 137.677 205.571 137.677C207.308 137.329 209.065 137.088 210.832 136.955C211.202 136.926 211.583 136.909 211.969 136.892C215.103 136.89 218.234 137.067 221.348 137.421C221.916 137.484 222.536 137.563 223.116 137.648C226.079 138.098 228.69 138.769 228.69 138.769Z" fill="#263238"/>
<path opacity="0.1" d="M228.69 138.769C228.258 141.169 227.899 143.466 227.604 145.639C227.137 149.051 226.824 152.213 226.62 155.023C226.557 155.87 226.5 156.695 226.46 157.48C226.296 160.358 226.25 162.82 226.256 164.811C226.256 168.553 226.478 170.617 226.478 170.617C226.478 170.617 210.309 170.396 203.666 170.02C200.117 146.583 205.577 137.677 205.577 137.677C207.312 137.328 209.067 137.087 210.832 136.955C211.202 136.926 211.583 136.909 211.969 136.892C215.103 136.887 218.234 137.064 221.348 137.421C221.916 137.484 222.536 137.563 223.116 137.648C226.079 138.092 228.69 138.769 228.69 138.769Z" fill="white"/>
<path opacity="0.2" d="M214.25 160.113C218.393 159.621 222.481 158.741 226.461 157.486C226.296 160.363 226.25 162.826 226.256 164.816C218.538 165.527 215.387 164.043 215.387 164.043L214.25 160.113Z" fill="black"/>
<path opacity="0.2" d="M227.604 145.645C227.137 149.057 226.824 152.219 226.62 155.029C224.407 150.524 226.051 145.121 226.051 145.121L227.604 145.645Z" fill="black"/>
<path d="M215.126 168.052H203.365C203.136 168.049 202.917 167.96 202.751 167.803C202.585 167.646 202.483 167.433 202.466 167.205L200.828 151.594C200.817 151.489 200.828 151.383 200.861 151.283C200.893 151.182 200.947 151.09 201.018 151.012C201.089 150.934 201.176 150.872 201.272 150.83C201.369 150.788 201.473 150.768 201.579 150.769H213.34C213.564 150.773 213.778 150.86 213.943 151.012C214.108 151.164 214.211 151.371 214.233 151.594L215.877 167.205C215.891 167.312 215.883 167.42 215.852 167.523C215.821 167.626 215.768 167.721 215.696 167.802C215.625 167.882 215.537 167.946 215.439 167.99C215.34 168.033 215.233 168.054 215.126 168.052Z" fill="#263238"/>
<path opacity="0.6" d="M215.126 168.052H203.365C203.136 168.049 202.917 167.96 202.751 167.803C202.585 167.646 202.483 167.433 202.466 167.205L200.828 151.594C200.817 151.489 200.828 151.383 200.861 151.283C200.893 151.182 200.947 151.09 201.018 151.012C201.089 150.934 201.176 150.872 201.272 150.83C201.369 150.788 201.473 150.768 201.579 150.769H213.34C213.564 150.773 213.778 150.86 213.943 151.012C214.108 151.164 214.211 151.371 214.233 151.594L215.877 167.205C215.891 167.312 215.883 167.42 215.852 167.523C215.821 167.626 215.768 167.721 215.696 167.802C215.625 167.882 215.537 167.946 215.439 167.99C215.34 168.033 215.233 168.054 215.126 168.052Z" fill="white"/>
<path opacity="0.2" d="M214.637 168.052H203.365C203.136 168.049 202.917 167.96 202.751 167.803C202.585 167.646 202.483 167.433 202.466 167.205L200.828 151.594C200.817 151.489 200.828 151.383 200.861 151.283C200.893 151.182 200.947 151.09 201.018 151.012C201.089 150.934 201.176 150.872 201.272 150.83C201.369 150.788 201.473 150.768 201.579 150.769H212.851C213.075 150.773 213.289 150.86 213.454 151.012C213.618 151.164 213.722 151.371 213.744 151.594L215.387 167.205C215.402 167.312 215.394 167.42 215.363 167.523C215.332 167.626 215.278 167.721 215.207 167.802C215.136 167.882 215.048 167.946 214.949 167.99C214.851 168.033 214.744 168.054 214.637 168.052Z" fill="white"/>
<path d="M207.778 158.145C207.616 158.144 207.455 158.177 207.307 158.243C207.159 158.309 207.027 158.406 206.919 158.527C206.811 158.648 206.731 158.791 206.683 158.946C206.635 159.101 206.62 159.264 206.64 159.425C206.674 159.77 206.833 160.091 207.088 160.326C207.343 160.561 207.676 160.693 208.022 160.699C208.184 160.7 208.344 160.667 208.492 160.601C208.639 160.536 208.772 160.44 208.879 160.319C208.987 160.198 209.067 160.056 209.116 159.902C209.164 159.748 209.179 159.585 209.16 159.425C208.813 159.418 208.48 159.284 208.225 159.048C207.971 158.812 207.811 158.491 207.778 158.145Z" fill="#263238"/>
<path opacity="0.3" d="M210.326 152.032H204.11C203.957 152.029 203.808 151.985 203.679 151.902C203.55 151.82 203.447 151.703 203.382 151.565L203.012 150.792H211.213L210.997 151.565C210.955 151.708 210.865 151.831 210.743 151.916C210.621 152.001 210.474 152.042 210.326 152.032Z" fill="black"/>
<path d="M213.977 159.613L211.258 159.391L211.372 163.008L213.647 164.202L218.891 163.724L219.317 161.285C217.594 158.76 213.977 159.613 213.977 159.613Z" fill="#E4897B"/>
<path d="M228.69 138.769C231.482 139.611 235.441 155.831 234.809 159.414C234.178 162.997 227.291 164.532 218.538 164.333V160.102L228.69 157.139L226.984 150.883C226.984 150.883 225.573 146.282 226.205 143.063C226.551 141.402 227.422 139.897 228.69 138.769Z" fill="#263238"/>
<path opacity="0.1" d="M228.69 138.769C231.482 139.611 235.441 155.831 234.809 159.414C234.178 162.997 227.291 164.532 218.538 164.333V160.102L228.69 157.139L226.984 150.883C226.984 150.883 225.573 146.282 226.205 143.063C226.551 141.402 227.422 139.897 228.69 138.769Z" fill="white"/>
<path d="M219.994 137.239C218.578 138.718 216.354 139.957 212.788 139.827C210.053 139.719 209.672 138.001 210.149 137.057C211.81 136.716 212.561 135.993 212.794 135.072C213.027 134.151 212.703 132.911 212.225 131.762L216.838 127.878L217.617 127.218C217.617 127.44 217.588 127.673 217.577 127.918C217.523 128.819 217.523 129.723 217.577 130.625C217.731 133.167 218.333 135.925 219.994 137.239Z" fill="#E4897B"/>
<path opacity="0.2" d="M217.583 130.625C216.724 132.382 215.217 134.503 212.794 135.072C213.044 134.094 212.703 132.911 212.225 131.762L216.838 127.878C217.082 127.878 217.332 127.878 217.577 127.918C217.525 128.819 217.527 129.723 217.583 130.625Z" fill="black"/>
<path d="M207.016 120.154C206.339 121.701 206.254 125.023 208.608 124.198C210.963 123.373 208.153 117.499 207.016 120.154Z" fill="#263238"/>
<path d="M218.294 123.584C218.089 127.724 218.186 130.164 216.115 132.297C212.999 135.504 207.858 133.616 206.811 129.487C205.878 125.762 206.367 119.614 210.405 117.954C211.301 117.587 212.275 117.453 213.237 117.564C214.198 117.676 215.116 118.029 215.903 118.592C216.691 119.154 217.324 119.907 217.742 120.78C218.16 121.653 218.349 122.618 218.294 123.584Z" fill="#E4897B"/>
<path d="M212.015 124.755C212.015 125.091 211.844 125.37 211.622 125.37C211.401 125.37 211.219 125.097 211.213 124.755C211.207 124.414 211.389 124.147 211.605 124.147C211.822 124.147 212.009 124.42 212.015 124.755Z" fill="#263238"/>
<path d="M208.193 124.767C208.193 125.102 208.022 125.375 207.801 125.375C207.579 125.375 207.397 125.102 207.397 124.767C207.397 124.431 207.567 124.158 207.789 124.158C208.011 124.158 208.193 124.426 208.193 124.767Z" fill="#263238"/>
<path d="M209.41 124.932C209.008 125.931 208.468 126.869 207.806 127.719C208.041 127.873 208.306 127.976 208.583 128.023C208.86 128.069 209.144 128.056 209.416 127.986L209.41 124.932Z" fill="#DE5753"/>
<path d="M213.175 123.521C213.141 123.526 213.106 123.522 213.074 123.509C213.042 123.496 213.014 123.475 212.993 123.447C212.846 123.245 212.654 123.08 212.431 122.966C212.209 122.851 211.963 122.79 211.713 122.788C211.661 122.791 211.609 122.774 211.569 122.74C211.529 122.706 211.503 122.658 211.497 122.606C211.495 122.58 211.498 122.553 211.506 122.528C211.514 122.503 211.526 122.48 211.543 122.46C211.56 122.44 211.581 122.423 211.604 122.411C211.628 122.399 211.653 122.392 211.679 122.39C211.995 122.388 212.307 122.46 212.59 122.601C212.873 122.743 213.118 122.949 213.306 123.203C213.338 123.244 213.353 123.297 213.346 123.349C213.34 123.401 213.313 123.449 213.272 123.482C213.244 123.503 213.21 123.517 213.175 123.521Z" fill="#263238"/>
<path d="M206.532 123.459C206.495 123.469 206.456 123.469 206.419 123.459C206.395 123.447 206.374 123.431 206.357 123.411C206.339 123.392 206.326 123.369 206.318 123.344C206.309 123.319 206.306 123.293 206.307 123.267C206.309 123.241 206.316 123.215 206.328 123.191C206.454 122.902 206.648 122.648 206.893 122.45C207.139 122.252 207.429 122.116 207.738 122.054C207.764 122.051 207.791 122.053 207.816 122.06C207.841 122.067 207.865 122.079 207.886 122.096C207.906 122.112 207.924 122.133 207.936 122.156C207.949 122.179 207.957 122.204 207.96 122.23C207.964 122.256 207.963 122.282 207.957 122.307C207.95 122.332 207.939 122.355 207.924 122.376C207.909 122.397 207.889 122.414 207.867 122.427C207.845 122.44 207.82 122.449 207.795 122.452C207.551 122.498 207.322 122.604 207.128 122.759C206.935 122.915 206.783 123.116 206.686 123.345C206.671 123.375 206.65 123.401 206.623 123.42C206.596 123.44 206.565 123.453 206.532 123.459Z" fill="#263238"/>
<path d="M211.787 120.263C211.787 120.263 212.925 119.444 213.448 120.325C213.971 121.207 213.937 123.555 213.937 123.555L214.165 123.14C214.165 123.14 215.638 128.373 217.77 127.053C219.903 125.734 223.037 120.422 218.055 117.715C218.055 117.715 217.526 116.452 214.233 115.826C210.94 115.201 206.959 117.237 206.271 119.415C205.583 121.593 206.544 122.827 206.544 122.827C206.649 122.353 206.866 121.911 207.175 121.536C207.219 121.758 207.318 121.966 207.461 122.141C207.605 122.315 207.79 122.452 208 122.537C207.966 122.092 208.059 121.647 208.267 121.252C208.376 121.639 208.57 121.997 208.836 122.299C209.075 120.058 210.599 119.603 211.076 119.62C211.247 119.639 211.408 119.711 211.536 119.826C211.663 119.942 211.751 120.094 211.787 120.263Z" fill="#263238"/>
<path d="M219.937 127.013C219.785 127.506 219.537 127.964 219.207 128.36C218.877 128.756 218.472 129.083 218.015 129.322C216.786 129.954 215.888 128.913 215.99 127.616C216.081 126.439 216.826 124.693 218.174 124.608C218.469 124.594 218.763 124.654 219.029 124.781C219.295 124.909 219.526 125.1 219.7 125.338C219.874 125.576 219.987 125.854 220.029 126.146C220.07 126.438 220.039 126.736 219.937 127.013Z" fill="#E4897B"/>
<path d="M209.547 129.374C209.902 129.745 210.229 130.142 210.525 130.562L210.769 130.443C211.867 129.874 212.197 129.265 212.225 128.737C212.233 128.481 212.18 128.228 212.072 127.997C212.014 127.866 211.937 127.743 211.844 127.633C211.32 128.279 210.662 128.802 209.916 129.169C209.694 129.305 209.547 129.374 209.547 129.374Z" fill="#263238"/>
<path d="M209.916 129.18L210.218 129.521C211.247 128.998 211.924 128.486 212.072 128.009C212.014 127.877 211.937 127.754 211.844 127.645C211.32 128.29 210.663 128.814 209.916 129.18Z" fill="white"/>
<path d="M210.769 130.443C211.867 129.874 212.197 129.265 212.225 128.737C211.812 128.956 211.44 129.247 211.128 129.595C210.922 129.833 210.796 130.129 210.769 130.443Z" fill="#A24E3F"/>
<path d="M110.566 142.852L110.862 146.009C110.862 146.009 129.334 148.818 132.291 151.696C135.248 154.574 145.741 200.089 145.741 200.089L141.51 200.657C141.51 200.657 126.826 167.103 126.041 162.246C126.041 162.246 113.108 162.729 104.281 162.729C95.4548 162.729 94.4026 142.824 94.4026 142.824L110.566 142.852Z" fill="#407BFF"/>
<path opacity="0.3" d="M145.741 200.094L141.51 200.663C141.51 200.663 135.504 186.94 130.972 175.776C128.407 169.48 126.319 163.997 126.041 162.246C126.041 162.246 117.089 162.576 108.979 162.689C107.341 162.689 105.743 162.724 104.259 162.724C95.432 162.724 94.3799 142.818 94.3799 142.818H110.543L110.839 145.975C110.839 145.975 129.317 148.778 132.268 151.662C135.22 154.545 145.741 200.094 145.741 200.094Z" fill="white"/>
<path d="M149.006 204.172C146.162 204.172 145.781 204.127 144.177 204.07C142.807 204.024 142.471 204.195 141.379 204.172C140.458 204.172 140.492 203.268 140.776 202.256C140.919 201.744 141.135 200.669 141.345 199.85L145.52 199.543C146.088 200.68 147.431 202.267 149.034 202.483C150.638 202.699 150.143 204.172 149.006 204.172Z" fill="#263238"/>
<path opacity="0.2" d="M130.972 175.799C128.407 169.503 126.319 164.02 126.041 162.269C126.041 162.269 117.089 162.598 108.979 162.712L108.103 147.249C108.103 147.249 119.523 148.886 127.201 155.501C128.173 156.32 130.067 168.985 130.972 175.799Z" fill="black"/>
<path d="M126.991 165.687H93.9419V163.656C93.9419 162.979 94.211 162.329 94.6899 161.851C95.1687 161.372 95.8183 161.103 96.4955 161.103H124.437C125.114 161.103 125.764 161.372 126.243 161.851C126.721 162.329 126.991 162.979 126.991 163.656V165.687Z" fill="#263238"/>
<path opacity="0.2" d="M126.991 165.687H93.9419V163.656C93.9419 162.979 94.211 162.329 94.6899 161.851C95.1687 161.372 95.8183 161.103 96.4955 161.103H124.437C125.114 161.103 125.764 161.372 126.243 161.851C126.721 162.329 126.991 162.979 126.991 163.656V165.687Z" fill="white"/>
<path d="M125.842 195.402L113.102 194.293V177.562H108.626V194.288L95.8415 195.425C95.2979 195.479 94.7937 195.733 94.4269 196.137C94.0601 196.542 93.8568 197.069 93.8566 197.615V199.321H127.832V197.615C127.838 197.064 127.636 196.531 127.268 196.121C126.899 195.712 126.39 195.455 125.842 195.402Z" fill="#263238"/>
<path d="M97.9742 201.397C97.9742 201.976 97.8024 202.542 97.4806 203.024C97.1588 203.506 96.7013 203.881 96.1661 204.103C95.631 204.324 95.042 204.382 94.4739 204.269C93.9057 204.156 93.3838 203.878 92.9742 203.468C92.5646 203.058 92.2857 202.536 92.1726 201.968C92.0596 201.4 92.1176 200.811 92.3393 200.276C92.561 199.741 92.9364 199.283 93.4181 198.961C93.8997 198.64 94.466 198.468 95.0453 198.468C95.8221 198.468 96.5671 198.776 97.1164 199.326C97.6656 199.875 97.9742 200.62 97.9742 201.397Z" fill="#263238"/>
<path d="M126.632 204.326C128.25 204.326 129.561 203.014 129.561 201.397C129.561 199.779 128.25 198.468 126.632 198.468C125.015 198.468 123.703 199.779 123.703 201.397C123.703 203.014 125.015 204.326 126.632 204.326Z" fill="#263238"/>
<path d="M107.853 164.595H113.876V178.864C113.876 179.424 113.653 179.96 113.258 180.356C112.862 180.752 112.325 180.974 111.766 180.974H109.969C109.409 180.974 108.872 180.752 108.477 180.356C108.081 179.96 107.859 179.424 107.859 178.864V164.595H107.853Z" fill="#263238"/>
<path opacity="0.2" d="M107.853 164.595H113.876V178.864C113.876 179.424 113.653 179.96 113.258 180.356C112.862 180.752 112.325 180.974 111.766 180.974H109.969C109.409 180.974 108.872 180.752 108.477 180.356C108.081 179.96 107.859 179.424 107.859 178.864V164.595H107.853Z" fill="white"/>
<path d="M93.7088 166.215H127.218C127.787 166.215 128.247 165.755 128.247 165.186V164.953C128.247 164.384 127.787 163.924 127.218 163.924H93.7088C93.1402 163.924 92.6794 164.384 92.6794 164.953V165.186C92.6794 165.755 93.1402 166.215 93.7088 166.215Z" fill="#263238"/>
<path opacity="0.2" d="M97.9742 201.397C97.9742 201.976 97.8024 202.542 97.4806 203.024C97.1588 203.506 96.7013 203.881 96.1661 204.103C95.631 204.324 95.042 204.382 94.4739 204.269C93.9057 204.156 93.3838 203.878 92.9742 203.468C92.5646 203.058 92.2857 202.536 92.1726 201.968C92.0596 201.4 92.1176 200.811 92.3393 200.276C92.561 199.741 92.9364 199.283 93.4181 198.961C93.8997 198.64 94.466 198.468 95.0453 198.468C95.8221 198.468 96.5671 198.776 97.1164 199.326C97.6656 199.875 97.9742 200.62 97.9742 201.397Z" fill="white"/>
<path opacity="0.2" d="M126.632 204.326C128.25 204.326 129.561 203.014 129.561 201.397C129.561 199.779 128.25 198.468 126.632 198.468C125.015 198.468 123.703 199.779 123.703 201.397C123.703 203.014 125.015 204.326 126.632 204.326Z" fill="white"/>
<path d="M129.8 137.552H119.591C116.6 137.552 114.439 134.862 114.769 131.552L115.201 127.127C115.531 123.811 118.215 121.121 121.207 121.121H131.415C134.407 121.121 136.568 123.811 136.244 127.127L135.806 131.552C135.482 134.862 132.792 137.552 129.8 137.552Z" fill="#263238"/>
<path opacity="0.2" d="M129.8 137.552H119.591C116.6 137.552 114.439 134.862 114.769 131.552L115.201 127.127C115.531 123.811 118.215 121.121 121.207 121.121H131.415C134.407 121.121 136.568 123.811 136.244 127.127L135.806 131.552C135.482 134.862 132.792 137.552 129.8 137.552Z" fill="white"/>
<path d="M128.862 135.396H122.845C121.076 135.396 119.796 133.81 120.001 131.847L120.263 129.237C120.45 127.275 122.043 125.688 123.811 125.688H129.84C131.609 125.688 132.888 127.275 132.683 129.237L132.422 131.847C132.217 133.81 130.63 135.396 128.862 135.396Z" fill="#263238"/>
<path d="M124.073 131.495C124.073 131.495 122.697 159.163 116.736 163.912H123.112C123.112 163.912 128.799 154.488 129.214 131.495H124.073Z" fill="#263238"/>
<path d="M129.203 119.967L130.301 119.398C130.507 119.293 130.735 119.238 130.966 119.238C131.197 119.238 131.425 119.293 131.631 119.398L133.599 120.365C133.987 120.555 134.323 120.836 134.579 121.183C134.835 121.531 135.004 121.935 135.072 122.361L135.163 122.901C133.406 124.005 130.699 123.902 130.699 123.902L129.919 123.965C129.761 123.981 129.6 123.966 129.447 123.92C129.294 123.874 129.152 123.798 129.029 123.696C128.905 123.595 128.803 123.469 128.729 123.328C128.654 123.187 128.609 123.032 128.594 122.873L128.458 121.337C128.432 121.061 128.489 120.783 128.622 120.539C128.754 120.295 128.957 120.095 129.203 119.967Z" fill="#B97964"/>
<path opacity="0.2" d="M129.203 119.967L130.301 119.398C130.507 119.293 130.735 119.238 130.966 119.238C131.197 119.238 131.425 119.293 131.631 119.398L133.599 120.365C133.987 120.555 134.323 120.836 134.579 121.183C134.835 121.531 135.004 121.935 135.072 122.361L135.163 122.901C133.406 124.005 130.699 123.902 130.699 123.902L129.919 123.965C129.761 123.981 129.6 123.966 129.447 123.92C129.294 123.874 129.152 123.798 129.029 123.696C128.905 123.595 128.803 123.469 128.729 123.328C128.654 123.187 128.609 123.032 128.594 122.873L128.458 121.337C128.432 121.061 128.489 120.783 128.622 120.539C128.754 120.295 128.957 120.095 129.203 119.967Z" fill="black"/>
<path d="M121.138 121.32L117.157 126.354H113.37L113.864 119.33C116.731 119.881 121.138 121.32 121.138 121.32Z" fill="#407BFF"/>
<path opacity="0.2" d="M116.822 126.354H113.546L115.582 121.32C115.582 121.32 116.748 123.089 116.822 126.354Z" fill="black"/>
<path d="M110.81 144.752L94.141 143.205C94.6643 141.43 95.1249 139.69 95.5117 138.012C96.0008 135.959 96.3875 133.992 96.6946 132.155C97.0017 130.318 97.2633 128.611 97.4453 127.064L97.4965 126.627C97.4965 126.382 97.5534 126.143 97.5761 125.916C97.7411 124.42 97.8434 123.118 97.9117 122.043C98.0539 119.944 98.0539 118.733 98.0539 118.733C103.765 117.639 109.659 117.989 115.201 119.751C117.681 126.735 110.81 144.752 110.81 144.752Z" fill="#407BFF"/>
<path d="M110.753 120.865C110.5 121.39 110.113 121.838 109.631 122.166C109.149 122.493 108.59 122.687 108.009 122.728C107.428 122.77 106.846 122.657 106.322 122.402C105.799 122.147 105.352 121.758 105.026 121.275L104.304 120.2L103.417 118.863C104.907 117.982 105.493 115.161 105.692 112.738C105.754 111.976 105.777 111.26 105.777 110.651L109.519 115.77C109.258 116.312 109.066 116.885 108.951 117.476C108.903 117.719 108.884 117.967 108.894 118.215C108.899 119.21 109.394 120.132 110.753 120.865Z" fill="#B97964"/>
<path opacity="0.2" d="M109.508 115.798C109.246 116.34 109.055 116.913 108.939 117.504C107.955 118.767 106.425 120.103 104.316 120.189L103.417 118.863C104.907 117.982 105.493 115.161 105.692 112.738C105.754 111.976 105.777 111.26 105.777 110.651L109.508 115.798Z" fill="black"/>
<path d="M100.516 107.25C100.516 107.25 98.668 106.556 99.214 105.277C99.76 103.997 100.42 104.008 100.42 104.008C100.14 103.485 99.9886 102.903 99.9767 102.31C99.9648 101.717 100.093 101.13 100.351 100.596C101.267 98.8899 103.292 99.5837 103.292 99.5837C103.3 99.0478 103.49 98.5305 103.831 98.117C104.172 97.7036 104.644 97.4185 105.169 97.3088C105.704 97.2202 106.254 97.3089 106.734 97.5614C107.215 97.814 107.6 98.2165 107.83 98.7079C107.83 98.7079 109.104 97.0529 110.97 97.5079C112.835 97.9628 113.21 100.562 113.21 100.562C113.72 100.396 114.274 100.433 114.757 100.665C115.24 100.897 115.615 101.306 115.804 101.807C116.057 102.331 116.163 102.914 116.11 103.493C116.057 104.072 115.847 104.626 115.502 105.095C115.502 105.095 116.691 104.526 117.083 106.443C117.476 108.359 115.474 110.043 115.474 110.043C115.474 110.043 116.554 110.173 115.997 111.589C115.44 113.006 113.682 113.028 113.682 113.028C113.682 113.028 114.365 113.375 113.074 114.541C111.783 115.707 107.625 114.041 107.625 114.041L100.516 107.25Z" fill="#263238"/>
<path d="M105.601 104.213C101.62 104.418 100.482 106.613 100.386 110.725C100.289 115.844 101.614 119.432 106.522 118.079C113.176 116.242 112.198 103.866 105.601 104.213Z" fill="#B97964"/>
<path d="M102.939 110.367C102.652 110.976 102.294 111.549 101.87 112.073C101.995 112.231 102.162 112.352 102.352 112.422C102.541 112.493 102.746 112.509 102.945 112.471L102.939 110.367Z" fill="#A24E3F"/>
<path d="M105.356 109.912C105.356 110.242 105.55 110.48 105.766 110.48C105.982 110.48 106.152 110.207 106.147 109.878C106.141 109.548 105.953 109.309 105.732 109.309C105.51 109.309 105.345 109.588 105.356 109.912Z" fill="#263238"/>
<path d="M105.823 109.326L105.106 109.064C105.106 109.064 105.476 109.656 105.823 109.326Z" fill="#263238"/>
<path d="M101.29 109.963C101.29 110.293 101.483 110.532 101.705 110.532C101.927 110.532 102.092 110.259 102.08 109.929C102.069 109.599 101.887 109.36 101.671 109.36C101.455 109.36 101.284 109.639 101.29 109.963Z" fill="#263238"/>
<path d="M101.762 109.371L101.04 109.116C101.04 109.116 101.415 109.701 101.762 109.371Z" fill="#263238"/>
<path d="M107.006 107.847C106.982 107.848 106.958 107.843 106.937 107.833C106.915 107.823 106.896 107.809 106.88 107.79C106.666 107.599 106.41 107.458 106.134 107.38C105.857 107.301 105.566 107.286 105.282 107.335C105.26 107.34 105.238 107.339 105.216 107.335C105.194 107.33 105.173 107.321 105.154 107.308C105.136 107.296 105.12 107.28 105.108 107.261C105.096 107.242 105.087 107.221 105.083 107.199C105.077 107.155 105.087 107.111 105.113 107.075C105.138 107.039 105.176 107.014 105.22 107.006C105.561 106.943 105.911 106.962 106.243 107.061C106.575 107.16 106.879 107.336 107.131 107.574C107.162 107.606 107.179 107.649 107.179 107.694C107.179 107.738 107.162 107.781 107.131 107.813C107.095 107.84 107.05 107.852 107.006 107.847Z" fill="#263238"/>
<path d="M100.789 107.728C100.763 107.728 100.738 107.722 100.714 107.711C100.691 107.701 100.67 107.685 100.653 107.665C100.626 107.629 100.614 107.584 100.62 107.539C100.627 107.494 100.651 107.454 100.687 107.426C100.92 107.23 101.195 107.089 101.49 107.013C101.786 106.938 102.094 106.929 102.393 106.988C102.415 106.995 102.435 107.006 102.453 107.02C102.47 107.035 102.485 107.052 102.496 107.073C102.506 107.093 102.513 107.115 102.515 107.137C102.517 107.16 102.514 107.183 102.507 107.205C102.493 107.246 102.463 107.281 102.423 107.301C102.384 107.321 102.339 107.325 102.297 107.313C102.047 107.268 101.79 107.279 101.545 107.346C101.3 107.413 101.073 107.534 100.88 107.699C100.853 107.717 100.822 107.727 100.789 107.728Z" fill="#263238"/>
<path d="M110.293 110.68C110.293 110.68 108.262 107.512 108.416 104.992C108.416 104.992 100.374 102.188 100.403 110.196C100.403 110.196 99.2652 103.144 106.09 102.626C112.915 102.109 113.404 112.101 110.031 115.263C110.025 115.252 111.55 112.659 110.293 110.68Z" fill="#263238"/>
<path d="M109.69 111.555C109.695 111.326 109.746 111.099 109.838 110.889C109.931 110.679 110.065 110.489 110.231 110.33C110.398 110.172 110.594 110.048 110.808 109.965C111.023 109.883 111.252 109.843 111.481 109.849C112.721 109.923 113.438 112.42 110.407 113.188C109.974 113.307 109.701 112.892 109.69 111.555Z" fill="#B97964"/>
<path d="M103.9 114.786C103.787 114.794 103.673 114.794 103.559 114.786C103.537 114.782 103.516 114.773 103.497 114.761C103.478 114.749 103.462 114.733 103.45 114.714C103.437 114.696 103.428 114.675 103.423 114.653C103.419 114.631 103.418 114.609 103.423 114.587C103.426 114.565 103.434 114.544 103.445 114.525C103.457 114.506 103.472 114.49 103.49 114.478C103.508 114.465 103.529 114.456 103.55 114.451C103.572 114.446 103.594 114.446 103.616 114.45C104.044 114.525 104.486 114.454 104.868 114.248C105.251 114.041 105.553 113.712 105.726 113.313C105.734 113.292 105.746 113.273 105.762 113.257C105.778 113.24 105.796 113.227 105.817 113.218C105.837 113.209 105.86 113.205 105.882 113.204C105.904 113.204 105.927 113.208 105.948 113.216C105.969 113.224 105.988 113.237 106.004 113.252C106.02 113.268 106.033 113.286 106.042 113.307C106.051 113.328 106.056 113.35 106.056 113.372C106.057 113.395 106.053 113.417 106.044 113.438C105.87 113.856 105.57 114.211 105.186 114.452C104.802 114.693 104.353 114.81 103.9 114.786Z" fill="#263238"/>
<path d="M111.754 109.229C110.805 104.298 103.514 100.158 100.778 105.891C101.237 104.454 102.124 103.192 103.32 102.274C103.32 102.274 110.714 100.164 112.016 108.587L111.754 109.229Z" fill="#407BFF"/>
<path d="M107.87 204.172C105.026 204.172 104.645 204.127 103.042 204.07C101.671 204.024 101.335 204.195 100.243 204.172C99.3221 204.172 99.3562 203.268 99.6406 202.256C99.7827 201.744 99.9988 200.669 100.209 199.85L104.384 199.543C104.952 200.68 106.295 202.267 107.898 202.483C109.502 202.699 109.002 204.172 107.87 204.172Z" fill="#263238"/>
<path d="M94.4083 142.852C94.4083 142.852 88.721 151.309 91.8035 158.259C94.886 165.209 110.475 162.069 110.475 162.069L100.204 199.867L105.117 200.68C105.117 200.68 122.537 163.218 122.981 156.832C123.425 150.445 104.617 146.344 104.617 146.344L94.4083 142.852Z" fill="#407BFF"/>
<path opacity="0.3" d="M94.4083 142.852C94.4083 142.852 88.721 151.309 91.8035 158.259C94.886 165.209 110.475 162.069 110.475 162.069L100.204 199.867L105.117 200.68C105.117 200.68 122.537 163.218 122.981 156.832C123.425 150.445 104.617 146.344 104.617 146.344L94.4083 142.852Z" fill="white"/>
<path opacity="0.2" d="M111.754 123.413C111.754 123.413 103.792 129.021 97.4965 126.609C97.4965 126.365 97.5533 126.126 97.5761 125.899C97.741 124.403 97.8434 123.1 97.9116 122.026C99.952 121.093 102.07 120.342 104.242 119.779C106.477 121.482 109.032 122.718 111.754 123.413Z" fill="black"/>
<path d="M100.664 118.744C104.168 120.45 107.785 122.572 111.601 123.351C113.796 123.209 116.253 122.316 118.46 121.713L125.074 119.711C125.357 119.622 125.664 119.641 125.933 119.766C126.203 119.89 126.417 120.111 126.532 120.384C126.648 120.658 126.658 120.965 126.56 121.245C126.461 121.525 126.262 121.759 126.001 121.9C123.936 123.038 121.855 124.084 119.699 125.04C117.038 126.132 114.581 127.406 111.578 127.679C110.5 127.666 109.429 127.509 108.393 127.212C104.897 126.187 101.531 124.761 98.3609 122.964C97.8566 122.634 97.4945 122.127 97.3462 121.543C97.198 120.958 97.2745 120.34 97.5604 119.809C97.8464 119.279 98.3212 118.875 98.8907 118.678C99.4602 118.48 100.083 118.504 100.636 118.744H100.664Z" fill="#B97864"/>
<path d="M98.7818 118.113C95.7164 118.841 95.614 124.101 98.4292 126.57L105.254 120.809C105.254 120.809 102.416 117.248 98.7818 118.113Z" fill="#407BFF"/>
<path d="M125.25 119.739L129.032 119.648L127.326 123.476C127.326 123.476 123.914 123.356 124.079 121.616L125.25 119.739Z" fill="#B97964"/>
<path d="M132.28 121.519L129.686 124.312L127.315 123.476L129.032 119.648L132.28 121.519Z" fill="#B97964"/>
<path d="M183.061 165.789C185.706 171.26 188.254 176.731 189.977 182.589C190.767 186.57 190.915 190.619 191.211 194.572C191.416 197.842 191.535 201.107 191.581 204.388L188.652 204.695C187.725 200.083 186.855 194.936 186.047 190.284C185.66 188.18 185.364 186.109 184.836 184.085C182.822 178.87 180.03 173.501 177.715 168.371L183.061 165.789Z" fill="#DC897C"/>
<path d="M187.429 172.949L182.794 175.167L179.916 176.561L178.17 172.363L176.344 167.967L177.886 159.954C182.617 162.024 187.429 172.949 187.429 172.949Z" fill="#407BFF"/>
<path opacity="0.2" d="M182.794 175.167L179.916 176.561L178.17 172.363C178.528 169.986 178.83 167.967 178.83 167.967C178.83 167.967 182.197 170.987 182.794 175.167Z" fill="black"/>
<path d="M168.911 145.423C168.962 145.764 169.184 145.992 169.406 145.992C169.628 145.992 169.764 145.656 169.713 145.315C169.662 144.974 169.434 144.746 169.213 144.746C168.991 144.746 168.826 145.087 168.911 145.423Z" fill="#263238"/>
<path d="M169.122 146.014C169.685 146.988 170.38 147.88 171.186 148.665C170.982 148.868 170.735 149.024 170.464 149.123C170.193 149.221 169.904 149.259 169.616 149.233L169.122 146.014Z" fill="#DE5753"/>
<path d="M167.347 143.734C167.296 143.732 167.248 143.712 167.211 143.677C167.174 143.639 167.153 143.588 167.153 143.535C167.153 143.482 167.174 143.431 167.211 143.393C167.433 143.164 167.708 142.993 168.011 142.894C168.314 142.795 168.637 142.771 168.951 142.824C168.977 142.829 169.001 142.84 169.023 142.855C169.045 142.87 169.064 142.889 169.078 142.911C169.092 142.933 169.102 142.958 169.107 142.984C169.111 143.01 169.11 143.037 169.105 143.063C169.099 143.089 169.089 143.113 169.074 143.135C169.059 143.157 169.04 143.175 169.017 143.19C168.995 143.204 168.97 143.214 168.944 143.218C168.918 143.223 168.892 143.222 168.866 143.216C168.616 143.181 168.361 143.205 168.122 143.289C167.884 143.372 167.669 143.511 167.495 143.694C167.474 143.71 167.451 143.722 167.425 143.729C167.4 143.736 167.373 143.737 167.347 143.734Z" fill="#263238"/>
<path d="M169.969 150.564C169.86 151.937 169.275 153.229 168.314 154.215C167.679 154.867 166.9 155.36 166.039 155.654C165.215 155.94 164.333 156.017 163.472 155.877C162.612 155.737 161.799 155.385 161.108 154.852C158.674 153.044 158.356 150.581 157.457 146.458C157.236 145.502 157.263 144.506 157.535 143.563C157.807 142.62 158.316 141.763 159.013 141.072C159.71 140.382 160.572 139.881 161.517 139.617C162.462 139.353 163.459 139.335 164.413 139.565C168.758 140.594 170.282 146.685 169.969 150.564Z" fill="#E4897B"/>
<path d="M159.021 153.186C160.727 154.261 167.177 151.241 166.113 146.162C166.113 146.162 168.655 143.381 168.53 140.179C168.405 136.977 166.255 135.629 163.912 136.232C161.831 136.739 161.836 137.87 161.836 137.87C161.836 137.87 152.077 138.558 153.965 142.602C149.813 146.731 156.923 151.85 159.021 153.186Z" fill="#263238"/>
<path d="M164.361 146.953C164.592 147.977 165.154 148.896 165.96 149.569C167.023 150.445 167.888 149.671 167.87 148.431C167.87 147.294 167.302 145.491 166.068 145.099C164.833 144.706 164.123 145.719 164.361 146.953Z" fill="#E4897B"/>
<path opacity="0.2" d="M169.673 151.997C169.389 152.828 168.925 153.585 168.314 154.215C167.679 154.867 166.9 155.36 166.039 155.654C165.461 155.362 164.906 155.025 164.378 154.648L165.243 152.526C165.243 152.526 167.893 153.823 169.673 151.997Z" fill="black"/>
<path d="M160.409 158.39L159.681 153.402C159.681 153.402 162.928 151.127 166.329 152.657L171.448 158.828L160.409 158.39Z" fill="#E4897B"/>
<path d="M172.039 158.214L170.851 156.433C170.851 156.433 162.229 153.243 158.469 157.332C158.469 157.332 166.881 161.779 172.039 158.214Z" fill="#407BFF"/>
<path opacity="0.2" d="M172.039 158.214L170.851 156.433C170.851 156.433 162.229 153.243 158.469 157.332C158.469 157.332 166.881 161.779 172.039 158.214Z" fill="black"/>
<path d="M138.934 206.572L135.686 204.479L136.932 202.62L140.316 197.569L143.569 199.662L139.827 205.241L138.934 206.572Z" fill="#E4897B"/>
<path d="M135.925 204.212L140.475 204.166C140.549 204.168 140.62 204.194 140.678 204.24C140.735 204.287 140.776 204.351 140.793 204.422L141.556 207.727C141.583 207.869 141.556 208.016 141.479 208.139C141.402 208.261 141.281 208.35 141.14 208.386H141.021C139.554 208.386 138.49 208.295 136.653 208.313C135.516 208.313 132.103 208.477 130.545 208.489C128.987 208.5 128.759 206.965 129.408 206.817C132.251 206.163 134.424 205.276 135.334 204.439C135.496 204.294 135.707 204.213 135.925 204.212Z" fill="#263238"/>
<path d="M136.801 201.363L142.75 202.967L175.042 178.466L158.475 174.837C157.292 174.584 156.059 174.697 154.942 175.162C153.825 175.626 152.875 176.419 152.219 177.436L136.801 201.363Z" fill="#263238"/>
<path opacity="0.2" d="M136.801 201.363L142.75 202.967L175.042 178.466L158.475 174.837C157.292 174.584 156.059 174.697 154.942 175.162C153.825 175.626 152.875 176.419 152.219 177.436L136.801 201.363Z" fill="black"/>
<path d="M119.148 206.692L115.792 204.775L116.941 202.853L120.052 197.632L123.408 199.548L119.967 205.315L119.148 206.692Z" fill="#E4897B"/>
<path d="M115.923 204.132H120.473C120.547 204.133 120.619 204.159 120.677 204.205C120.734 204.252 120.775 204.316 120.791 204.388L121.525 207.704C121.551 207.847 121.521 207.994 121.442 208.116C121.363 208.237 121.24 208.324 121.099 208.358H120.979C119.518 208.358 118.448 208.244 116.611 208.244C115.474 208.244 112.062 208.364 110.503 208.364C108.945 208.364 108.734 206.817 109.366 206.658C112.209 206.032 114.399 205.167 115.32 204.343C115.49 204.203 115.703 204.128 115.923 204.132Z" fill="#263238"/>
<path d="M182.834 191.33L160.255 191.387C159.687 189.385 158.97 182.418 156.763 173.802C156.166 171.465 155.455 169.008 154.619 166.488C153.925 164.21 153.081 161.979 152.094 159.812C154.137 158.577 156.382 157.712 158.725 157.258C168.718 155.552 177.886 159.954 177.886 159.954C177.886 159.954 181.85 170.987 182.834 191.33Z" fill="#407BFF"/>
<path opacity="0.2" d="M156.763 173.802C156.166 171.465 155.455 169.008 154.619 166.488L156.195 165.852C156.195 165.852 158.674 171.442 156.763 173.802Z" fill="black"/>
<path d="M146.885 177.67L149.506 178.909L150.507 174.496C150.507 174.496 148.414 173.762 146.845 174.832L146.885 177.67Z" fill="#E4897B"/>
<path d="M153.266 180.405L153.385 176.384L150.507 174.496L149.506 178.909L153.266 180.405Z" fill="#E4897B"/>
<path d="M155.057 166.722C150.695 169.082 145.713 171.271 141.92 174.36C141.834 174.434 141.863 174.468 141.959 174.138C141.977 173.928 141.95 173.717 141.88 173.518C141.817 173.302 141.677 173.116 141.487 172.995C141.413 172.966 141.459 173.035 141.561 173.103C141.703 173.191 141.854 173.266 142.011 173.325C143.762 173.99 146.191 174.212 148.153 174.462L148.449 177.391C147.829 177.567 147.249 177.687 146.64 177.8C144.365 178.193 142.005 178.472 139.611 177.681C138.582 177.372 137.713 176.674 137.19 175.735C136.667 174.797 136.529 173.692 136.807 172.653C137.978 168.496 148.579 163.309 152.469 161.381L155.057 166.727V166.722Z" fill="#DC897C"/>
<path d="M159.192 186.582L158.179 189.175C158.179 189.175 146.083 174.229 139.412 173.376C132.74 172.523 117.231 200.925 117.231 200.925L123.112 202.705L139.662 187.691C146.486 199.6 154.648 208.335 164.35 208.335H173.825C184.42 208.335 184.54 196.517 182.447 186.496L159.192 186.582Z" fill="#263238"/>
<path d="M152.094 159.812C148.301 161.199 143.842 165.408 143.842 165.408C143.842 165.408 147.595 171.914 147.971 171.664C148.346 171.414 156.047 169.207 156.047 169.207C156.047 169.207 157.616 167.171 156.411 163.724C156.097 162.751 155.533 161.878 154.776 161.191C154.018 160.504 153.093 160.028 152.094 159.812Z" fill="#407BFF"/>
<path d="M190.187 202.426L194.31 202.631L192.132 206.658C192.132 206.658 188.464 206.254 188.754 204.383L190.187 202.426Z" fill="#E4897B"/>
<path d="M197.689 204.929L194.646 207.755L192.132 206.658L194.31 202.631L197.689 204.929Z" fill="#E4897B"/>
<path d="M62.4005 161.643C65.1645 164.43 67.8887 167.552 71.1987 169.662C71.1987 169.662 71.4034 169.77 71.4205 169.787C71.3314 169.754 71.2368 169.739 71.1418 169.742C71.0565 169.742 71.193 169.742 71.3408 169.742C75.1172 168.672 78.6262 166.21 82.1011 164.316C82.3701 164.154 82.6893 164.096 82.9979 164.154C83.3065 164.213 83.5829 164.382 83.7747 164.631C83.9665 164.879 84.0601 165.19 84.0378 165.503C84.0155 165.816 83.8788 166.11 83.6537 166.329C80.9466 168.837 73.6499 175.543 69.8167 174.138C67.4735 173.279 65.5171 171.664 63.6744 170.111C61.8745 168.551 60.178 166.876 58.5957 165.095C56.4289 162.519 60.046 159.237 62.4005 161.649V161.643Z" fill="#E9B376"/>
<path d="M67.155 165.579C66.6716 169.196 63.7427 172.744 63.7427 172.744L63.1285 172.324L60.137 170.339C60.137 170.339 60.0801 170.168 59.9948 169.867C59.9095 169.565 59.8014 169.213 59.6706 168.729C58.9825 166.318 57.7426 161.808 57.5891 159.937C61.3029 159.851 62.9749 161.62 67.155 165.579Z" fill="#407BFF"/>
<path opacity="0.7" d="M67.155 165.579C66.6716 169.196 63.7427 172.744 63.7427 172.744L63.1285 172.324L60.137 170.339C60.137 170.339 60.0801 170.168 59.9948 169.867C59.9095 169.565 59.8014 169.213 59.6706 168.729C58.9825 166.318 57.7426 161.808 57.5891 159.937C61.3029 159.851 62.9749 161.62 67.155 165.579Z" fill="white"/>
<path opacity="0.2" d="M63.1285 172.324L60.137 170.339C60.137 170.339 60.0801 170.168 59.9948 169.867C60.1057 168.951 60.2729 168.043 60.4953 167.148C61.2834 167.768 61.9272 168.552 62.3819 169.446C62.8366 170.34 63.0913 171.322 63.1285 172.324Z" fill="black"/>
<path d="M59.4886 183.414L62.0422 187.884C68.8669 186.291 90.8083 182.947 93.4984 190.472C96.8482 199.816 72.6603 207.272 59.2782 207.727C45.8961 208.182 34.2202 204.997 42.6828 185.484L59.4886 183.414Z" fill="#263238"/>
<path opacity="0.2" d="M59.4886 183.414L62.0422 187.884C68.8669 186.291 90.8083 182.947 93.4984 190.472C96.8482 199.816 72.6603 207.272 59.2782 207.727C45.8961 208.182 34.2202 204.997 42.6828 185.484L59.4886 183.414Z" fill="black"/>
<path d="M89.6254 203.683C89.61 203.693 89.5923 203.698 89.5742 203.698C89.5561 203.698 89.5383 203.693 89.523 203.683C89.5149 203.67 89.5106 203.656 89.5106 203.64C89.5106 203.625 89.5149 203.611 89.523 203.598C89.5685 203.45 90.0121 202.165 90.4614 202.028C90.5085 202.017 90.5579 202.017 90.6047 202.03C90.6514 202.043 90.6941 202.068 90.7287 202.102C90.7904 202.154 90.8375 202.221 90.8654 202.297C90.8933 202.373 90.9011 202.455 90.8879 202.534C90.8145 202.776 90.6674 202.989 90.4671 203.143C90.2058 203.351 89.9238 203.532 89.6254 203.683ZM89.7391 203.439C90.157 203.257 90.4946 202.929 90.6889 202.517C90.7016 202.464 90.6981 202.407 90.6788 202.356C90.6596 202.304 90.6255 202.259 90.5808 202.227C90.5682 202.211 90.5512 202.2 90.5319 202.194C90.5127 202.188 90.4921 202.187 90.4728 202.193C90.4349 202.207 90.4001 202.228 90.3704 202.256C90.0898 202.608 89.8759 203.009 89.7391 203.439Z" fill="#263238"/>
<path d="M89.5969 203.7C89.5857 203.709 89.5716 203.714 89.5571 203.714C89.5426 203.714 89.5285 203.709 89.5173 203.7C89.4718 203.666 88.8576 202.887 88.9486 202.358C88.9594 202.292 88.9838 202.23 89.02 202.174C89.0562 202.118 89.1035 202.07 89.159 202.034C89.2071 201.99 89.2679 201.964 89.3325 201.957C89.397 201.951 89.4618 201.966 89.5173 202C89.8414 202.233 89.8016 203.274 89.6424 203.672V203.712L89.5969 203.7ZM89.25 202.176C89.1931 202.222 89.1548 202.286 89.1419 202.358C89.159 202.752 89.3048 203.13 89.5571 203.433C89.6538 202.989 89.6253 202.256 89.432 202.125C89.432 202.125 89.3751 202.079 89.2784 202.125V202.153L89.25 202.176Z" fill="#263238"/>
<path d="M66.0972 205.878C66.106 205.864 66.1187 205.853 66.1339 205.846C66.1491 205.839 66.166 205.836 66.1825 205.839C66.1978 205.84 66.2123 205.846 66.2237 205.856C66.235 205.866 66.2426 205.88 66.2451 205.895C66.2792 206.049 66.5124 207.391 66.1882 207.727C66.1517 207.759 66.1073 207.782 66.0593 207.792C66.0114 207.802 65.9617 207.799 65.9152 207.784C65.8352 207.77 65.7603 207.735 65.6991 207.682C65.6378 207.629 65.5925 207.56 65.5683 207.482C65.5121 207.238 65.5381 206.982 65.6422 206.754C65.763 206.447 65.9155 206.154 66.0972 205.878ZM66.0972 206.151C65.8204 206.512 65.6812 206.96 65.7048 207.414C65.7204 207.469 65.7521 207.517 65.7957 207.554C65.8393 207.59 65.8928 207.613 65.9494 207.619C65.9653 207.629 65.9841 207.635 66.0034 207.635C66.0226 207.635 66.0414 207.629 66.0574 207.619C66.083 207.589 66.1023 207.554 66.1143 207.516C66.1995 207.065 66.1995 206.602 66.1143 206.151H66.0972Z" fill="#263238"/>
<path d="M74.8556 199.105L69.3503 201.067L66.7057 202.011L67.3825 204.906L69.9418 204.36L76.1978 203.023L74.8556 199.105Z" fill="#EBB376"/>
<path d="M68.1048 205.042L67.6385 201.63C67.6322 201.585 67.6171 201.542 67.5938 201.503C67.5706 201.463 67.5398 201.429 67.5033 201.402C67.4667 201.375 67.4251 201.356 67.381 201.345C67.3368 201.335 67.2909 201.333 67.246 201.34L65.5399 201.624C65.5399 201.624 63.265 201.835 62.7929 202.426C61.4621 204.132 62.2924 211.719 63.1797 211.986C63.5038 212.083 63.8451 211.64 63.9873 211.332C64.4365 210.354 65.2271 207.801 65.6138 206.993C66.0574 206.043 67.32 205.583 67.8432 205.418C67.9256 205.399 67.9979 205.35 68.0462 205.28C68.0946 205.211 68.1154 205.126 68.1048 205.042Z" fill="#407BFF"/>
<path d="M66.1086 205.878C66.121 205.87 66.136 205.865 66.1512 205.865C66.1665 205.865 66.1814 205.87 66.1939 205.878C66.2451 205.878 67.1664 206.276 67.3313 206.783C67.3514 206.846 67.3587 206.913 67.3528 206.979C67.347 207.046 67.3281 207.11 67.2972 207.169C67.2791 207.232 67.2397 207.287 67.1858 207.324C67.1319 207.362 67.0668 207.379 67.0015 207.374C66.609 207.329 66.137 206.396 66.0858 205.975V205.878C66.0933 205.877 66.1011 205.877 66.1086 205.878ZM67.155 207.044C67.1776 206.974 67.1776 206.898 67.155 206.828C67.047 206.504 66.5351 206.22 66.2735 206.089C66.3986 206.527 66.7797 207.152 67.0128 207.175C67.0128 207.175 67.0811 207.175 67.1323 207.078V207.044H67.155Z" fill="#263238"/>
<path opacity="0.2" d="M74.8556 199.105L69.3503 201.067L69.9418 204.36L76.1978 203.023L74.8556 199.105Z" fill="black"/>
<path d="M70.92 204.855L72.501 204.968L71.4432 199.52L69.646 200.51L70.92 204.855Z" fill="#407BFF"/>
<path opacity="0.6" d="M70.92 204.855L72.501 204.968L71.4432 199.52L69.646 200.51L70.92 204.855Z" fill="white"/>
<path opacity="0.2" d="M47.9492 183.698L56.1957 192.843C56.1957 192.843 65.2953 192.638 76.3854 198.053C76.3854 198.053 88.2661 193.145 89.358 189.067C90.7912 183.727 62.0593 187.901 62.0593 187.901L47.9492 183.698Z" fill="black"/>
<path d="M59.4033 187.355L42.5861 185.404C42.9082 183.668 43.0983 181.909 43.1548 180.144C43.2222 177.628 43.1234 175.111 42.8591 172.608C42.6259 170.214 42.2904 167.461 41.7217 164.231C41.6079 163.653 41.6248 163.057 41.7711 162.487C41.9175 161.917 42.1896 161.386 42.5675 160.935C42.9454 160.483 43.4195 160.122 43.9551 159.877C44.4907 159.633 45.0742 159.511 45.6629 159.522C46.3397 159.522 47.0506 159.556 47.7786 159.601C50.3539 159.717 52.9177 160.015 55.4507 160.494C56.2696 160.659 57.117 160.864 57.9303 161.063C60.8479 161.819 62.6564 165.493 62.4062 168.456C62.3077 170.759 62.0531 173.053 61.6441 175.321C61.1265 178.665 60.518 181.929 59.4033 187.355Z" fill="#407BFF"/>
<path opacity="0.7" d="M59.4033 187.355L42.5861 185.404C42.9082 183.668 43.0983 181.909 43.1548 180.144C43.2222 177.628 43.1234 175.111 42.8591 172.608C42.6259 170.214 42.2904 167.461 41.7217 164.231C41.6079 163.653 41.6248 163.057 41.7711 162.487C41.9175 161.917 42.1896 161.386 42.5675 160.935C42.9454 160.483 43.4195 160.122 43.9551 159.877C44.4907 159.633 45.0742 159.511 45.6629 159.522C46.3397 159.522 47.0506 159.556 47.7786 159.601C50.3539 159.717 52.9177 160.015 55.4507 160.494C56.2696 160.659 57.117 160.864 57.9303 161.063C60.8479 161.819 62.6564 165.493 62.4062 168.456C62.3077 170.759 62.0531 173.053 61.6441 175.321C61.1265 178.665 60.518 181.929 59.4033 187.355Z" fill="white"/>
<path opacity="0.2" d="M43.1662 180.149C43.2336 177.634 43.1348 175.116 42.8705 172.614C44.9748 170.128 46.9653 168.064 46.9653 168.064C46.9653 168.064 50.2639 176.555 43.1662 180.149Z" fill="black"/>
<path d="M45.8222 167.143C46.0155 170.743 45.9814 176.344 46.6354 179.785L46.4648 179.364C46.3511 179.2 46.4193 179.364 46.5388 179.455C46.6926 179.608 46.856 179.75 47.0279 179.882C49.3028 181.588 52.0326 182.902 54.5976 184.261L57.8336 185.928C58.1142 186.068 58.3332 186.307 58.4491 186.599C58.565 186.89 58.5697 187.214 58.4623 187.509C58.3549 187.804 58.1428 188.049 57.8665 188.198C57.5902 188.347 57.2688 188.389 56.9635 188.316C55.7294 188.02 54.5464 187.668 53.3464 187.304C49.9341 186.166 46.4307 185.074 43.4961 182.851C42.9229 182.406 42.4776 181.817 42.2051 181.145C40.8913 176.481 40.789 171.977 40.6923 167.222C40.8117 163.906 45.6117 163.844 45.8108 167.16L45.8222 167.143Z" fill="#E9B376"/>
<path d="M62.372 185.723L61.3483 184.978C61.1587 184.84 60.9388 184.751 60.7072 184.716C60.4756 184.681 60.2391 184.703 60.0175 184.779L57.9132 185.484C57.4985 185.624 57.1232 185.862 56.8185 186.176C56.5139 186.491 56.2886 186.873 56.1616 187.292L56.0023 187.821C57.6175 189.164 60.3531 189.431 60.3531 189.431L61.1209 189.59C61.2781 189.628 61.4413 189.634 61.6011 189.609C61.7608 189.583 61.9139 189.526 62.0514 189.441C62.1889 189.356 62.3082 189.244 62.4023 189.113C62.4964 188.981 62.5634 188.832 62.5995 188.674L62.9408 187.15C62.9956 186.883 62.971 186.605 62.8699 186.351C62.7689 186.098 62.5958 185.879 62.372 185.723Z" fill="#EBB376"/>
<path d="M44.2866 159.755C40.9994 160.932 40.0553 163.798 39.9871 169.776C41.6932 171.328 46.8743 171.414 46.8743 171.414C46.8743 171.414 47.7729 162.348 44.2866 159.755Z" fill="#407BFF"/>
<path d="M84.1087 189.016V190.369C84.1087 190.716 83.6992 190.858 83.3523 190.858H56.3037C55.9511 190.858 55.536 190.716 55.536 190.369V189.016H84.1087Z" fill="#263238"/>
<path opacity="0.4" d="M84.1087 189.016V190.369C84.1087 190.716 83.6992 190.858 83.3523 190.858H56.3037C55.9511 190.858 55.536 190.716 55.536 190.369V189.016H84.1087Z" fill="white"/>
<path opacity="0.2" d="M84.1087 189.016V190.369C84.1087 190.716 83.6993 190.858 83.3523 190.858H65.4944C65.1475 190.858 64.7323 190.716 64.7323 190.369V189.016H84.1087Z" fill="black"/>
<path d="M88.6415 174.945L85.4168 189.567C85.3571 189.801 85.2225 190.009 85.0335 190.159C84.8445 190.309 84.6116 190.393 84.3703 190.398H66.7399C66.6301 190.395 66.5226 190.366 66.4257 190.315C66.3287 190.263 66.245 190.19 66.1811 190.101C66.1172 190.012 66.0748 189.909 66.0573 189.8C66.0398 189.692 66.0476 189.581 66.0801 189.476L69.2991 174.968C69.3649 174.747 69.5048 174.555 69.6953 174.424C69.8858 174.294 70.1154 174.233 70.3456 174.252H87.9761C88.4481 174.252 88.7211 174.468 88.6415 174.945Z" fill="#263238"/>
<path opacity="0.4" d="M88.6414 174.945L85.4168 189.567C85.3571 189.801 85.2225 190.009 85.0335 190.159C84.8445 190.309 84.6115 190.393 84.3703 190.398H67.3541C67.2443 190.394 67.1367 190.366 67.0397 190.315C66.9426 190.263 66.8587 190.19 66.7944 190.101C66.7301 190.012 66.6871 189.909 66.6687 189.801C66.6504 189.693 66.6572 189.582 66.6887 189.476L69.9133 174.968C69.9791 174.747 70.119 174.555 70.3095 174.424C70.5 174.294 70.7296 174.233 70.9598 174.252H87.976C88.4481 174.252 88.7211 174.468 88.6414 174.945Z" fill="white"/>
<path opacity="0.2" d="M79.957 182.373C79.9008 182.966 79.6363 183.52 79.2104 183.936C78.7846 184.353 78.225 184.605 77.6309 184.648C76.647 184.648 76.0613 183.63 76.3456 182.373C76.63 181.116 77.6025 180.144 78.5636 180.098C78.285 181.349 78.8878 182.373 79.866 182.373H79.957Z" fill="black"/>
<path d="M82.7495 166.796L86.5372 166.892L84.831 163.059C84.831 163.059 81.4528 163.179 81.5836 164.919L82.7495 166.796Z" fill="#EBB376"/>
<path d="M89.7846 165.027L87.1912 162.229L84.8196 163.059L86.5372 166.892L89.7846 165.027Z" fill="#EBB376"/>
<path d="M46.9483 159.561C46.5615 159.533 47.7445 164.282 53.4886 165.453C59.2327 166.625 58.7891 161.342 58.3398 160.016C58.3398 160.016 50.7871 159.812 46.9483 159.561Z" fill="#EBB376"/>
<path d="M48.5236 140.993C48.5236 140.993 51.8165 137.341 57.8393 139.224C63.8621 141.106 63.6062 151.855 60.5465 155.757C55.7546 155.589 50.9609 156.036 46.2828 157.087C46.2828 157.087 43.3823 149.29 44.8212 144.706C46.2601 140.122 48.5236 140.993 48.5236 140.993Z" fill="#263238"/>
<path d="M49.735 151.713C50.116 154.25 50.4118 158.845 48.5975 160.301C48.5975 160.301 50.9634 160.221 55.553 163.85C57.2194 161.961 56.2355 161.182 56.2355 161.182C53.5227 160.21 53.6763 158.162 54.2279 156.291L49.735 151.713Z" fill="#EBB376"/>
<path opacity="0.2" d="M51.5777 153.584L54.2564 156.291C54.1212 156.729 54.0242 157.179 53.9663 157.633C52.9256 157.36 51.5322 156.035 51.4696 154.915C51.4254 154.468 51.4621 154.018 51.5777 153.584Z" fill="black"/>
<path d="M48.2051 146.538C48.4895 150.593 48.5293 152.31 50.571 154.5C53.6478 157.753 58.5332 156.775 59.4147 152.794C60.2393 149.199 59.6308 143.171 55.6952 141.391C54.8651 140.98 53.9403 140.798 53.0163 140.864C52.0924 140.93 51.2027 141.241 50.4393 141.765C49.6759 142.29 49.0663 143.009 48.6735 143.848C48.2808 144.687 48.1191 145.615 48.2051 146.538Z" fill="#EBB376"/>
<path d="M53.1985 147.783C53.1985 148.13 53.3862 148.409 53.608 148.42C53.8298 148.432 53.989 148.159 53.9834 147.817C53.9777 147.476 53.79 147.192 53.5739 147.186C53.3578 147.18 53.1871 147.442 53.1985 147.783Z" fill="#263238"/>
<path d="M57.4412 147.829C57.4412 148.17 57.6346 148.454 57.8507 148.466C58.0668 148.477 58.2317 148.204 58.226 147.863C58.2204 147.522 58.0327 147.237 57.8166 147.231C57.6004 147.226 57.4412 147.487 57.4412 147.829Z" fill="#263238"/>
<path d="M57.7028 147.243L58.4934 147.038C58.4934 147.038 58.1009 147.664 57.7028 147.243Z" fill="#263238"/>
<path d="M56.1559 148.528C56.4739 149.32 56.8905 150.069 57.3957 150.758C57.2254 150.874 57.031 150.95 56.8272 150.98C56.6234 151.011 56.4153 150.995 56.2185 150.934L56.1559 148.528Z" fill="#D58745"/>
<path d="M52.5161 145.622C52.5417 145.626 52.5679 145.624 52.5926 145.616C52.6173 145.608 52.6398 145.595 52.6582 145.576C52.8358 145.412 53.0516 145.295 53.286 145.235C53.5204 145.176 53.766 145.176 54.0004 145.235C54.0243 145.243 54.0496 145.246 54.0745 145.243C54.0995 145.241 54.1237 145.233 54.1456 145.221C54.1675 145.209 54.1867 145.192 54.2018 145.172C54.2169 145.152 54.2278 145.129 54.2336 145.104C54.2478 145.052 54.2409 144.995 54.2143 144.948C54.1878 144.9 54.1437 144.864 54.0914 144.849C53.7946 144.769 53.4825 144.766 53.1842 144.839C52.8858 144.913 52.611 145.061 52.3853 145.269C52.3488 145.307 52.3284 145.357 52.3284 145.409C52.3284 145.461 52.3488 145.511 52.3853 145.548C52.4179 145.588 52.4647 145.615 52.5161 145.622Z" fill="#263238"/>
<path d="M59.0905 145.656C59.1363 145.674 59.1869 145.674 59.2327 145.656C59.2548 145.642 59.2738 145.624 59.2887 145.603C59.3036 145.581 59.314 145.557 59.3193 145.532C59.3246 145.506 59.3247 145.48 59.3196 145.454C59.3145 145.429 59.3043 145.405 59.2896 145.383C59.1333 145.103 58.9145 144.862 58.6502 144.679C58.3859 144.497 58.0831 144.378 57.7654 144.331C57.7401 144.329 57.7147 144.333 57.6909 144.342C57.6671 144.351 57.6454 144.364 57.6272 144.382C57.609 144.4 57.5946 144.421 57.5852 144.445C57.5757 144.468 57.5712 144.493 57.572 144.519C57.573 144.572 57.593 144.623 57.6285 144.663C57.664 144.702 57.7126 144.728 57.7654 144.735C58.0168 144.773 58.2559 144.869 58.464 145.015C58.6722 145.161 58.8438 145.353 58.9654 145.576C58.98 145.597 58.9986 145.615 59.02 145.629C59.0415 145.642 59.0655 145.652 59.0905 145.656Z" fill="#263238"/>
<path d="M53.4601 147.197L54.2507 146.998C54.2507 146.998 53.8753 147.618 53.4601 147.197Z" fill="#263238"/>
<path d="M49.0468 148.972C49.0468 148.972 52.1748 146.515 51.4639 142.67C51.4639 142.67 57.0602 140.458 59.2668 146.083C59.2668 146.083 59.7332 141.26 54.4725 140.316C49.2118 139.372 42.9842 146.504 48.9445 151.912L49.0468 148.972Z" fill="#263238"/>
<path d="M46.9141 149.814C47.117 150.19 47.3923 150.522 47.7242 150.791C48.0561 151.061 48.4379 151.262 48.8478 151.383C49.9113 151.673 50.389 150.627 50.0478 149.546C49.735 148.574 48.808 147.271 47.7729 147.436C46.7378 147.601 46.3852 148.852 46.9141 149.814Z" fill="#EBB376"/>
<path d="M59.881 148.471C59.8554 148.471 59.8306 148.463 59.8101 148.447C59.7896 148.432 59.7746 148.411 59.7673 148.386C57.7597 141.317 51.1341 142.773 51.0658 142.784C51.0512 142.787 51.0362 142.788 51.0214 142.785C51.0067 142.783 50.9926 142.778 50.9799 142.77C50.9672 142.762 50.9562 142.751 50.9475 142.739C50.9389 142.727 50.9327 142.713 50.9293 142.699C50.926 142.684 50.9255 142.669 50.928 142.654C50.9304 142.64 50.9358 142.626 50.9437 142.613C50.9516 142.6 50.962 142.589 50.9741 142.58C50.9863 142.572 51.0001 142.566 51.0146 142.562C51.0829 142.562 57.9246 141.044 59.9891 148.323C59.9934 148.338 59.9948 148.353 59.9931 148.368C59.9914 148.383 59.9867 148.398 59.9793 148.411C59.9719 148.425 59.9619 148.436 59.9499 148.446C59.9379 148.455 59.9241 148.462 59.9095 148.466L59.881 148.471Z" fill="#263238"/>
<path d="M56.4175 152.111C56.219 152.576 56.0555 153.055 55.9284 153.544H55.6611C54.4611 153.414 53.9549 152.976 53.7388 152.492C53.6419 152.262 53.601 152.013 53.6194 151.764C53.6281 151.623 53.6549 151.483 53.699 151.349C54.4066 151.759 55.1942 152.011 56.008 152.088C56.2583 152.1 56.4175 152.111 56.4175 152.111Z" fill="#263238"/>
<path d="M56.008 152.066L55.8545 152.481C54.717 152.361 53.9379 152.123 53.6194 151.741C53.6281 151.6 53.6549 151.461 53.699 151.326C54.4066 151.736 55.1942 151.988 56.008 152.066Z" fill="white"/>
<path d="M55.6611 153.522C54.4611 153.391 53.9549 152.953 53.7388 152.469C54.1947 152.529 54.6371 152.665 55.0469 152.873C55.3138 153.021 55.5284 153.247 55.6611 153.522Z" fill="#DE5753"/>
<path d="M55.4677 171.061C55.4497 171.062 55.4316 171.059 55.4148 171.052C55.3981 171.045 55.3831 171.035 55.3711 171.021C52.3491 167.781 50.0705 163.921 48.6942 159.709C48.6855 159.675 48.6908 159.638 48.7089 159.607C48.727 159.576 48.7564 159.554 48.7909 159.544C48.8077 159.54 48.8252 159.539 48.8423 159.542C48.8595 159.544 48.8759 159.55 48.8908 159.559C48.9056 159.568 48.9185 159.58 48.9287 159.594C48.9389 159.608 48.9462 159.624 48.9502 159.641C50.2897 163.737 52.4929 167.497 55.4109 170.669C55.7521 169.531 57.1682 164.128 55.0355 159.988C55.0251 159.957 55.026 159.924 55.0381 159.893C55.0502 159.863 55.0727 159.838 55.1015 159.823C55.1303 159.808 55.1635 159.804 55.1952 159.811C55.2269 159.818 55.255 159.837 55.2744 159.863C57.7142 164.6 55.6156 170.907 55.5929 170.97C55.5854 170.992 55.5726 171.012 55.5558 171.028C55.5389 171.043 55.5185 171.055 55.4962 171.061H55.4677Z" fill="#263238"/>
<path d="M55.644 170.822L56.0763 171.391C56.115 171.439 56.1362 171.499 56.1362 171.562C56.1362 171.624 56.115 171.684 56.0763 171.732L55.6384 172.301C55.6122 172.332 55.5796 172.357 55.5427 172.374C55.5059 172.391 55.4657 172.4 55.4251 172.4C55.3845 172.4 55.3443 172.391 55.3075 172.374C55.2706 172.357 55.238 172.332 55.2118 172.301L54.8023 171.835C54.7664 171.787 54.7469 171.729 54.7469 171.67C54.7469 171.61 54.7664 171.552 54.8023 171.505L55.1663 170.845C55.1901 170.804 55.2239 170.769 55.2646 170.744C55.3052 170.72 55.3514 170.705 55.399 170.703C55.4465 170.701 55.4939 170.711 55.5367 170.731C55.5795 170.752 55.6164 170.783 55.644 170.822Z" fill="white"/>
<path opacity="0.7" d="M44.2866 159.755C40.9994 160.932 40.0553 163.798 39.9871 169.776C41.6932 171.328 46.8743 171.414 46.8743 171.414C46.8743 171.414 47.7729 162.348 44.2866 159.755Z" fill="white"/>
<path d="M78.6774 205.372L84.4443 206.322L87.214 206.777L88.0216 203.916L85.5192 203.154L79.3997 201.294L78.6774 205.372Z" fill="#EBB376"/>
<path d="M87.4585 203.45L86.213 206.658C86.1966 206.7 86.189 206.746 86.1904 206.792C86.1919 206.838 86.2024 206.883 86.2215 206.925C86.2405 206.967 86.2677 207.004 86.3014 207.036C86.3351 207.067 86.3746 207.091 86.4177 207.107L88.0272 207.676C88.0272 207.676 90.1372 208.597 90.8197 208.301C92.8159 207.442 95.7562 200.407 95.1079 199.77C94.869 199.526 94.3571 199.77 94.0841 199.952C93.2197 200.589 91.2917 202.438 90.5637 202.961C89.7107 203.575 88.4083 203.382 87.8452 203.262C87.769 203.242 87.6881 203.25 87.6171 203.284C87.5462 203.319 87.4899 203.378 87.4585 203.45Z" fill="#407BFF"/>
<path opacity="0.2" d="M78.6774 205.372L84.4443 206.322L85.5192 203.154L79.3997 201.294L78.6774 205.372Z" fill="black"/>
<path d="M84.5239 202.557C84.5239 202.557 61.0128 189.34 52.8914 189.715C44.77 190.091 43.6098 197.245 46.9539 201.721C50.298 206.197 56.4857 207.289 56.4857 207.289C56.4857 207.289 52.2829 201.329 52.8914 199.668C53.4999 198.007 55.8772 200.328 55.8772 200.328C55.8772 200.328 70.6641 205.105 83.6139 206.203L84.5239 202.557Z" fill="#263238"/>
<path d="M84.9049 202.193L83.5741 201.3L81.8622 206.549H83.9153L84.9049 202.193Z" fill="#407BFF"/>
<path opacity="0.6" d="M84.9049 202.193L83.5741 201.3L81.8622 206.549H83.9153L84.9049 202.193Z" fill="white"/>
</svg>
