<svg width="14" height="14" viewBox="0 0 14 14" fill="none" xmlns="http://www.w3.org/2000/svg">
<g clip-path="url(#clip0_13_139)">
<path d="M9.33333 12.25V11.0833C9.33333 10.4645 9.0875 9.871 8.64991 9.43342C8.21233 8.99583 7.61883 8.75 6.99999 8.75H2.91666C2.29782 8.75 1.70433 8.99583 1.26675 9.43342C0.829161 9.871 0.583328 10.4645 0.583328 11.0833V12.25" stroke="#6E6E71" stroke-width="1.5" stroke-linecap="round" stroke-linejoin="round"/>
<path d="M4.95833 6.41667C6.247 6.41667 7.29167 5.372 7.29167 4.08333C7.29167 2.79467 6.247 1.75 4.95833 1.75C3.66967 1.75 2.625 2.79467 2.625 4.08333C2.625 5.372 3.66967 6.41667 4.95833 6.41667Z" stroke="#6E6E71" stroke-width="1.5" stroke-linecap="round" stroke-linejoin="round"/>
<path d="M9.91667 6.41667L11.0833 7.58333L13.4167 5.25" stroke="#6E6E71" stroke-width="1.5" stroke-linecap="round" stroke-linejoin="round"/>
</g>
<defs>
<clipPath id="clip0_13_139">
<rect width="14" height="14" fill="white"/>
</clipPath>
</defs>
</svg>
