<svg width="18" height="12" viewBox="0 0 18 12" fill="none" xmlns="http://www.w3.org/2000/svg">
<path fill-rule="evenodd" clip-rule="evenodd" d="M1.55182 3.63965C1.55182 3.3137 1.27477 3.04211 0.942241 3.04211H0.609717C0.277192 3.04211 0 3.3137 0 3.63965C0 3.96561 0.277192 4.23719 0.609717 4.23719H0.942241C1.27477 4.23719 1.55182 3.96561 1.55182 3.63965Z" fill="#4F5D7F"/>
<path fill-rule="evenodd" clip-rule="evenodd" d="M16.5709 3.47689C15.5733 1.35819 13.4674 0.108738 11.2505 0H4.98802C4.43376 0 4.04577 0.434693 4.04577 0.923625C4.04577 1.4668 4.48923 1.84712 4.98802 1.84712H6.59517C6.9277 1.84712 7.20476 2.11871 7.20476 2.44466C7.20476 2.77061 6.9277 3.04233 6.59517 3.04233H2.66035C2.32782 3.04233 2.05063 3.31392 2.05063 3.63987C2.05063 3.96582 2.32782 4.23741 2.66035 4.23741H5.4868C5.81933 4.23741 6.09639 4.50913 6.09639 4.83508C6.09639 5.16104 5.81933 5.43262 5.4868 5.43262H3.71325C3.38073 5.43262 3.10367 5.70421 3.10367 6.03016C3.10367 6.35611 3.38073 6.62783 3.71325 6.62783H4.93255C4.98802 7.27974 5.15428 7.93165 5.43134 8.52919C6.8169 11.5172 10.4747 12.821 13.5227 11.4628C16.6817 10.0504 18.0118 6.46485 16.5709 3.47689Z" fill="#4F5D7F"/>
<path fill-rule="evenodd" clip-rule="evenodd" d="M9.56671 2.87749C11.3191 2.08868 13.3921 2.84189 14.1968 4.55967C15.0015 6.27745 14.2332 8.30945 12.4807 9.09827C10.7283 9.88708 8.65533 9.13386 7.85062 7.41608C7.04591 5.6983 7.81431 3.6663 9.56671 2.87749Z" fill="#ECEFF8"/>
<path fill-rule="evenodd" clip-rule="evenodd" d="M12.3588 4.02008L13.4672 5.8672C13.5226 5.9758 13.5226 6.03017 13.4672 6.13878L12.3588 7.9859C12.3033 8.09451 12.1925 8.09451 12.1371 8.09451H9.97565C9.86485 8.09451 9.80938 8.04014 9.75405 7.9859L8.64555 6.13878C8.59022 6.03017 8.59022 5.9758 8.64555 5.8672L9.75405 4.02008C9.80938 3.91147 9.92031 3.91147 9.97565 3.91147H12.1371C12.248 3.8571 12.3033 3.91147 12.3588 4.02008Z" fill="#B7C2CE"/>
</svg>
