<svg width="14" height="14" viewBox="0 0 14 14" fill="none" xmlns="http://www.w3.org/2000/svg">
<g clip-path="url(#clip0_13_211)">
<path d="M7 7.69444C7.6713 7.69444 8.24421 7.45718 8.71875 6.98264C9.19329 6.5081 9.43056 5.93518 9.43056 5.26389C9.43056 4.59259 9.19329 4.01968 8.71875 3.54514C8.24421 3.0706 7.6713 2.83333 7 2.83333C6.3287 2.83333 5.75579 3.0706 5.28125 3.54514C4.80671 4.01968 4.56944 4.59259 4.56944 5.26389C4.56944 5.93518 4.80671 6.5081 5.28125 6.98264C5.75579 7.45718 6.3287 7.69444 7 7.69444ZM2.13889 13.25C1.75694 13.25 1.42986 13.1141 1.15764 12.8424C0.88588 12.5701 0.75 12.2431 0.75 11.8611V2.13889C0.75 1.75694 0.88588 1.42986 1.15764 1.15764C1.42986 0.88588 1.75694 0.75 2.13889 0.75H11.8611C12.2431 0.75 12.5701 0.88588 12.8424 1.15764C13.1141 1.42986 13.25 1.75694 13.25 2.13889V11.8611C13.25 12.2431 13.1141 12.5701 12.8424 12.8424C12.5701 13.1141 12.2431 13.25 11.8611 13.25H2.13889ZM2.13889 11.8611H11.8611V11.0625C11.2361 10.4491 10.51 9.96574 9.68264 9.6125C8.85486 9.25972 7.96065 9.08333 7 9.08333C6.03935 9.08333 5.14537 9.25972 4.31806 9.6125C3.49028 9.96574 2.76389 10.4491 2.13889 11.0625V11.8611Z" fill="#6E6E71"/>
</g>
<defs>
<clipPath id="clip0_13_211">
<rect width="14" height="14" fill="white"/>
</clipPath>
</defs>
</svg>
