<svg width="15" height="14" viewBox="0 0 15 14" fill="none" xmlns="http://www.w3.org/2000/svg">
<path d="M14.9491 6.8799L7.62868 0.0474849C7.59567 0.0170606 7.55115 0 7.50477 0C7.45838 0 7.41386 0.0170606 7.38085 0.0474849L0.0508766 6.8799C0.0182792 6.9107 0 6.95226 0 6.99555C0 7.03885 0.0182792 7.0804 0.0508766 7.1112L7.37132 13.9525C7.40433 13.9829 7.44885 14 7.49523 14C7.54162 14 7.58614 13.9829 7.61915 13.9525L14.9491 7.1201C14.9817 7.0893 15 7.04774 15 7.00445C15 6.96115 14.9817 6.9196 14.9491 6.8888V6.8799ZM11.7893 5.34972L10.3595 7.92522C10.35 7.94886 10.3507 7.97502 10.3613 7.99823C10.372 8.02144 10.3918 8.03991 10.4167 8.04977H11.3175C11.3305 8.05085 11.3431 8.0544 11.3546 8.06021C11.3661 8.06602 11.3761 8.07397 11.3842 8.08356C11.3922 8.09315 11.3981 8.10418 11.4013 8.11597C11.4046 8.12776 11.4053 8.14005 11.4033 8.15208C11.4035 8.1642 11.4005 8.17618 11.3947 8.18701C11.3889 8.19785 11.3804 8.20723 11.3699 8.21435L7.59532 10.7587C7.57766 10.7673 7.55804 10.7718 7.53813 10.7718C7.51822 10.7718 7.4986 10.7673 7.48094 10.7587L3.68727 8.2188C3.66918 8.20069 3.65912 8.17684 3.65912 8.15208C3.65912 8.12732 3.66918 8.10347 3.68727 8.08536C3.7039 8.06916 3.72558 8.05827 3.74923 8.05422H4.59279C4.6206 8.05422 4.64727 8.04391 4.66693 8.02556C4.6866 8.00721 4.69764 7.98231 4.69764 7.95636V7.92522L3.26787 5.34972C3.25625 5.32666 3.25474 5.30028 3.26364 5.27619C3.27254 5.2521 3.29115 5.2322 3.31553 5.22073C3.32601 5.2163 3.33738 5.21402 3.34889 5.21402C3.36039 5.21402 3.37177 5.2163 3.38225 5.22073L6.77558 7.29803C6.83769 7.32939 6.88645 7.37961 6.91379 7.44037L7.43328 8.41008C7.43836 8.42049 7.44567 8.42983 7.45474 8.43753C7.46381 8.44523 7.47446 8.45113 7.48604 8.45487C7.49763 8.45861 7.50991 8.46012 7.52214 8.4593C7.53437 8.45848 7.5463 8.45536 7.55719 8.45011C7.57717 8.44174 7.59383 8.42774 7.60485 8.41008L8.10527 7.44482C8.13968 7.38854 8.18685 7.33996 8.24348 7.30248L11.6368 5.22073C11.6487 5.21545 11.6616 5.21242 11.6747 5.21181C11.6879 5.21119 11.701 5.213 11.7134 5.21713C11.7258 5.22126 11.7372 5.22764 11.747 5.23589C11.7567 5.24413 11.7646 5.2541 11.7703 5.26521C11.7809 5.27662 11.7882 5.29037 11.7915 5.30516C11.7949 5.31995 11.7941 5.33528 11.7893 5.34972Z" fill="#45DDC0"/>
</svg>
