<svg width="255" height="224" viewBox="0 0 255 224" fill="none" xmlns="http://www.w3.org/2000/svg">
<path d="M83.7851 4.16505H21.2192V113.627H83.7851V4.16505Z" fill="#FAFAFA"/>
<path d="M40.705 114.68C40.705 114.68 33.8382 65.4308 30.2642 60.0218C30.2642 60.0218 50.7574 44.628 51.3878 2.92116H20.2849V114.68H40.705Z" fill="#EBEBEB"/>
<path d="M64.2825 114.46C64.2825 114.46 71.138 65.2113 74.7289 59.8023C74.7289 59.8023 54.2301 44.4141 53.6054 2.70165H84.7082V114.46H64.2825Z" fill="#EBEBEB"/>
<path d="M85.4287 3.81658e-06H15.4163V117.246H88.3273V3.81658e-06H85.4287ZM33.7932 60.9168V88.7945H21.2193V60.9168H33.7932ZM21.2193 58.8961V30.0391H33.7932V58.8961H21.2193ZM52.9356 58.8961V30.0391H68.6615V58.8961H52.9356ZM68.6615 60.9168V88.7945H52.9356V60.9168H68.6615ZM34.3279 58.8961V30.0391H50.8981V58.8961H34.3279ZM50.8981 60.9168V88.7945H34.3504V60.9168H50.8981ZM34.3504 29.5438V4.16506H50.9206V29.5438H34.3504ZM50.9206 89.2954V113.638H34.3504V89.2954H50.9206ZM52.9356 89.2954H68.6615V113.638H52.9356V89.2954ZM52.9356 29.5438V4.16506H68.6615V29.5438H52.9356ZM69.2243 60.9168H82.53V88.7945H69.2243V60.9168ZM69.2243 58.8961V30.0391H82.53V58.8961H69.2243ZM82.53 29.5438H69.2243V4.16506H82.53V29.5438ZM33.7932 4.16506V29.5438H21.2193V4.16506H33.7932ZM21.2193 89.2954H33.7932V113.638H21.2193V89.2954ZM69.2243 113.638V89.2954H82.53V113.638H69.2243Z" fill="#E0E0E0"/>
<path d="M242.35 4.16505H179.784V113.627H242.35V4.16505Z" fill="#FAFAFA"/>
<path d="M199.275 114.68C199.275 114.68 192.42 65.4308 188.829 60.0218C188.829 60.0218 209.328 44.628 209.953 2.92116H178.85V114.68H199.275Z" fill="#EBEBEB"/>
<path d="M222.853 114.46C222.853 114.46 229.703 65.2113 233.294 59.8023C233.294 59.8023 212.801 44.4141 212.17 2.70165H243.273V114.46H222.853Z" fill="#EBEBEB"/>
<path d="M243.999 0H173.987V117.246H246.898V0H243.999ZM192.364 60.9167V88.7945H179.784V60.9167H192.364ZM179.784 58.8961V30.0391H192.364V58.8961H179.784ZM211.5 58.8961V30.0391H227.26V58.8961H211.5ZM227.26 60.9167V88.7945H211.5V60.9167H227.26ZM192.927 58.8961V30.0391H209.491V58.8961H192.927ZM209.491 60.9167V88.7945H192.921V60.9167H209.491ZM192.921 29.5438V4.16505H209.485V29.5438H192.921ZM209.485 89.2954V113.638H192.921V89.2954H209.485ZM211.5 89.2954H227.26V113.638H211.5V89.2954ZM211.5 29.5438V4.16505H227.26V29.5438H211.5ZM227.789 60.9167H241.095V88.7945H227.789V60.9167ZM227.789 58.8961V30.0391H241.095V58.8961H227.789ZM241.095 29.5438H227.789V4.16505H241.095V29.5438ZM192.364 4.16505V29.5438H179.784V4.16505H192.364ZM179.784 89.2954H192.364V113.638H179.784V89.2954ZM227.789 113.638V89.2954H241.095V113.638H227.789Z" fill="#E0E0E0"/>
<path d="M120.455 30.585H105.241V49.7893H120.455V30.585Z" fill="#EBEBEB"/>
<path d="M113.999 49.3559H111.888V49.8681H113.999V49.3559Z" fill="#E0E0E0"/>
<path d="M113.335 37.1928L110.532 37.6037L109.49 40.2378L111.246 42.4554L114.044 42.0445L115.091 39.4161L113.335 37.1928Z" fill="#E0E0E0"/>
<path d="M114.646 38.8926L111.843 39.3035L110.796 41.9376L112.552 44.1552L115.355 43.75L116.402 41.1158L114.646 38.8926Z" fill="#FAFAFA"/>
<path d="M114.297 30.3205H112.186V30.7595H114.297V30.3205Z" fill="#E0E0E0"/>
<path d="M157.372 4.94741H131.97V37.0127H157.372V4.94741Z" fill="#EBEBEB"/>
<path d="M146.593 36.2979H143.07V37.1534H146.593V36.2979Z" fill="#E0E0E0"/>
<path d="M145.484 15.9904L140.801 16.6715L139.057 21.0673L141.989 24.7764L146.666 24.0954L148.411 19.6996L145.484 15.9904Z" fill="#E0E0E0"/>
<path d="M147.668 18.8272L142.991 19.5139L141.24 23.9097L144.178 27.6188L148.856 26.9322L150.6 22.542L147.668 18.8272Z" fill="#FAFAFA"/>
<path d="M147.088 4.51402H143.565V5.24572H147.088V4.51402Z" fill="#E0E0E0"/>
<path d="M114.809 138.668C111.365 139.231 109.828 143.452 110.126 146.931C110.425 150.409 111.86 153.803 111.477 157.27C110.987 161.677 107.661 165.398 107.273 169.81C106.817 175.017 110.498 179.632 111.595 184.743C112.13 187.225 112.057 189.853 112.98 192.223C113.767 194.24 115.23 195.922 117.119 196.982C119.008 198.041 121.206 198.412 123.338 198.031C125.47 197.651 127.404 196.542 128.81 194.895C130.216 193.247 131.007 191.163 131.047 188.998C131.12 185.002 128.655 181.236 128.953 177.251C129.173 174.302 130.901 171.51 130.535 168.578C130.09 165.094 126.86 162.617 125.723 159.291C124.586 155.964 125.678 152.3 125.284 148.805C124.575 142.535 121.102 138.162 114.809 138.674" fill="#F5F5F5"/>
<path d="M97.2202 169.022C96.6574 174.831 99.2014 181.664 102.19 186.679C105.217 191.727 109.773 195.68 115.198 197.964C115.8 198.217 116.56 198.431 117.072 198.02C117.252 197.82 117.388 197.583 117.47 197.326C117.551 197.068 117.577 196.797 117.545 196.529C117.585 190.363 115.626 184.351 111.962 179.392C108.298 174.433 103.126 170.795 97.2202 169.022Z" fill="#EBEBEB"/>
<path d="M122.526 210.11C122.457 210.01 122.4 209.903 122.357 209.789C122.25 209.536 122.115 209.226 121.946 208.838C121.597 208.005 121.074 206.812 120.41 205.348C118.677 201.531 116.751 197.804 114.64 194.182C112.522 190.564 110.22 187.057 107.746 183.673C106.794 182.379 106.006 181.338 105.455 180.623L104.83 179.795C104.751 179.705 104.685 179.605 104.633 179.497C104.633 179.497 104.729 179.576 104.881 179.756L105.556 180.544C106.119 181.231 106.952 182.232 107.931 183.538C110.468 186.888 112.805 190.386 114.927 194.013C117.045 197.65 118.947 201.409 120.623 205.27C121.259 206.75 121.749 207.96 122.064 208.804C122.211 209.198 122.329 209.525 122.419 209.778C122.467 209.884 122.503 209.996 122.526 210.11Z" fill="#E0E0E0"/>
<path d="M118.783 154.737C118.82 154.923 118.842 155.111 118.85 155.3C118.879 155.694 118.918 156.229 118.963 156.899C119.053 158.323 119.182 160.321 119.346 162.786C119.655 167.756 120.1 174.606 120.629 182.199C121.158 189.791 121.687 196.641 122.076 201.606C122.261 204.065 122.419 206.069 122.526 207.487C122.571 208.157 122.605 208.692 122.633 209.086C122.648 209.273 122.648 209.461 122.633 209.649C122.59 209.463 122.562 209.275 122.548 209.086C122.509 208.697 122.453 208.163 122.379 207.493C122.244 206.075 122.059 204.076 121.817 201.622C121.372 196.658 120.809 189.803 120.274 182.216C119.74 174.628 119.334 167.767 119.081 162.792C118.969 160.327 118.873 158.323 118.805 156.899C118.805 156.229 118.766 155.694 118.755 155.3C118.749 155.112 118.759 154.924 118.783 154.737Z" fill="#E0E0E0"/>
<path d="M113.441 201.831H127.991V212.525C127.991 214.377 127.255 216.154 125.945 217.464C124.635 218.774 122.859 219.51 121.006 219.51C119.218 219.509 117.498 218.823 116.201 217.593C114.904 216.363 114.128 214.682 114.032 212.896L113.441 201.831Z" fill="#E0E0E0"/>
<path d="M254.406 219.69C254.406 219.769 197.452 219.836 127.203 219.836C56.9543 219.836 0 219.769 0 219.69C0 219.611 56.9431 219.543 127.203 219.543C197.463 219.543 254.406 219.611 254.406 219.69Z" fill="#263238"/>
<path d="M174.842 100.755L172.591 100.288C170.582 99.6855 169.445 99.4266 168.977 98.7681C168.358 97.8844 169.54 97.3779 169.54 97.3779C169.54 97.3779 168.156 96.573 168.477 95.6893C168.555 95.5141 168.688 95.3684 168.855 95.2733C169.021 95.1782 169.214 95.1386 169.405 95.1603C169.405 95.1603 168.201 94.3892 168.049 93.7925C167.841 92.982 168.842 92.7682 168.842 92.7682C167.278 91.316 167.655 90.2579 168.088 90.2354C168.522 90.2128 169.777 91.119 169.777 91.119C170.902 91.6819 173.897 93.2972 173.058 91.2935C172.219 89.2898 172.326 87.438 172.703 86.954C172.803 86.8508 172.933 86.7817 173.074 86.7565C173.215 86.7313 173.361 86.7513 173.49 86.8137C173.619 86.8761 173.725 86.9777 173.793 87.1039C173.861 87.2302 173.887 87.3747 173.869 87.5168C173.919 88.2485 174.068 88.97 174.313 89.6613C174.491 90.2228 174.763 90.75 175.118 91.2203C175.535 91.7832 175.906 92.2166 176.244 92.5881L177.87 94.9182L174.842 100.755Z" fill="#FFBE9D"/>
<path d="M166.174 217.438L168.111 213.352L175.788 216.932L173.019 222.937L172.529 222.746C170.356 221.874 161.542 218.17 160.326 217.078C158.97 215.862 166.174 217.438 166.174 217.438Z" fill="#407BFF"/>
<g opacity="0.3">
<path d="M170.261 221.575C170.678 220.982 171.299 220.563 172.006 220.399C172.701 220.226 173.435 220.325 174.06 220.675L173.058 222.819L170.261 221.575Z" fill="white"/>
</g>
<g opacity="0.3">
<path d="M162.6 216.78C162.6 216.78 160.011 216.375 160.118 216.887C160.225 217.399 168.994 221.474 173.019 222.937L173.086 222.757L162.82 218.086C162.82 218.086 163.039 217.028 162.6 216.78Z" fill="white"/>
</g>
<path d="M173.204 222.808L173.069 222.763L172.681 222.611L171.257 222.02C170.058 221.513 168.409 220.793 166.613 219.954C164.818 219.116 163.197 218.328 162.038 217.737L160.67 217.028L160.304 216.831L160.175 216.757C160.222 216.769 160.268 216.788 160.31 216.814L160.687 216.994L162.071 217.675C163.236 218.238 164.857 219.026 166.653 219.864C168.448 220.703 170.092 221.429 171.285 221.952L172.692 222.572L173.075 222.74L173.204 222.808Z" fill="#263238"/>
<path d="M162.769 218.204C162.812 217.945 162.827 217.683 162.814 217.422C162.768 217.161 162.692 216.906 162.589 216.662C162.769 216.872 162.882 217.131 162.915 217.405C162.947 217.68 162.896 217.958 162.769 218.204Z" fill="#263238"/>
<path d="M165.544 218.114C165.479 217.986 165.442 217.846 165.437 217.703C165.404 217.566 165.404 217.423 165.437 217.286C165.437 217.286 165.51 217.461 165.538 217.692C165.575 217.83 165.577 217.975 165.544 218.114Z" fill="#263238"/>
<path d="M166.343 218.074C166.315 218.074 166.231 217.945 166.152 217.765C166.073 217.585 166.034 217.433 166.062 217.422C166.09 217.41 166.174 217.545 166.248 217.725C166.309 217.832 166.342 217.952 166.343 218.074Z" fill="#263238"/>
<path d="M167.069 217.528C167.069 217.557 166.872 217.495 166.647 217.393C166.505 217.346 166.375 217.269 166.265 217.168C166.265 217.14 166.467 217.202 166.687 217.303C166.829 217.351 166.959 217.427 167.069 217.528Z" fill="#263238"/>
<path d="M167.446 217.084C167.272 217.11 167.093 217.083 166.934 217.005C166.767 216.959 166.618 216.862 166.507 216.729C166.668 216.774 166.824 216.835 166.974 216.909C167.136 216.954 167.294 217.012 167.446 217.084Z" fill="#263238"/>
<path d="M165.617 217.32C165.442 217.271 165.277 217.193 165.128 217.089C164.958 216.985 164.8 216.865 164.655 216.729C164.566 216.65 164.487 216.561 164.418 216.465C164.376 216.404 164.358 216.33 164.368 216.256C164.375 216.216 164.395 216.178 164.424 216.149C164.453 216.12 164.49 216.101 164.531 216.093C164.68 216.092 164.827 216.123 164.962 216.185C165.097 216.247 165.217 216.338 165.313 216.451C165.409 216.564 165.479 216.697 165.518 216.841C165.557 216.984 165.564 217.134 165.538 217.281C165.532 217.331 165.514 217.379 165.488 217.422C165.506 217.245 165.497 217.066 165.46 216.892C165.407 216.713 165.306 216.551 165.167 216.425C165.086 216.348 164.991 216.287 164.887 216.246C164.782 216.205 164.671 216.186 164.559 216.189C164.452 216.189 164.441 216.318 164.503 216.414C164.569 216.504 164.644 216.587 164.728 216.662C164.867 216.794 165.016 216.917 165.173 217.028C165.437 217.219 165.623 217.303 165.617 217.32Z" fill="#263238"/>
<path d="M165.477 217.286C165.467 217.154 165.505 217.022 165.584 216.915C165.659 216.794 165.761 216.692 165.882 216.617C165.959 216.564 166.047 216.532 166.139 216.522C166.232 216.512 166.325 216.525 166.411 216.56C166.455 216.595 166.484 216.645 166.493 216.701C166.501 216.756 166.488 216.813 166.456 216.859C166.409 216.932 166.345 216.994 166.27 217.039C166.156 217.119 166.031 217.183 165.899 217.23C165.78 217.283 165.651 217.306 165.522 217.298C165.522 217.298 165.662 217.253 165.871 217.163C165.993 217.11 166.108 217.042 166.214 216.96C166.332 216.887 166.467 216.724 166.355 216.645C166.242 216.566 166.051 216.645 165.932 216.701C165.818 216.764 165.719 216.851 165.64 216.954C165.579 217.062 165.524 217.173 165.477 217.286Z" fill="#263238"/>
<path d="M174.026 220.635C174.026 220.635 173.818 220.512 173.463 220.393C172.987 220.236 172.477 220.213 171.989 220.326C171.503 220.451 171.06 220.704 170.705 221.058C170.435 221.333 170.323 221.547 170.306 221.542C170.319 221.485 170.344 221.431 170.379 221.384C170.456 221.248 170.549 221.122 170.655 221.007C171.005 220.622 171.461 220.35 171.966 220.224C172.471 220.105 173.001 220.141 173.486 220.326C173.631 220.379 173.771 220.446 173.902 220.528C173.987 220.59 174.032 220.63 174.026 220.635Z" fill="#263238"/>
<path d="M174.718 217.073C174.531 217.621 174.309 218.156 174.054 218.677C173.83 219.214 173.574 219.739 173.289 220.247C173.482 219.698 173.706 219.161 173.959 218.637C174.182 218.102 174.436 217.579 174.718 217.073Z" fill="#263238"/>
<path d="M169.642 220.405C169.236 220.315 168.843 220.177 168.471 219.994C168.087 219.834 167.724 219.628 167.39 219.38C167.39 219.352 167.891 219.617 168.516 219.898C169.141 220.179 169.653 220.354 169.642 220.405Z" fill="#263238"/>
<path d="M171.172 221.08C171.172 221.08 171.082 221.164 170.975 221.254C170.869 221.345 170.795 221.435 170.773 221.423C170.75 221.412 170.773 221.283 170.908 221.176C171.043 221.069 171.172 221.052 171.172 221.08Z" fill="#263238"/>
<path d="M172.045 220.635C172.045 220.635 171.966 220.72 171.854 220.765C171.741 220.81 171.634 220.821 171.623 220.793C171.612 220.765 171.702 220.709 171.814 220.669C171.927 220.63 172.034 220.607 172.045 220.635Z" fill="#263238"/>
<path d="M173.007 220.692C173.007 220.692 172.889 220.664 172.754 220.652C172.619 220.641 172.518 220.652 172.506 220.652C172.495 220.652 172.608 220.551 172.765 220.568C172.923 220.585 173.024 220.669 173.007 220.692Z" fill="#263238"/>
<path d="M173.655 220.81C173.655 220.81 173.593 220.855 173.514 220.849C173.435 220.844 173.379 220.815 173.385 220.787C173.39 220.759 173.446 220.742 173.525 220.748C173.604 220.754 173.655 220.782 173.655 220.81Z" fill="#263238"/>
<path d="M230.93 219.673L229.016 215.575L236.665 211.962L239.53 217.922L239.069 218.181C237.014 219.307 228.543 223.725 226.928 223.967C225.127 224.221 230.93 219.673 230.93 219.673Z" fill="#407BFF"/>
<g opacity="0.3">
<path d="M236.727 219.161C236.531 218.462 236.603 217.715 236.93 217.067C237.243 216.426 237.785 215.926 238.449 215.665L239.468 217.799L236.727 219.161Z" fill="white"/>
</g>
<g opacity="0.3">
<path d="M228.149 222.009C228.149 222.009 226.185 223.748 226.647 223.99C227.108 224.232 235.838 220.05 239.53 217.906L239.434 217.742L229.303 222.673C229.303 222.673 228.583 221.817 228.149 222.009Z" fill="white"/>
</g>
<path d="M239.553 217.68L239.429 217.754L239.063 217.956L237.701 218.677C236.547 219.279 234.943 220.089 233.147 220.928C231.352 221.767 229.72 222.515 228.526 223.033L227.108 223.641L226.72 223.799L226.585 223.844L226.714 223.776L227.091 223.602L228.498 222.971C229.68 222.436 231.313 221.688 233.108 220.832C234.904 219.977 236.485 219.183 237.667 218.581L239.04 217.889L239.418 217.703C239.462 217.69 239.507 217.683 239.553 217.68Z" fill="#263238"/>
<path d="M229.354 222.791C229.188 222.583 228.999 222.395 228.791 222.228C228.561 222.099 228.317 221.995 228.065 221.919C228.342 221.914 228.615 221.993 228.847 222.144C229.08 222.296 229.262 222.513 229.371 222.769L229.354 222.791Z" fill="#263238"/>
<path d="M231.065 220.573C231.065 220.573 230.879 220.517 230.682 220.393C230.485 220.27 230.339 220.151 230.356 220.129C230.373 220.106 230.541 220.185 230.738 220.309C230.935 220.433 231.076 220.551 231.065 220.573Z" fill="#263238"/>
<path d="M231.526 219.949C231.526 219.977 231.358 219.949 231.172 219.898C230.986 219.847 230.84 219.774 230.845 219.746C230.966 219.736 231.088 219.755 231.2 219.802C231.397 219.842 231.532 219.921 231.526 219.949Z" fill="#263238"/>
<path d="M231.577 219.042C231.577 219.071 231.42 219.178 231.2 219.285C230.98 219.391 230.795 219.459 230.778 219.431C230.885 219.324 231.014 219.242 231.155 219.189C231.397 219.082 231.56 219.014 231.577 219.042Z" fill="#263238"/>
<path d="M231.465 218.468C231.465 218.468 231.335 218.671 231.082 218.812C230.937 218.91 230.767 218.964 230.592 218.969C230.885 218.807 231.176 218.64 231.465 218.468Z" fill="#263238"/>
<path d="M230.485 220.027C230.338 220.134 230.172 220.212 229.996 220.258C229.813 220.322 229.624 220.367 229.433 220.393C229.313 220.408 229.192 220.408 229.072 220.393C229.036 220.391 229 220.382 228.967 220.365C228.934 220.349 228.905 220.326 228.881 220.298C228.859 220.263 228.847 220.223 228.847 220.182C228.847 220.141 228.859 220.101 228.881 220.067C229.026 219.886 229.229 219.76 229.456 219.712C229.682 219.664 229.919 219.696 230.125 219.802C230.246 219.865 230.353 219.951 230.44 220.056C230.473 220.091 230.498 220.133 230.513 220.179C230.391 220.053 230.249 219.948 230.091 219.87C229.915 219.788 229.719 219.763 229.528 219.797C229.418 219.809 229.312 219.844 229.215 219.898C229.119 219.952 229.034 220.025 228.965 220.112C228.915 220.208 228.965 220.286 229.101 220.298C229.211 220.309 229.322 220.309 229.433 220.298C229.623 220.278 229.811 220.242 229.996 220.191C230.271 220.101 230.48 220.016 230.485 220.027Z" fill="#263238"/>
<path d="M230.373 220.112C230.373 220.112 230.232 220.033 230.153 219.797C230.107 219.661 230.093 219.516 230.114 219.375C230.122 219.282 230.153 219.193 230.204 219.115C230.255 219.038 230.325 218.974 230.406 218.93C230.461 218.918 230.519 218.928 230.567 218.957C230.616 218.986 230.651 219.033 230.665 219.088C230.684 219.173 230.684 219.261 230.665 219.346C230.652 219.485 230.62 219.622 230.57 219.752C230.491 219.977 230.395 220.095 230.384 220.084C230.373 220.073 230.44 219.949 230.502 219.729C230.539 219.603 230.561 219.472 230.57 219.341C230.57 219.2 230.541 218.992 230.412 219.031C230.283 219.071 230.215 219.262 230.187 219.391C230.158 219.519 230.158 219.652 230.187 219.78C230.235 219.898 230.297 220.009 230.373 220.112Z" fill="#263238"/>
<path d="M238.399 215.66C238.399 215.66 238.174 215.744 237.836 215.952C237.415 216.212 237.076 216.585 236.857 217.028C236.641 217.479 236.553 217.982 236.603 218.48C236.643 218.868 236.733 219.093 236.716 219.099C236.684 219.05 236.659 218.997 236.643 218.941C236.588 218.796 236.551 218.645 236.53 218.491C236.457 217.976 236.537 217.452 236.761 216.983C236.987 216.51 237.353 216.117 237.808 215.857C237.943 215.777 238.086 215.713 238.236 215.665C238.289 215.655 238.344 215.653 238.399 215.66Z" fill="#263238"/>
<path d="M236.097 212.857C236.395 213.354 236.666 213.867 236.907 214.393C237.178 214.908 237.419 215.438 237.628 215.981C237.329 215.482 237.058 214.967 236.817 214.438C236.543 213.927 236.302 213.399 236.097 212.857Z" fill="#263238"/>
<path d="M235.41 218.874C235.085 219.133 234.727 219.348 234.346 219.515C233.981 219.714 233.591 219.863 233.187 219.96C233.187 219.96 233.688 219.724 234.313 219.425C234.937 219.127 235.393 218.851 235.41 218.874Z" fill="#263238"/>
<path d="M236.907 218.153C236.907 218.153 236.907 218.283 236.907 218.418C236.907 218.553 236.935 218.671 236.907 218.682C236.879 218.694 236.806 218.581 236.806 218.423C236.806 218.266 236.879 218.153 236.907 218.153Z" fill="#263238"/>
<path d="M237.138 217.191C237.166 217.191 237.138 217.303 237.11 217.422C237.082 217.54 237.014 217.624 236.992 217.619C236.969 217.613 236.992 217.506 236.992 217.388C236.992 217.27 237.11 217.18 237.138 217.191Z" fill="#263238"/>
<path d="M237.791 216.465C237.791 216.493 237.695 216.543 237.605 216.634C237.515 216.724 237.459 216.825 237.431 216.819C237.403 216.814 237.431 216.673 237.532 216.56C237.633 216.448 237.791 216.465 237.791 216.465Z" fill="#263238"/>
<path d="M238.298 216.059C238.298 216.059 238.298 216.138 238.241 216.194C238.185 216.251 238.129 216.273 238.106 216.256C238.084 216.24 238.106 216.178 238.162 216.121C238.219 216.065 238.275 216.037 238.298 216.059Z" fill="#263238"/>
<path d="M239.873 213.977L227.491 219.735L205.225 180.094C202.326 169.636 199.529 132.815 199.529 132.815L215.637 134.042C215.637 134.042 218.119 160.495 222.009 174.094L239.873 213.977Z" fill="#263238"/>
<path d="M225.51 215.857C225.51 215.857 225.667 215.739 225.977 215.575C226.286 215.412 226.742 215.181 227.305 214.906C228.431 214.343 230.001 213.605 231.74 212.795C233.48 211.984 235.055 211.27 236.204 210.769C236.767 210.515 237.251 210.313 237.571 210.206C237.735 210.123 237.909 210.062 238.089 210.026C237.948 210.141 237.79 210.236 237.622 210.307C237.307 210.47 236.857 210.701 236.294 210.977C235.168 211.54 233.598 212.277 231.864 213.088C230.131 213.898 228.549 214.607 227.395 215.114C226.832 215.367 226.354 215.57 226.027 215.677C225.864 215.761 225.69 215.821 225.51 215.857Z" fill="#455A64"/>
<path d="M222.954 117.995C223.258 117.995 226.551 127.749 223.382 134.216C223.061 134.863 220.568 138.426 220.568 138.426C211.799 148.771 202.917 168.82 200.44 174.105C195.375 184.917 176.598 220.483 176.598 220.483L164.553 213.589L182.165 168.308L198.15 127.445L222.954 117.995Z" fill="#263238"/>
<path d="M201.24 159.831C201.24 159.831 200.39 163.946 199.951 163.709C198.696 163.028 190.067 159.814 190.067 159.814L192.397 157.231L201.24 159.831Z" fill="#455A64"/>
<path d="M198.696 163.028C198.696 163.028 197.08 169.664 195.003 169.304C192.926 168.944 188.587 166.76 188.587 166.76L191.204 160.214L198.696 163.028Z" fill="#455A64"/>
<path d="M199.951 163.709L190.321 159.859L190.782 161.272L198.409 164.064L199.951 163.709Z" fill="#263238"/>
<path d="M216.667 143.632C216.627 143.722 216.574 143.805 216.51 143.88L216.014 144.55C215.587 145.113 214.979 145.991 214.275 147.077C212.862 149.25 211.084 152.357 209.266 155.869C207.448 159.381 205.889 162.623 204.791 164.953L203.469 167.728L203.103 168.476C203.064 168.566 203.015 168.651 202.956 168.73C202.974 168.634 203.005 168.542 203.046 168.454L203.367 167.683C203.649 167.013 204.071 166.051 204.6 164.869C205.669 162.505 207.178 159.24 209.007 155.734C210.53 152.718 212.222 149.791 214.073 146.965C214.804 145.889 215.435 145.045 215.896 144.482C216.11 144.223 216.29 144.015 216.459 143.846C216.519 143.767 216.589 143.695 216.667 143.632Z" fill="#455A64"/>
<path d="M165.471 211.478C165.505 211.41 168.347 212.761 171.82 214.5C175.293 216.24 178.073 217.714 178.011 217.787C177.949 217.861 175.135 216.504 171.662 214.765C168.189 213.026 165.437 211.551 165.471 211.478Z" fill="#455A64"/>
<path d="M179.784 94.6818C179.131 96.1561 178.39 97.5901 177.566 98.9763C176.828 100.411 176.001 101.799 175.09 103.13C175.744 101.655 176.485 100.219 177.308 98.83C178.05 97.3993 178.877 96.0141 179.784 94.6818Z" fill="#263238"/>
<path d="M202.54 77.5545C203.198 77.5545 203.981 82.3386 204.645 90.9333C205.399 100.682 205.332 110.52 202.636 116.706C202.387 117.366 202.01 117.971 201.527 118.486C201.044 119.001 200.465 119.415 199.821 119.706C192.842 122.588 173.587 101.943 173.587 101.943L178.326 93.6293L191.885 104.577C191.885 104.577 193.236 93.4999 192.977 88.3949C192.769 84.5225 196.636 77.5995 202.54 77.5545Z" fill="#455A64"/>
<path d="M208.54 77.6501C208.54 77.6501 220.315 79.3724 223.36 83.999C226.405 88.6256 224.862 129.432 224.862 129.432L194.593 131.222C194.593 131.222 197.035 79.2824 198.532 78.6914C202.292 77.2167 208.09 77.5038 208.54 77.6501Z" fill="#455A64"/>
<path d="M160.079 66.9054C159.991 65.6672 160.221 64.427 160.749 63.3032C160.982 62.8224 161.105 62.2955 161.109 61.761V60.3933H143.464C142.746 60.3933 142.057 60.6785 141.549 61.1862C141.042 61.694 140.756 62.3826 140.756 63.1006V80.6726H139.563C139.012 80.6674 138.469 80.5365 137.976 80.2899C136.87 79.7573 135.648 79.5116 134.422 79.5753C133.196 79.6389 132.006 80.01 130.961 80.6543C129.916 81.2985 129.05 82.1953 128.443 83.262C127.836 84.3287 127.506 85.5311 127.486 86.7584C127.465 87.9858 127.753 89.1986 128.324 90.2853C128.895 91.372 129.73 92.2976 130.752 92.9769C131.775 93.6562 132.952 94.0673 134.175 94.1725C135.398 94.2776 136.627 94.0734 137.751 93.5787C138.216 93.367 138.72 93.2558 139.231 93.2522H140.779V110.385C140.778 110.741 140.848 111.094 140.983 111.423C141.119 111.752 141.318 112.051 141.57 112.303C141.821 112.555 142.12 112.755 142.449 112.892C142.778 113.028 143.13 113.098 143.486 113.098H191.154C191.739 113.098 192.3 112.866 192.714 112.452C193.127 112.038 193.36 111.477 193.36 110.892V62.5997C193.361 62.3097 193.304 62.0225 193.193 61.7544C193.083 61.4864 192.92 61.2429 192.715 61.0379C192.51 60.8328 192.267 60.6704 191.999 60.5597C191.731 60.4491 191.443 60.3926 191.154 60.3933H173.93V62.3464C173.929 62.7982 174.017 63.2459 174.189 63.6634C174.592 64.6453 174.777 65.7031 174.73 66.7635C174.684 67.8239 174.407 68.8614 173.919 69.8041C173.432 70.7469 172.745 71.5722 171.906 72.2229C171.068 72.8736 170.098 73.334 169.063 73.5723C168.029 73.8106 166.955 73.8211 165.917 73.6029C164.878 73.3847 163.899 72.9432 163.048 72.3089C162.197 71.6746 161.494 70.8628 160.988 69.9297C160.482 68.9967 160.185 67.9647 160.118 66.9054H160.079Z" fill="#407BFF"/>
<path d="M196.647 86.3292C196.665 86.4409 196.674 86.5538 196.675 86.6669C196.675 86.9258 196.675 87.2298 196.675 87.6406C196.675 88.5243 196.675 89.7401 196.72 91.2203C196.72 94.2428 196.771 98.4191 196.675 103.04C196.579 107.661 196.326 111.832 196.017 114.86C195.859 116.368 195.707 117.578 195.583 118.417C195.521 118.811 195.471 119.126 195.426 119.379C195.417 119.493 195.393 119.605 195.352 119.712C195.345 119.599 195.345 119.486 195.352 119.374C195.381 119.121 195.409 118.811 195.454 118.406C195.538 117.561 195.662 116.346 195.791 114.843C196.05 111.832 196.281 107.667 196.354 103.057C196.427 98.4473 196.444 94.2766 196.484 91.2372C196.484 89.7569 196.523 88.5412 196.534 87.6575C196.534 87.2635 196.534 86.9371 196.562 86.6838C196.575 86.5623 196.603 86.4431 196.647 86.3292Z" fill="#263238"/>
<path d="M214.652 58.4121C214.168 61.4852 214.196 64.1812 215.699 66.185C216.025 66.5704 216.326 66.9765 216.6 67.4007C216.735 67.6142 216.826 67.8532 216.865 68.1029C216.905 68.3527 216.893 68.6079 216.831 68.8529C216.761 69.0701 216.634 69.2649 216.464 69.4171C216.294 69.5693 216.087 69.6734 215.863 69.7187C215.64 69.764 215.408 69.7488 215.192 69.6748C214.976 69.6008 214.784 69.4705 214.635 69.2975C214.684 69.6451 214.628 69.9994 214.475 70.3152C214.322 70.631 214.078 70.8939 213.774 71.0705C213.619 71.1418 213.45 71.177 213.279 71.1732C213.108 71.1695 212.941 71.127 212.789 71.0489C212.637 70.9708 212.505 70.8592 212.403 70.7225C212.3 70.5858 212.23 70.4277 212.198 70.26C212.198 70.26 212.598 71.8191 210.808 71.577L212.069 60.883L214.652 58.4121Z" fill="#263238"/>
<path d="M206.632 82.0516C205.934 82.0515 205.243 81.9046 204.605 81.6205C203.968 81.3363 203.397 80.9213 202.93 80.4022C202.462 79.8832 202.11 79.2717 201.894 78.6076C201.679 77.9434 201.605 77.2413 201.679 76.547C201.842 74.9485 201.988 73.6483 201.988 73.6483C201.988 73.6483 198.048 73.0348 197.998 69.0949C197.947 65.155 198.634 56.1101 198.634 56.1101C200.873 55.1487 203.329 54.8025 205.747 55.1073C208.166 55.412 210.459 56.3566 212.39 57.8436L212.953 58.2883L211.585 77.425C211.495 78.6789 210.935 79.8525 210.017 80.7106C209.098 81.5686 207.889 82.0477 206.632 82.0516Z" fill="#FFBE9D"/>
<path d="M199.647 63.2244C199.728 63.149 199.785 63.0514 199.811 62.9437C199.837 62.8361 199.83 62.7232 199.792 62.6192C199.754 62.5152 199.687 62.4247 199.597 62.359C199.508 62.2933 199.402 62.2554 199.291 62.25C199.181 62.2446 199.071 62.2719 198.976 62.3286C198.881 62.3852 198.804 62.4687 198.756 62.5685C198.708 62.6683 198.691 62.78 198.706 62.8897C198.721 62.9993 198.769 63.1021 198.842 63.185C198.892 63.2413 198.952 63.287 199.02 63.3195C199.088 63.352 199.161 63.3707 199.236 63.3744C199.311 63.378 199.386 63.3667 199.457 63.3409C199.527 63.3152 199.592 63.2755 199.647 63.2244Z" fill="#263238"/>
<path d="M198.555 61.9805C198.617 62.0481 199.005 61.7498 199.546 61.7498C200.086 61.7498 200.486 62.0256 200.542 61.958C200.598 61.8905 200.514 61.806 200.339 61.671C200.109 61.5042 199.83 61.4172 199.546 61.4233C199.26 61.4233 198.982 61.5139 198.752 61.6822C198.583 61.8286 198.527 61.9524 198.555 61.9805Z" fill="#263238"/>
<path d="M204.808 62.8079C204.744 62.8461 204.687 62.8968 204.643 62.957C204.598 63.0173 204.566 63.0859 204.548 63.1588C204.53 63.2317 204.527 63.3074 204.539 63.3815C204.551 63.4556 204.577 63.5266 204.617 63.5903C204.655 63.6556 204.706 63.7127 204.767 63.7579C204.827 63.8031 204.897 63.8357 204.97 63.8535C205.044 63.8714 205.12 63.8742 205.195 63.8619C205.269 63.8495 205.341 63.8222 205.405 63.7816C205.47 63.743 205.526 63.6917 205.571 63.6308C205.616 63.5699 205.648 63.5006 205.665 63.4271C205.682 63.3535 205.685 63.2773 205.672 63.2028C205.659 63.1283 205.631 63.0572 205.591 62.9936C205.552 62.9295 205.501 62.8737 205.44 62.8295C205.38 62.7854 205.311 62.7537 205.238 62.7364C205.166 62.7191 205.09 62.7165 205.016 62.7288C204.942 62.7411 204.872 62.768 204.808 62.8079Z" fill="#263238"/>
<path d="M204.448 62.4589C204.51 62.5265 204.898 62.2282 205.439 62.2282C205.979 62.2282 206.379 62.504 206.435 62.4364C206.491 62.3689 206.401 62.2845 206.232 62.1494C206 61.9818 205.719 61.8948 205.433 61.9017C205.148 61.9021 204.87 61.9971 204.645 62.1719C204.476 62.307 204.42 62.4308 204.448 62.4589Z" fill="#263238"/>
<path d="M202.275 66.9336C201.994 66.8263 201.698 66.7636 201.397 66.7478C201.257 66.7478 201.144 66.7028 201.133 66.624C201.127 66.482 201.162 66.3412 201.234 66.2187L201.662 65.0931C202.07 64.1614 202.382 63.1901 202.591 62.1944C202.092 63.0893 201.685 64.0322 201.375 65.0086C201.234 65.3914 201.099 65.7572 200.97 66.1343C200.875 66.3161 200.847 66.5252 200.891 66.7253C200.911 66.7792 200.943 66.8277 200.985 66.8668C201.027 66.9059 201.078 66.9345 201.133 66.9504C201.212 66.9709 201.293 66.9822 201.375 66.9842C201.676 67.0191 201.98 67.002 202.275 66.9336Z" fill="#263238"/>
<path d="M204.037 67.5358C204.6 67.1981 202.478 68.3632 201.375 68.3069C201.558 68.5917 201.833 68.8057 202.154 68.9141C202.475 69.0224 202.824 69.0187 203.142 68.9035C204.324 68.4701 204.037 67.5358 204.037 67.5358Z" fill="white"/>
<path d="M201.955 73.592C203.773 73.6258 205.56 73.1163 207.088 72.1286C207.088 72.1286 205.872 74.9429 201.943 74.6108L201.955 73.592Z" fill="#EB996E"/>
<path d="M212.953 62.1043C213.037 62.0762 215.891 61.8792 215.418 65.2C214.945 68.5208 211.748 66.9448 211.754 66.8491C211.759 66.7534 212.953 62.1043 212.953 62.1043Z" fill="#FFBE9D"/>
<path d="M212.936 65.8304C212.936 65.8304 212.986 65.881 213.082 65.9373C213.145 65.9772 213.215 66.0042 213.289 66.0168C213.362 66.0294 213.437 66.0272 213.51 66.0105C213.744 65.9045 213.945 65.7381 214.094 65.5284C214.242 65.3187 214.332 65.0732 214.354 64.8173C214.407 64.5347 214.393 64.2438 214.315 63.9674C214.298 63.8593 214.255 63.7569 214.191 63.6687C214.126 63.5805 214.041 63.5092 213.943 63.4608C213.879 63.4325 213.806 63.4283 213.739 63.449C213.672 63.4697 213.615 63.5138 213.577 63.5734C213.521 63.6578 213.532 63.7253 213.51 63.731C213.487 63.7366 213.448 63.6634 213.51 63.534C213.538 63.4521 213.597 63.3839 213.673 63.3426C213.723 63.3134 213.778 63.2949 213.835 63.2881C213.892 63.2813 213.95 63.2865 214.005 63.3032C214.137 63.3552 214.253 63.4407 214.342 63.5512C214.431 63.6618 214.489 63.7936 214.512 63.9336C214.614 64.2398 214.638 64.5671 214.579 64.8848C214.554 65.1833 214.442 65.4677 214.256 65.7021C214.069 65.9366 213.817 66.1105 213.532 66.2019C213.439 66.2146 213.345 66.2065 213.255 66.1783C213.166 66.1501 213.083 66.1024 213.014 66.0386C212.93 65.9092 212.924 65.836 212.936 65.8304Z" fill="#EB996E"/>
<path d="M197.576 55.7329C197.634 55.3984 197.821 55.1001 198.096 54.9021C198.372 54.7042 198.715 54.6226 199.05 54.6748C198.824 54.6554 198.605 54.584 198.41 54.4663C198.216 54.3486 198.051 54.1876 197.929 53.9959C197.806 53.8042 197.73 53.5869 197.705 53.3609C197.681 53.1349 197.708 52.9062 197.786 52.6926C197.864 52.479 197.99 52.2863 198.155 52.1293C198.319 51.9723 198.517 51.8553 198.734 51.7873C198.951 51.7194 199.181 51.7023 199.406 51.7374C199.63 51.7726 199.844 51.859 200.03 51.99C199.586 51.5734 199.233 51.0694 198.994 50.5097C198.873 50.2236 198.845 49.9068 198.914 49.604C198.983 49.3011 199.144 49.0274 199.377 48.8212C199.633 48.673 199.925 48.595 200.221 48.595C200.517 48.595 200.809 48.673 201.065 48.8212C201.876 49.2321 202.489 49.975 203.317 50.324C204.144 50.673 205.118 50.5885 206.035 50.6842C207.055 50.7674 208.023 51.1713 208.799 51.8381C209.186 52.1706 209.489 52.5893 209.685 53.0605C209.88 53.5317 209.962 54.0422 209.924 54.551C211.168 54.4778 212.53 54.551 213.493 55.3221C213.42 54.8206 213.482 54.3089 213.672 53.8391C213.861 53.3693 214.173 52.9585 214.574 52.6485C215.085 52.293 215.679 52.0742 216.298 52.0132C216.918 51.9521 217.543 52.0507 218.114 52.2996C218.385 52.3919 218.633 52.5396 218.843 52.7335C219.054 52.9273 219.221 53.163 219.335 53.4253C219.589 54.1851 219.11 55.0012 218.508 55.5303C217.944 56.0085 217.276 56.3478 216.558 56.5208C215.839 56.6938 215.09 56.6958 214.371 56.5266C214.599 57.1138 214.695 57.7441 214.652 58.3727C214.59 59.459 213.718 60.5847 213.335 61.6034L213.251 62.2732L212.598 65.0593L210.853 64.9186L211.332 59.065C211.332 59.065 211.658 56.6054 209.519 56.6898C207.38 56.7742 204.347 58.9974 200.249 58.1363C199.577 58.0562 198.931 57.8274 198.358 57.4665C198.088 57.2708 197.873 57.0079 197.736 56.7038C197.599 56.3997 197.544 56.065 197.576 55.7329Z" fill="#263238"/>
<path d="M220.523 58.3051C220.194 58.5574 219.807 58.7238 219.397 58.7892C218.402 59.0153 217.36 58.8934 216.444 58.4437C215.528 57.994 214.795 57.2438 214.365 56.3183C214.164 55.9527 214.057 55.5425 214.056 55.1251C214.106 55.1251 214.196 55.581 214.551 56.2508C215.005 57.0971 215.713 57.7797 216.575 58.2028C217.437 58.6258 218.411 58.7679 219.358 58.6091C220.078 58.4627 220.5 58.2489 220.523 58.3051Z" fill="#263238"/>
<path d="M216.341 61.5471C216.296 61.5471 216.341 61.1982 216.24 60.6804C216.079 60.0039 215.803 59.3602 215.423 58.7779C215.026 58.1834 214.669 57.5628 214.354 56.9205C214.208 56.655 214.13 56.357 214.129 56.0538C214.286 56.3013 214.424 56.5611 214.54 56.8305C214.793 57.3033 215.226 57.9112 215.665 58.626C216.069 59.2347 216.334 59.9244 216.442 60.6466C216.508 60.9498 216.472 61.2661 216.341 61.5471Z" fill="#263238"/>
<path d="M187.18 94.1021C185.221 92.9105 183.329 91.6121 181.512 90.2128C179.334 88.3723 179.491 88.1697 179.745 87.9615C180.42 87.3592 183.685 91.0571 183.443 89.8414C183.201 88.6256 178.94 85.8001 179.66 85.2035C180.617 84.4212 183.972 88.3555 184.281 88.665C184.591 88.9746 185.041 88.5299 184.748 88.2654C184.326 87.8827 180.004 83.7626 180.932 82.9859C181.45 82.5525 182.114 83.5769 182.114 83.5769C182.114 83.5769 185.885 87.7476 186.313 87.3649C186.741 86.9821 184.625 84.4549 183.837 83.6557C183.049 82.8565 183.122 82.1754 183.746 82.1135C184.169 82.0741 186.606 84.4606 187.36 85.2654C188.114 86.0703 190.129 88.3273 190.017 86.3911C189.904 84.4549 190.523 82.9127 190.973 82.6144C191.424 82.3161 191.992 82.8565 191.778 83.4193C191.607 84.054 191.523 84.7093 191.531 85.3668C191.514 85.8947 191.587 86.4217 191.745 86.9258C191.88 87.3592 192.015 87.742 192.144 88.0797L193.467 91.7213L190.146 95.9257L187.18 94.1021Z" fill="#FFBE9D"/>
<path d="M219.943 81.5844C220.641 81.7589 224.795 83.909 224.862 93.3254C224.913 100.811 224.339 117.426 219.234 119.897C216.921 121.023 213.408 121.023 210.358 119.025C201.758 113.47 186.527 95.5599 186.527 95.5599L193.343 88.2992C193.343 88.2992 211.039 106.31 211.793 105.646C212.919 104.644 211.191 96.0439 212.159 87.545C212.823 81.5 215.637 80.5094 219.943 81.5844Z" fill="#455A64"/>
<path d="M193.332 88.5581C193.298 88.6043 193.258 88.6459 193.214 88.6819L192.848 89.0421C192.527 89.3517 192.054 89.8132 191.457 90.4324C189.759 92.1865 188.197 94.0682 186.786 96.0608V95.9314C191.593 100.834 198.606 107.965 206.39 115.895C208.229 117.644 210.472 118.911 212.919 119.582C214.072 119.903 215.282 119.957 216.459 119.74C217.578 119.492 218.618 118.968 219.482 118.214C221.058 116.77 222.212 114.924 222.819 112.873C223.357 111.085 223.719 109.249 223.9 107.391C224.356 104.014 224.598 101.2 224.705 99.3028C224.761 98.346 224.789 97.6143 224.812 97.0964V96.5336C224.804 96.47 224.804 96.4058 224.812 96.3422C224.82 96.4076 224.82 96.4738 224.812 96.5392C224.812 96.6799 224.812 96.8713 224.812 97.1021C224.812 97.6086 224.812 98.3516 224.761 99.3141C224.688 101.233 224.48 104.014 224.046 107.425C223.878 109.299 223.525 111.152 222.994 112.957C222.385 115.054 221.218 116.945 219.617 118.428C218.72 119.215 217.64 119.763 216.476 120.021C215.258 120.247 214.005 120.193 212.812 119.864C210.314 119.186 208.024 117.898 206.148 116.115C198.335 108.173 191.379 100.991 186.606 96.0777L186.544 96.0158L186.594 95.9482C188.026 93.961 189.614 92.0919 191.345 90.3592C191.958 89.7569 192.471 89.3067 192.78 89.0027L193.163 88.6706L193.332 88.5581Z" fill="#263238"/>
<path d="M193.337 88.2992C193.337 88.2992 193.377 88.2992 193.433 88.378L193.698 88.6425L194.705 89.6613C195.577 90.5506 196.855 91.8226 198.459 93.3817C200.063 94.9408 202 96.7981 204.183 98.8356L207.628 102.027C208.838 103.119 210.088 104.278 211.427 105.37L211.196 105.483C211.236 104.819 211.275 104.115 211.315 103.406C211.54 99.6855 211.748 96.1396 211.939 92.9145C212.058 91.3048 212.086 89.7682 212.26 88.333C212.39 86.9909 212.76 85.6831 213.352 84.4718C213.843 83.4652 214.588 82.6038 215.513 81.9728C216.221 81.5095 217.034 81.2326 217.877 81.1679C218.407 81.1239 218.939 81.1891 219.442 81.3593C219.619 81.4111 219.787 81.4869 219.943 81.5844C219.943 81.5844 219.769 81.5113 219.425 81.4156C218.924 81.273 218.401 81.2271 217.883 81.2805C217.067 81.365 216.284 81.6491 215.604 82.1079C214.718 82.741 214.005 83.5869 213.532 84.5675C212.968 85.7619 212.618 87.0458 212.497 88.3611C212.339 89.7795 212.322 91.316 212.21 92.9258L211.607 103.417C211.568 104.126 211.523 104.836 211.489 105.494V105.781L211.27 105.607C209.896 104.481 208.669 103.355 207.459 102.23C206.249 101.104 205.112 100.046 204.02 99.0214C201.848 96.967 199.923 95.0815 198.335 93.5224C196.748 91.9633 195.493 90.6406 194.643 89.7288C194.21 89.2785 193.895 88.9183 193.675 88.6707L193.433 88.3949C193.36 88.333 193.332 88.2992 193.337 88.2992Z" fill="#263238"/>
<path d="M189.533 98.5655C189.775 98.134 190.064 97.7302 190.394 97.361C190.957 96.6462 191.756 95.6724 192.673 94.6199C193.591 93.5674 194.441 92.6387 195.071 91.9802C195.393 91.6045 195.753 91.2631 196.146 90.9614C195.876 91.3767 195.567 91.765 195.223 92.1209L192.893 94.8113L190.551 97.4961C190.246 97.8839 189.905 98.242 189.533 98.5655Z" fill="#263238"/>
<path d="M212.964 109.71C212.616 109.022 212.329 108.304 212.108 107.565C211.79 106.863 211.534 106.134 211.343 105.387C212.177 106.7 212.729 108.172 212.964 109.71Z" fill="#263238"/>
<path d="M214.512 108.511C213.849 108.103 213.24 107.613 212.699 107.053C212.095 106.558 211.552 105.991 211.084 105.365C212.356 106.263 213.508 107.321 214.512 108.511Z" fill="#263238"/>
<path d="M45.9282 192.358L27.8496 208.675L22.8966 202.337L38.7407 182.711L45.9282 192.358Z" fill="#FFBE9D"/>
<path d="M28.2661 209.288L28.8852 208.726L23.178 201.718L20.6058 203.97L20.9491 204.409C22.4857 206.362 28.9077 214.23 30.3824 215.142C32.0259 216.155 28.2661 209.288 28.2661 209.288Z" fill="#407BFF"/>
<g opacity="0.5">
<path d="M22.8177 206.367C23.2996 205.767 23.5404 205.008 23.4932 204.24C23.4591 203.48 23.1371 202.761 22.5926 202.23L20.7071 203.919L22.8177 206.367Z" fill="white"/>
</g>
<path opacity="0.5" d="M30.0053 212.733C30.0053 212.733 31.1985 215.255 30.6413 215.294C30.0841 215.333 23.3243 207.628 20.6058 203.97L20.769 203.846L28.6094 212.902C28.6094 212.902 29.6394 212.356 30.0053 212.733Z" fill="white"/>
<path d="M20.6789 203.739C20.7043 203.783 20.7345 203.825 20.769 203.863L21.0391 204.217L22.0692 205.489C22.9416 206.559 24.1742 208.016 25.5644 209.598C26.9547 211.18 28.2492 212.587 29.2004 213.594L30.3261 214.776L30.6357 215.091C30.6711 215.131 30.7107 215.167 30.7539 215.198L30.6525 215.074L30.3542 214.748C30.0559 214.416 29.6844 214.016 29.2285 213.544C28.2942 212.525 27.0109 211.112 25.6207 209.53C24.2305 207.949 22.9922 206.497 22.0973 205.439L21.0448 204.189L20.7577 203.851C20.7356 203.811 20.7091 203.773 20.6789 203.739Z" fill="#263238"/>
<path d="M28.5025 212.992C28.7525 212.865 29.0171 212.768 29.2905 212.705C29.5691 212.673 29.8505 212.673 30.1291 212.705C29.868 212.562 29.5628 212.522 29.2736 212.592C28.9761 212.626 28.7016 212.768 28.5025 212.992Z" fill="#263238"/>
<path d="M27.7595 210.11C27.9057 210.145 28.058 210.145 28.2042 210.11C28.4462 210.076 28.6376 210.02 28.6319 209.986C28.334 209.961 28.0344 210.01 27.7595 210.127V210.11Z" fill="#263238"/>
<path d="M27.5681 209.311C27.5681 209.311 27.7257 209.384 27.934 209.407C28.1422 209.429 28.3111 209.407 28.3167 209.407C28.3223 209.407 28.1535 209.333 27.9452 209.311C27.737 209.288 27.5681 209.277 27.5681 209.311Z" fill="#263238"/>
<path d="M27.9003 208.405C27.9003 208.405 27.996 208.596 28.1648 208.793C28.3337 208.99 28.4913 209.136 28.5138 209.114C28.5363 209.091 28.4181 208.923 28.2436 208.726C28.0691 208.529 27.9228 208.382 27.9003 208.405Z" fill="#263238"/>
<path d="M28.2436 207.887C28.2662 208.072 28.347 208.246 28.4743 208.382C28.6601 208.624 28.8683 208.765 28.8852 208.742C28.9021 208.72 28.7333 208.551 28.5644 208.315C28.4689 208.164 28.3617 208.021 28.2436 207.887Z" fill="#263238"/>
<path d="M28.5475 209.823C28.6508 209.987 28.7822 210.132 28.9359 210.251C29.0914 210.392 29.2612 210.516 29.4424 210.622C29.5479 210.695 29.6636 210.752 29.7858 210.791C29.8582 210.819 29.9384 210.819 30.0109 210.791C30.05 210.77 30.0821 210.738 30.1032 210.699C30.1242 210.66 30.1332 210.616 30.1291 210.572C30.0855 210.42 30.009 210.28 29.905 210.161C29.8011 210.042 29.6723 209.948 29.5278 209.885C29.3833 209.821 29.2266 209.79 29.0689 209.794C28.9111 209.798 28.7562 209.837 28.615 209.908C28.5658 209.93 28.5218 209.963 28.4856 210.003C28.6632 209.924 28.8542 209.88 29.0484 209.874C29.2472 209.871 29.4426 209.926 29.6113 210.031C29.7154 210.092 29.806 210.173 29.8777 210.27C29.9493 210.367 30.0004 210.477 30.0278 210.594C30.0278 210.707 29.9377 210.752 29.8252 210.718C29.7141 210.677 29.6068 210.626 29.5043 210.566C29.3255 210.464 29.1543 210.349 28.9921 210.223C28.7051 209.975 28.5644 209.806 28.5475 209.823Z" fill="#263238"/>
<path d="M28.6263 209.953C28.7633 209.926 28.8857 209.85 28.9697 209.739C29.0727 209.625 29.1461 209.488 29.1835 209.339C29.2192 209.245 29.2292 209.144 29.2124 209.045C29.1955 208.946 29.1526 208.853 29.0879 208.776C29.0387 208.741 28.9781 208.727 28.9185 208.735C28.8589 208.743 28.8047 208.774 28.767 208.821C28.7078 208.892 28.6637 208.975 28.6376 209.063C28.5925 209.206 28.566 209.353 28.5588 209.502C28.5374 209.637 28.551 209.774 28.5982 209.902C28.6189 209.772 28.6302 209.64 28.632 209.508C28.6536 209.368 28.6875 209.231 28.7333 209.097C28.7727 208.956 28.9021 208.771 29.0203 208.861C29.0623 208.927 29.09 209.001 29.1017 209.079C29.1133 209.156 29.1086 209.235 29.0879 209.311C29.0574 209.446 28.9979 209.573 28.9134 209.682C28.8254 209.78 28.7294 209.871 28.6263 209.953Z" fill="#263238"/>
<path d="M22.6433 202.247C22.6433 202.247 22.8346 202.422 23.0654 202.759C23.37 203.198 23.5473 203.712 23.5776 204.245C23.5973 204.777 23.4728 205.304 23.2174 205.771C23.0148 206.125 22.829 206.333 22.8459 206.333C22.8628 206.333 22.9022 206.3 22.981 206.215C23.0949 206.096 23.1949 205.963 23.2793 205.821C23.5697 205.351 23.7109 204.803 23.6845 204.251C23.6531 203.698 23.4571 203.167 23.1217 202.726C23.0232 202.593 22.9099 202.472 22.784 202.365C22.7052 202.275 22.6489 202.242 22.6433 202.247Z" fill="#263238"/>
<path d="M24.2136 206.643C24.4274 207.03 24.6903 207.387 24.9959 207.707C25.2754 208.052 25.599 208.358 25.9584 208.619C25.9584 208.619 25.5644 208.18 25.086 207.634C24.6076 207.088 24.2699 206.626 24.2136 206.643Z" fill="#263238"/>
<path d="M23.0598 205.315C23.026 205.315 22.9979 205.433 22.9359 205.562C22.874 205.692 22.8065 205.804 22.829 205.827C22.8515 205.849 22.9641 205.765 23.0373 205.607C23.1104 205.45 23.0879 205.315 23.0598 205.315Z" fill="#263238"/>
<path d="M23.2399 204.268C23.2117 204.268 23.178 204.369 23.1667 204.504C23.1555 204.639 23.1667 204.746 23.2061 204.746C23.2455 204.746 23.268 204.645 23.2793 204.51C23.2905 204.375 23.268 204.268 23.2399 204.268Z" fill="#263238"/>
<path d="M22.8966 203.305C22.8966 203.305 22.9585 203.418 23.0091 203.547C23.0598 203.677 23.0711 203.795 23.1048 203.801C23.1386 203.806 23.178 203.666 23.1048 203.508C23.0317 203.35 22.9078 203.277 22.8966 203.305Z" fill="#263238"/>
<path d="M22.5814 202.681C22.5814 202.681 22.5814 202.759 22.5814 202.833C22.5814 202.906 22.6545 202.962 22.6827 202.951C22.7108 202.939 22.6827 202.872 22.6827 202.793C22.6827 202.714 22.6095 202.669 22.5814 202.681Z" fill="#263238"/>
<path d="M78.0835 192.189L80.2617 216.836H70.9466L66.8379 192.189H78.0835Z" fill="#FFBE9D"/>
<path d="M79.9916 217.067V216.24L70.9466 216.2L71.0536 219.617H71.6164C74.1042 219.662 84.2579 219.684 85.8958 219.121C87.6631 218.513 79.9916 217.067 79.9916 217.067Z" fill="#407BFF"/>
<g opacity="0.5">
<path d="M74.2505 219.425C74.0917 218.671 73.6584 218.003 73.0348 217.551C72.4223 217.106 71.6656 216.905 70.9129 216.988L71.0029 219.504L74.2505 219.425Z" fill="white"/>
</g>
<path opacity="0.5" d="M83.7345 217.906C83.7345 217.906 86.4362 218.581 86.121 219.031C85.8058 219.482 75.5395 219.847 70.9973 219.594V219.391L82.9747 219.071C82.9747 219.071 83.2111 217.951 83.7345 217.906Z" fill="white"/>
<path d="M70.8622 219.414H71.0198H71.4645H73.0967C74.4813 219.414 76.3894 219.414 78.4944 219.318C80.5995 219.223 82.5075 219.138 83.8865 219.043L85.5187 218.919L85.9634 218.874H85.5187L83.8809 218.964C82.5019 219.043 80.5995 219.138 78.4944 219.211C76.3894 219.285 74.4813 219.318 73.0967 219.335H71.4645H71.0198L70.8622 219.414Z" fill="#263238"/>
<path d="M82.9803 219.234C83.0421 218.96 83.1346 218.694 83.2561 218.44C83.4183 218.205 83.6072 217.99 83.8189 217.799C83.5408 217.908 83.3151 218.119 83.1885 218.39C83.0174 218.636 82.9432 218.936 82.9803 219.234Z" fill="#263238"/>
<path d="M80.2786 217.979C80.3068 217.979 80.4306 217.838 80.5544 217.624C80.6783 217.41 80.7571 217.23 80.7289 217.213C80.6142 217.313 80.5221 217.436 80.4588 217.573C80.3702 217.694 80.3087 217.832 80.2786 217.979Z" fill="#263238"/>
<path d="M79.5413 217.624C79.5413 217.624 79.6989 217.545 79.8509 217.399C80.0028 217.253 80.1041 217.118 80.0816 217.101C80.0591 217.084 79.924 217.174 79.7721 217.32C79.6201 217.467 79.5188 217.59 79.5413 217.624Z" fill="#263238"/>
<path d="M79.0516 216.791C79.2021 216.84 79.3621 216.854 79.5188 216.831C79.679 216.844 79.8402 216.823 79.9915 216.769C79.8397 216.717 79.6777 216.701 79.5188 216.724C79.2599 216.729 79.0516 216.757 79.0516 216.791Z" fill="#263238"/>
<path d="M78.8659 216.195C79.024 216.293 79.2089 216.34 79.395 216.33C79.5874 216.361 79.7848 216.329 79.9578 216.24C79.782 216.221 79.6046 216.221 79.4287 216.24C79.2428 216.209 79.0545 216.193 78.8659 216.195Z" fill="#263238"/>
<path d="M80.5544 217.185C80.7406 217.218 80.9311 217.218 81.1173 217.185C81.3261 217.151 81.5314 217.098 81.7308 217.028C81.8507 216.988 81.9659 216.935 82.0741 216.87C82.1423 216.827 82.1923 216.761 82.2148 216.684C82.2216 216.641 82.2162 216.598 82.1993 216.558C82.1823 216.518 82.1546 216.484 82.1191 216.459C81.8952 216.357 81.6424 216.336 81.4048 216.401C81.1673 216.466 80.96 216.612 80.819 216.814C80.7326 216.931 80.673 217.065 80.6445 217.208C80.6311 217.257 80.6311 217.31 80.6445 217.36C80.7014 217.181 80.7849 217.012 80.8921 216.859C81.0169 216.704 81.1826 216.587 81.3705 216.521C81.4802 216.475 81.5978 216.451 81.7167 216.451C81.8356 216.451 81.9532 216.475 82.0628 216.521C82.1585 216.589 82.1248 216.695 82.0234 216.763C81.9228 216.821 81.8173 216.87 81.7082 216.909C81.5165 216.984 81.3188 217.042 81.1173 217.084C80.7796 217.157 80.5544 217.168 80.5544 217.185Z" fill="#263238"/>
<path d="M80.712 217.208C80.7747 217.084 80.7926 216.943 80.7627 216.808C80.7406 216.657 80.6806 216.513 80.5882 216.392C80.5386 216.306 80.4672 216.234 80.3812 216.185C80.2952 216.136 80.1977 216.11 80.0985 216.11C80.0406 216.126 79.9909 216.163 79.9596 216.215C79.9282 216.266 79.9175 216.327 79.9297 216.386C79.9438 216.478 79.9806 216.565 80.0366 216.639C80.1163 216.764 80.2129 216.878 80.3237 216.977C80.415 217.08 80.5313 217.157 80.6614 217.202C80.6614 217.202 80.5432 217.101 80.3743 216.926C80.281 216.821 80.1963 216.708 80.121 216.589C80.0366 216.465 79.9747 216.251 80.121 216.217C80.2674 216.183 80.4193 216.341 80.5094 216.448C80.5947 216.557 80.6543 216.684 80.6839 216.819C80.7037 216.948 80.7131 217.078 80.712 217.208Z" fill="#263238"/>
<path d="M70.9861 216.949C70.9861 216.949 71.245 216.915 71.6502 216.949C72.183 216.995 72.6921 217.19 73.1193 217.512C73.5447 217.831 73.8738 218.261 74.0705 218.755C74.2224 219.138 74.245 219.397 74.2675 219.391C74.2762 219.332 74.2762 219.271 74.2675 219.211C74.2431 219.049 74.2036 218.888 74.1493 218.733C73.9704 218.209 73.6367 217.752 73.1924 217.422C72.7456 217.097 72.2132 216.911 71.6615 216.887C71.4967 216.873 71.331 216.873 71.1662 216.887C71.1031 216.897 71.0422 216.918 70.9861 216.949Z" fill="#263238"/>
<path d="M75.3537 218.519C75.7875 218.602 76.2305 218.627 76.6708 218.592C77.1128 218.595 77.5535 218.542 77.9822 218.435C77.9822 218.401 77.3912 218.463 76.6652 218.485C75.9391 218.508 75.3537 218.491 75.3537 218.519Z" fill="#263238"/>
<path d="M73.592 218.57C73.592 218.57 73.6427 218.694 73.7102 218.823C73.7778 218.952 73.8116 219.076 73.8397 219.076C73.8678 219.076 73.8847 218.93 73.8059 218.778C73.7271 218.626 73.6089 218.547 73.592 218.57Z" fill="#263238"/>
<path d="M72.8997 217.77C72.8997 217.77 72.9391 217.883 73.0348 217.973C73.1305 218.063 73.2261 218.119 73.2487 218.097C73.2712 218.074 73.2093 217.984 73.1079 217.894C73.0066 217.804 72.9166 217.748 72.8997 217.77Z" fill="#263238"/>
<path d="M71.9372 217.422C71.9372 217.455 72.0611 217.45 72.1962 217.489C72.3312 217.528 72.4269 217.602 72.4494 217.579C72.472 217.557 72.3932 217.433 72.2243 217.388C72.0554 217.343 71.926 217.399 71.9372 217.422Z" fill="#263238"/>
<path d="M71.2506 217.27C71.2506 217.298 71.2956 217.343 71.3688 217.371C71.442 217.399 71.5152 217.371 71.5264 217.371C71.5377 217.371 71.4814 217.298 71.4082 217.27C71.335 217.241 71.2619 217.241 71.2506 217.27Z" fill="#263238"/>
<path d="M61.7104 119.852C61.7104 119.852 68.9992 168.257 67.9411 170.615C66.8829 172.974 43.2715 197.125 43.2715 197.125L34.4011 181.951C34.4011 181.951 50.0257 164.644 49.8006 163.749C49.5754 162.854 38.5436 115.957 38.5436 115.957L61.7104 119.852Z" fill="#263238"/>
<path d="M64.3051 137.728C64.2319 137.21 58.3502 123.989 58.3502 123.989L61.2038 119.959L61.7104 119.852L64.3051 137.728Z" fill="#263238"/>
<path d="M34.4011 115.293L33.9565 117.089C32.6688 122.387 33.4753 127.978 36.2079 132.696L55.9525 166.934C57.3553 169.36 58.3766 171.988 58.9806 174.724L63.9055 196.878H80.1154C80.1154 196.878 78.1117 181.681 76.3275 170.598C74.9766 162.229 63.776 136.265 58.3502 123.972L61.7273 119.835L55.8906 118.862L34.4011 115.293Z" fill="#263238"/>
<path d="M58.778 123.894C59.0042 124.634 59.2806 125.358 59.6053 126.06C60.1682 127.383 60.8886 129.212 61.6766 131.244C62.4646 133.276 63.1569 135.134 63.6522 136.473C63.8901 137.21 64.1759 137.93 64.5077 138.629C64.4873 138.419 64.44 138.213 64.367 138.015C64.2601 137.633 64.0912 137.075 63.8717 136.394C63.4271 135.032 62.746 133.169 61.9806 131.126C61.2151 129.083 60.4102 127.271 59.8136 125.97C59.5153 125.318 59.2508 124.794 59.0875 124.439C59.0091 124.245 58.905 124.061 58.778 123.894Z" fill="#455A64"/>
<path d="M60.5509 181.45C60.5635 181.323 60.5635 181.195 60.5509 181.067C60.5172 180.78 60.4778 180.42 60.4271 179.97C60.3711 179.39 60.2847 178.813 60.1682 178.242C60.0387 177.578 59.9149 176.807 59.6954 175.99C59.5941 175.574 59.4872 175.135 59.3746 174.685C59.262 174.234 59.1044 173.767 58.9581 173.283C58.6879 172.309 58.3052 171.302 57.9337 170.233C57.0512 167.929 56.046 165.674 54.9225 163.478C52.8417 159.529 50.5378 155.701 48.022 152.013C47.0708 150.595 46.2828 149.452 45.7312 148.67L45.0952 147.798C45.0237 147.691 44.9427 147.591 44.8532 147.499C44.9017 147.619 44.9641 147.732 45.0389 147.837L45.6299 148.766C46.1927 149.604 46.9244 150.752 47.8363 152.143C49.688 155.013 52.2433 158.998 54.6411 163.625C55.7484 165.802 56.7459 168.034 57.6298 170.311C58.0069 171.37 58.4009 172.371 58.6823 173.334C58.8286 173.812 58.9806 174.274 59.11 174.724C59.2395 175.174 59.3408 175.602 59.4478 176.019C59.6841 176.84 59.8192 177.6 59.9656 178.27C60.1119 178.94 60.2132 179.508 60.2808 179.959C60.3483 180.409 60.4158 180.763 60.4665 181.045C60.4791 181.183 60.5074 181.319 60.5509 181.45Z" fill="#455A64"/>
<path d="M37.0634 131.081C37.0634 131.081 37.0184 131.03 36.9396 130.912L36.5962 130.349C36.8668 129.924 37.2207 129.558 37.6367 129.274C38.0527 128.989 38.5221 128.792 39.0165 128.695C39.7557 128.528 40.52 128.505 41.2678 128.627C42.146 128.781 43.0087 129.012 43.8457 129.319C44.8126 129.618 45.7537 129.995 46.6599 130.445C47.6942 130.96 48.5077 131.832 48.9507 132.899C49.1718 133.482 49.2091 134.118 49.0576 134.723C48.8729 135.308 48.6297 135.874 48.3315 136.411C48.0271 136.935 47.8624 137.528 47.8531 138.133C47.9023 138.744 48.182 139.314 48.6355 139.726C49.7161 140.801 51.3146 140.998 52.6373 141.668C53.9282 142.321 54.98 143.365 55.6429 144.651C56.2652 145.795 56.5575 147.089 56.4872 148.389C56.4206 149.521 56.0556 150.617 55.429 151.563C54.5343 152.937 53.1983 153.965 51.6411 154.479C51.2216 154.611 50.7897 154.699 50.3522 154.743C50.2004 154.754 50.048 154.754 49.8963 154.743C50.4692 154.659 51.034 154.528 51.5848 154.349C53.0901 153.808 54.373 152.783 55.232 151.434C55.8256 150.514 56.1672 149.454 56.2226 148.36C56.2755 147.106 55.9856 145.86 55.384 144.758C54.7385 143.528 53.7251 142.531 52.4853 141.905C51.8493 141.589 51.1345 141.375 50.4197 141.105C49.6706 140.859 48.9834 140.453 48.4047 139.918C47.8987 139.453 47.5888 138.813 47.5379 138.128C47.548 137.473 47.7243 136.832 48.0501 136.265C48.3422 135.742 48.5817 135.192 48.7649 134.621C48.904 134.071 48.8686 133.491 48.6636 132.961C48.252 131.951 47.488 131.125 46.5136 130.636C45.6229 130.178 44.6968 129.792 43.7444 129.483C42.926 129.168 42.0799 128.93 41.2172 128.773C40.4962 128.641 39.7563 128.65 39.039 128.802C38.559 128.89 38.1012 129.072 37.6917 129.338C37.2822 129.604 36.9291 129.947 36.6525 130.349L36.9621 130.912C37.0021 130.964 37.036 131.021 37.0634 131.081Z" fill="#FAFAFA"/>
<path d="M77.9879 181.512C77.5901 181.163 77.14 180.878 76.6539 180.668C76.0741 180.44 75.4696 180.282 74.8528 180.195C74.138 180.077 73.305 180.004 72.3932 179.857C71.3827 179.712 70.4077 179.382 69.517 178.884C67.8121 177.93 66.5119 176.389 65.8585 174.548C65.2052 172.707 65.2432 170.691 65.9655 168.876C66.5002 167.553 67.3051 166.405 67.5302 165.128C67.6728 163.877 67.4906 162.611 67.0011 161.452C66.5731 160.377 66.2085 159.277 65.9092 158.16C65.6665 157.163 65.6665 156.122 65.9092 155.126C66.262 153.683 67.0762 152.394 68.2281 151.456C68.6399 151.107 69.1081 150.831 69.6127 150.64C69.1533 150.906 68.7149 151.207 68.3013 151.54C67.2077 152.49 66.4415 153.761 66.1118 155.171C65.8785 156.136 65.8785 157.143 66.1118 158.109C66.4249 159.214 66.8008 160.3 67.2375 161.362C67.752 162.562 67.946 163.875 67.8004 165.173C67.564 166.54 66.7366 167.705 66.23 168.989C65.5321 170.738 65.4895 172.681 66.1099 174.46C66.7304 176.239 67.9723 177.734 69.6071 178.67C70.4771 179.167 71.4309 179.501 72.4213 179.655C73.3219 179.812 74.1549 179.897 74.8753 180.032C75.5024 180.143 76.1132 180.332 76.6933 180.595C77.0586 180.758 77.398 180.974 77.7008 181.236C77.8978 181.399 77.9991 181.501 77.9879 181.512Z" fill="#FAFAFA"/>
<path d="M70.4232 197.66C70.3669 197.66 70.35 196.928 70.0573 195.797C69.8855 195.136 69.6499 194.493 69.3538 193.878C68.9837 193.128 68.5366 192.419 68.0198 191.761C67.4905 191.113 66.8944 190.523 66.2412 190C65.7047 189.57 65.1279 189.193 64.5189 188.874C63.4777 188.345 62.7629 188.17 62.7797 188.114C62.9529 188.116 63.1244 188.149 63.2863 188.21C63.4782 188.253 63.6664 188.312 63.8492 188.384C64.1032 188.469 64.3514 188.571 64.5921 188.688C65.2294 188.981 65.8332 189.341 66.3932 189.763C67.7678 190.804 68.8625 192.169 69.5789 193.737C69.8708 194.374 70.0935 195.04 70.2431 195.724C70.3058 195.985 70.3509 196.25 70.3782 196.517C70.4103 196.717 70.4254 196.918 70.4232 197.12C70.4546 197.298 70.4546 197.481 70.4232 197.66Z" fill="#FAFAFA"/>
<path d="M62.1044 133.991C62.1044 133.991 62.0312 133.991 61.8849 134.036C61.6703 134.066 61.4542 134.085 61.2376 134.092C60.4417 134.119 59.646 134.033 58.8737 133.839C57.7209 133.561 56.6294 133.073 55.6542 132.398C54.4389 131.586 53.4395 130.491 52.7423 129.206C52.045 127.921 51.671 126.486 51.6524 125.025C51.6258 123.839 51.8166 122.658 52.2152 121.541C52.4761 120.787 52.8397 120.073 53.2959 119.419C53.4161 119.242 53.5477 119.072 53.6899 118.912C53.7855 118.8 53.8418 118.743 53.8475 118.749C53.2481 119.637 52.7657 120.598 52.4122 121.608C52.0557 122.709 51.8956 123.863 51.9394 125.019C51.9695 126.432 52.3341 127.817 53.0033 129.062C53.6726 130.306 54.6273 131.375 55.7893 132.179C56.7332 132.845 57.7867 133.34 58.9018 133.642C59.9493 133.899 61.0262 134.016 62.1044 133.991Z" fill="#FAFAFA"/>
<path d="M47.673 165.572C47.782 165.61 47.8874 165.657 47.9882 165.713C48.1965 165.809 48.4891 165.972 48.8606 166.191C49.9123 166.829 50.8439 167.646 51.6129 168.606C52.1443 169.279 52.5521 170.042 52.8174 170.857C53.1121 171.802 53.1777 172.803 53.0088 173.778C52.8402 174.872 52.3184 175.88 51.5229 176.649C50.6899 177.46 49.4685 177.73 48.7593 178.619C48.0501 179.508 47.8925 180.673 47.7856 181.76C47.7513 182.839 47.5617 183.908 47.2227 184.934C46.8411 185.861 46.1458 186.624 45.2584 187.09C44.5041 187.501 43.672 187.751 42.8157 187.821C41.5886 187.889 40.3585 187.768 39.1684 187.461C38.7463 187.36 38.4255 187.276 38.206 187.214C38.093 187.192 37.9833 187.156 37.8795 187.107C37.9953 187.112 38.1104 187.129 38.2228 187.157L39.1909 187.349C40.3727 187.61 41.5859 187.699 42.7931 187.613C43.6158 187.534 44.4131 187.285 45.1346 186.882C45.9667 186.432 46.6171 185.708 46.9751 184.833C47.2918 183.828 47.4679 182.784 47.4985 181.732C47.5399 181.163 47.6265 180.598 47.7574 180.043C47.8896 179.454 48.1554 178.903 48.5342 178.433C49.3447 177.459 50.5717 177.195 51.3484 176.441C52.1007 175.718 52.5967 174.769 52.7611 173.739C52.9281 172.802 52.8742 171.838 52.6035 170.925C52.3558 170.136 51.9751 169.396 51.4778 168.735C50.7346 167.781 49.8389 166.955 48.8268 166.293C48.4723 166.056 48.1852 165.882 47.9882 165.769C47.8754 165.717 47.7695 165.651 47.673 165.572Z" fill="#FAFAFA"/>
<path d="M49.4009 49.1083C46.2771 48.3315 42.917 50.2846 41.3635 53.0988C39.81 55.9131 39.7932 59.3633 40.5249 62.4927C40.8344 63.8041 41.2678 65.1606 40.9639 66.4777C40.6374 67.8904 39.5117 68.988 38.9714 70.3388C37.9414 72.9448 39.2528 75.8321 40.5361 78.3199C41.099 79.4456 41.8701 80.712 43.1196 80.9597C44.5211 81.2355 45.7537 80.1154 46.9357 79.3105C49.022 77.9026 51.5613 77.33 54.05 77.7064C56.8643 78.1398 59.4083 79.7552 62.2338 79.8058C63.5136 79.815 64.7751 79.5029 65.903 78.8982C67.0309 78.2934 67.989 77.4153 68.6896 76.3443C69.5283 75.0329 69.8153 73.0573 68.6052 72.0892C67.806 71.4532 66.5846 71.4757 65.881 70.7328C65.0255 69.8266 65.397 68.3688 65.836 67.2094C66.275 66.0499 66.7141 64.6315 65.9317 63.6634C65.0593 62.5715 63.1681 62.7798 62.3351 61.6597C61.5021 60.5396 62.3801 58.8455 62.3351 57.3596C62.2798 56.7052 62.0775 56.0718 61.7432 55.5065C61.4089 54.9413 60.9513 54.4588 60.4046 54.0951C59.3464 53.324 59.2001 53.0763 57.7423 50.4253" fill="#263238"/>
<path d="M45.0445 74.8472L56.3014 75.8096C56.3014 75.8096 64.5021 74.6108 67.6427 95.4079L80.1041 94.8957L80.667 103.181L63.5284 104.025L61.5077 102.815L61.7104 119.852L33.3598 117.764C34.0015 113.897 37.024 108.809 38.0371 105.545C37.0071 102.967 31.3111 92.4586 31.0297 87.0609C30.2642 72.2806 45.0445 74.8472 45.0445 74.8472Z" fill="#407BFF"/>
<path opacity="0.3" d="M62.7741 90.0946C62.7741 90.0946 64.7666 92.346 64.8003 94.2428C64.851 97.2822 64.0855 98.8413 65.0367 102.162L62.3238 102.815C62.3238 102.815 61.9073 102.004 62.2619 100.271C62.6165 98.5373 63.3032 96.4267 63.6071 94.5411C63.8769 93.007 63.5809 91.4271 62.7741 90.0946Z" fill="black"/>
<path d="M62.3239 102.815C62.2407 102.601 62.184 102.378 62.155 102.151C62.0752 101.53 62.0752 100.902 62.155 100.282C62.2754 99.3707 62.4635 98.4696 62.7179 97.5861C63.0378 96.5195 63.286 95.4326 63.4608 94.3329C63.6277 93.2444 63.5094 92.1312 63.1175 91.1021C62.758 90.2783 62.2676 89.518 61.6653 88.8508C60.641 87.6857 59.9149 87.0384 59.9768 86.999C60.1688 87.1213 60.348 87.2628 60.5115 87.4211C60.9804 87.827 61.4258 88.2592 61.8455 88.7157C62.4896 89.3886 63.0132 90.1673 63.3933 91.0177C63.8199 92.0891 63.9502 93.2557 63.7704 94.3948C63.599 95.5088 63.3412 96.6078 62.9993 97.6818C62.7329 98.5515 62.5205 99.4369 62.3633 100.333C62.2687 100.938 62.2367 101.551 62.2676 102.162C62.309 102.377 62.3279 102.596 62.3239 102.815Z" fill="#263238"/>
<g opacity="0.2">
<path d="M62.6953 102.601L54.2977 102.792C53.6321 102.855 52.9607 102.777 52.3277 102.562C51.444 102.19 50.8756 101.329 50.3803 100.507C48.9056 98.0758 47.5548 95.5768 46.3278 93.0102C46.3278 93.0102 48.5454 100.063 49.9356 103.141C50.0707 103.53 50.3499 103.852 50.7155 104.04C51.081 104.229 51.5051 104.27 51.8999 104.155C55.5546 104.161 59.1909 103.638 62.6953 102.601Z" fill="black"/>
</g>
<path d="M117.595 84.0272C118.833 83.9391 120.074 84.1697 121.197 84.697C121.676 84.9306 122.201 85.0537 122.734 85.0572H124.107V67.412C124.107 67.056 124.037 66.7035 123.901 66.3746C123.764 66.0458 123.564 65.7471 123.312 65.4956C123.06 65.2442 122.761 65.0449 122.432 64.9092C122.103 64.7734 121.75 64.704 121.394 64.7047H103.822V63.5115C103.828 62.9584 103.959 62.4139 104.205 61.9186C104.874 60.5466 105.091 58.9977 104.824 57.4947C104.512 55.6879 103.533 54.0642 102.08 52.9451C100.628 51.8259 98.8083 51.2929 96.9816 51.4514C95.1549 51.6099 93.4543 52.4485 92.2164 53.8011C90.9786 55.1538 90.2936 56.9219 90.2973 58.7554C90.2972 59.7696 90.51 60.7724 90.922 61.6991C91.1304 62.1632 91.2415 62.6651 91.2485 63.1738V64.7047H74.1098C73.3918 64.7047 72.7032 64.9899 72.1955 65.4976C71.6878 66.0054 71.4026 66.694 71.4026 67.412V115.079C71.4026 115.369 71.4596 115.656 71.5705 115.924C71.6814 116.191 71.8439 116.435 72.0488 116.639C72.2537 116.844 72.4969 117.007 72.7646 117.118C73.0323 117.229 73.3192 117.286 73.6089 117.286H121.901C122.486 117.284 123.046 117.051 123.46 116.638C123.873 116.224 124.106 115.664 124.107 115.079V97.8507H122.154C121.703 97.8512 121.255 97.9391 120.837 98.1096C119.972 98.4626 119.047 98.6442 118.113 98.6443C116.172 98.7129 114.284 98.0079 112.863 96.6842C111.443 95.3606 110.606 93.5268 110.537 91.5862C110.469 89.6456 111.174 87.7572 112.497 86.3365C113.821 84.9157 115.655 84.079 117.595 84.0103V84.0272Z" fill="#407BFF"/>
<path opacity="0.2" d="M117.595 84.0272C118.833 83.9391 120.074 84.1697 121.197 84.697C121.676 84.9306 122.201 85.0537 122.734 85.0572H124.107V67.412C124.107 67.056 124.037 66.7035 123.901 66.3746C123.764 66.0458 123.564 65.7471 123.312 65.4956C123.06 65.2442 122.761 65.0449 122.432 64.9092C122.103 64.7734 121.75 64.704 121.394 64.7047H103.822V63.5115C103.828 62.9584 103.959 62.4139 104.205 61.9186C104.874 60.5466 105.091 58.9977 104.824 57.4947C104.512 55.6879 103.533 54.0642 102.08 52.9451C100.628 51.8259 98.8083 51.2929 96.9816 51.4514C95.1549 51.6099 93.4543 52.4485 92.2164 53.8011C90.9786 55.1538 90.2936 56.9219 90.2973 58.7554C90.2972 59.7696 90.51 60.7724 90.922 61.6991C91.1304 62.1632 91.2415 62.6651 91.2485 63.1738V64.7047H74.1098C73.3918 64.7047 72.7032 64.9899 72.1955 65.4976C71.6878 66.0054 71.4026 66.694 71.4026 67.412V115.079C71.4026 115.369 71.4596 115.656 71.5705 115.924C71.6814 116.191 71.8439 116.435 72.0488 116.639C72.2537 116.844 72.4969 117.007 72.7646 117.118C73.0323 117.229 73.3192 117.286 73.6089 117.286H121.901C122.486 117.284 123.046 117.051 123.46 116.638C123.873 116.224 124.106 115.664 124.107 115.079V97.8507H122.154C121.703 97.8512 121.255 97.9391 120.837 98.1096C119.972 98.4626 119.047 98.6442 118.113 98.6443C116.172 98.7129 114.284 98.0079 112.863 96.6842C111.443 95.3606 110.606 93.5268 110.537 91.5862C110.469 89.6456 111.174 87.7572 112.497 86.3365C113.821 84.9157 115.655 84.079 117.595 84.0103V84.0272Z" fill="white"/>
<path d="M44.8925 75.2412L44.0201 55.3727L51.9 49.3953L59.0706 52.9018C59.0706 52.9018 59.3126 61.9074 59.0706 65.8135C58.8286 69.7197 54.8943 70.1362 54.8943 70.1362C54.8943 70.1362 54.99 72.4213 55.08 74.8247C55.1059 75.5148 54.9916 76.203 54.7438 76.8477C54.4961 77.4923 54.1201 78.08 53.6386 78.5751C53.1572 79.0703 52.5802 79.4626 51.9428 79.7283C51.3053 79.994 50.6206 80.1276 49.93 80.121C48.6259 80.105 47.3774 79.5905 46.4406 78.6831C45.5039 77.7757 44.9499 76.5441 44.8925 75.2412Z" fill="#FFBE9D"/>
<path d="M58.3052 59.4646C58.3052 59.5637 58.2758 59.6605 58.2207 59.7429C58.1657 59.8253 58.0875 59.8895 57.9959 59.9274C57.9044 59.9653 57.8037 59.9752 57.7065 59.9559C57.6093 59.9366 57.5201 59.8889 57.45 59.8188C57.38 59.7488 57.3322 59.6595 57.3129 59.5623C57.2936 59.4652 57.3035 59.3644 57.3414 59.2729C57.3793 59.1814 57.4435 59.1031 57.5259 59.0481C57.6083 58.9931 57.7052 58.9637 57.8042 58.9637C57.9371 58.9637 58.0645 59.0165 58.1584 59.1104C58.2524 59.2043 58.3052 59.3318 58.3052 59.4646Z" fill="#263238"/>
<path d="M58.7892 58.9186C58.7217 58.9862 58.3558 58.671 57.8155 58.6429C57.2751 58.6147 56.8755 58.8736 56.8192 58.8005C56.763 58.7273 56.8586 58.6485 57.0331 58.5303C57.27 58.3743 57.5511 58.2992 57.8342 58.3165C58.1174 58.3338 58.3873 58.4423 58.6035 58.626C58.7667 58.7667 58.8173 58.868 58.7892 58.9186Z" fill="#263238"/>
<path d="M52.5135 59.4646C52.5135 59.5637 52.4841 59.6605 52.4291 59.7429C52.374 59.8253 52.2958 59.8895 52.2042 59.9274C52.1127 59.9653 52.012 59.9752 51.9148 59.9559C51.8176 59.9366 51.7284 59.8889 51.6583 59.8188C51.5883 59.7488 51.5406 59.6595 51.5212 59.5623C51.5019 59.4652 51.5118 59.3644 51.5497 59.2729C51.5877 59.1814 51.6519 59.1031 51.7342 59.0481C51.8166 58.9931 51.9135 58.9637 52.0125 58.9637C52.1454 58.9637 52.2728 59.0165 52.3668 59.1104C52.4607 59.2043 52.5135 59.3318 52.5135 59.4646Z" fill="#263238"/>
<path d="M52.8231 58.9186C52.7555 58.9862 52.3897 58.671 51.8493 58.6429C51.309 58.6147 50.9094 58.8736 50.8531 58.8005C50.7968 58.7273 50.8925 58.6485 51.067 58.5303C51.2974 58.3745 51.5713 58.2957 51.8493 58.3051C52.1328 58.3236 52.4029 58.4321 52.6204 58.6147C52.8005 58.7667 52.8512 58.868 52.8231 58.9186Z" fill="#263238"/>
<path d="M54.9112 70.1249C53.0555 70.0461 51.2609 69.4388 49.7386 68.3744C49.7386 68.3744 51.0332 71.2956 54.9506 71.138L54.9112 70.1249Z" fill="#EB996E"/>
<path d="M54.7649 63.4664C55.0524 63.3961 55.3469 63.3583 55.6429 63.3539C55.778 63.3539 55.9131 63.3539 55.9468 63.23C55.9624 63.0792 55.9351 62.927 55.868 62.791C55.7517 62.4421 55.6279 62.0668 55.4966 61.6653C55.2433 60.8717 55.0238 60.1513 54.8718 59.6278C54.7722 59.3477 54.7061 59.0567 54.6748 58.7611C54.8225 59.0179 54.9378 59.292 55.0181 59.5772C55.2039 60.095 55.4515 60.8042 55.7048 61.5978L56.0594 62.7235C56.1404 62.8997 56.1583 63.0985 56.1101 63.2863C56.0902 63.3343 56.0595 63.3769 56.0205 63.4111C55.9814 63.4453 55.9351 63.47 55.8849 63.4833C55.8063 63.4906 55.7272 63.4906 55.6485 63.4833C55.3544 63.5131 55.0577 63.5074 54.7649 63.4664Z" fill="#263238"/>
<path d="M54.3652 63.9336C54.1539 63.9893 53.9602 64.0977 53.8024 64.2488C53.7052 64.3309 53.6413 64.4456 53.6226 64.5713C53.6038 64.6971 53.6315 64.8254 53.7004 64.9323C53.7694 65.0392 53.8749 65.1173 53.9972 65.1521C54.1196 65.1868 54.2504 65.1759 54.3652 65.1212C54.4682 65.0988 54.5653 65.0545 54.6497 64.9914C54.7342 64.9283 54.8042 64.8478 54.8549 64.7554C54.9022 64.659 54.921 64.5511 54.9091 64.4444C54.8971 64.3377 54.8549 64.2366 54.7873 64.1531C54.717 64.0773 54.623 64.0276 54.5207 64.0123C54.4184 63.9969 54.314 64.0168 54.2245 64.0687" fill="#EB996E"/>
<path d="M55.0632 64.7103C55.0632 64.7891 54.6185 64.913 54.1401 64.6372C53.6617 64.3614 53.5322 63.9055 53.611 63.8886C53.6898 63.8717 53.8925 64.17 54.2865 64.3839C54.6804 64.5978 55.0519 64.6259 55.0632 64.7103Z" fill="#263238"/>
<path d="M52.339 48.6186C51.5119 48.5899 50.6886 48.744 49.9278 49.07C49.167 49.3959 48.4875 49.8855 47.9376 50.5041C46.8456 51.7675 46.2902 53.4075 46.3897 55.0744C46.3786 55.7006 46.5767 56.3127 46.9526 56.8136C47.5154 57.4609 48.4666 57.5903 49.3278 57.6748C50.2024 57.8368 51.1029 57.7905 51.9563 57.5397C52.7893 57.2189 53.4816 56.3577 53.2959 55.4909C52.885 56.0538 53.2283 56.8868 53.8137 57.2414C54.4331 57.5452 55.1252 57.67 55.8118 57.6016H58.7611C59.0976 57.6349 59.4361 57.562 59.7292 57.3933C59.8867 57.2331 60.0106 57.043 60.0938 56.8343C60.1769 56.6255 60.2175 56.4023 60.2132 56.1776C60.3708 54.6073 60.5172 52.9356 59.7967 51.5341C59.081 50.2924 57.9136 49.375 56.5378 48.9732C55.1926 48.5285 53.7236 48.7311 52.3221 48.6411" fill="#263238"/>
<path d="M44.0201 74.6783C45.0952 75.2412 47.1327 73.0236 47.7968 72.0048C48.3881 70.9314 48.5871 69.6856 48.3597 68.4814C48.219 67.2713 47.8981 66.0837 47.87 64.8679C47.8306 62.898 48.5736 61.0124 48.9225 59.0706C49.2969 56.9584 49.2066 54.7899 48.658 52.7161C48.4441 51.9112 48.0951 51.0276 47.3072 50.7236C46.9778 50.6137 46.6253 50.5928 46.2853 50.663C45.9453 50.7331 45.6299 50.8919 45.371 51.1232C44.8614 51.5932 44.4617 52.1697 44.2003 52.8118L43.5755 57.5509L44.0427 64.1869L44.0201 74.6783Z" fill="#263238"/>
<path d="M72.3538 99.6687L75.2243 109.462C75.2243 109.462 60.202 114.927 52.0688 114.826C44.4423 114.736 42.2584 113.869 39.5793 107.712C36.9002 101.554 33.8383 94.4849 33.2135 90.4155C33.2135 90.4155 27.0841 73.4063 43.4967 75.0836L45.7481 88.029C45.7481 88.029 47.5661 94.0346 47.6955 94.3835C48.9225 97.6255 50.5098 102.376 52.0463 102.95C53.5829 103.524 72.3538 99.6687 72.3538 99.6687Z" fill="#407BFF"/>
<path d="M72.3538 99.6687C72.2265 99.7166 72.0944 99.7505 71.9598 99.77L70.8341 100.012C69.8322 100.22 68.3801 100.53 66.579 100.946C64.7779 101.363 62.639 101.875 60.185 102.325C57.5202 102.854 54.8078 103.105 52.0913 103.074H51.9956L51.9619 102.984C51.6523 102.179 51.3259 101.329 51.0163 100.462C48.855 94.3892 47.2115 88.8057 45.8831 84.8095C45.2246 82.8058 44.673 81.1904 44.279 80.0816C44.0933 79.5188 43.9413 79.1192 43.8288 78.804C43.7677 78.6567 43.7206 78.5041 43.688 78.3481C43.688 78.3481 43.7612 78.4944 43.885 78.7815C44.0089 79.0685 44.1777 79.4906 44.386 80.0422C44.8137 81.1398 45.3935 82.7439 46.0745 84.742C47.4591 88.7269 49.1364 94.3104 51.2921 100.361C51.6016 101.228 51.9225 102.049 52.232 102.877L52.097 102.787C54.795 102.82 57.4895 102.583 60.14 102.078C62.5715 101.639 64.7272 101.138 66.5396 100.761C68.3519 100.383 69.8041 100.091 70.8172 99.9107L71.9766 99.7249C72.1012 99.6994 72.2271 99.6807 72.3538 99.6687Z" fill="#263238"/>
<path d="M75.2243 109.462C75.0846 109.543 74.9376 109.611 74.7853 109.665C74.4926 109.789 74.0592 109.957 73.4964 110.166C72.3707 110.582 70.7159 111.134 68.6503 111.736C66.5846 112.338 64.1137 112.997 61.3614 113.695C58.384 114.526 55.3316 115.059 52.249 115.288C51.4343 115.326 50.6179 115.306 49.8062 115.226C49.0114 115.153 48.2276 114.988 47.4704 114.736C46.0523 114.223 44.7524 113.428 43.6487 112.4C41.8226 110.639 40.301 108.586 39.1459 106.327C38.1328 104.43 37.4574 102.832 36.9733 101.723C36.7426 101.16 36.5681 100.738 36.4555 100.44C36.3875 100.295 36.3328 100.144 36.2923 99.9895C36.3782 100.124 36.4499 100.268 36.5062 100.417C36.6469 100.732 36.8383 101.149 37.069 101.678C37.57 102.77 38.2848 104.352 39.3204 106.231C40.4877 108.451 42.0085 110.466 43.8232 112.198C44.9056 113.188 46.1741 113.953 47.5548 114.449C48.285 114.69 49.0404 114.847 49.8062 114.916C50.6047 114.996 51.408 115.017 52.2096 114.978C55.272 114.752 58.3051 114.228 61.2657 113.413C64.0237 112.732 66.5002 112.102 68.5827 111.522C70.6653 110.942 72.3088 110.396 73.4457 110.042L74.7515 109.592C74.9056 109.536 75.0636 109.493 75.2243 109.462Z" fill="#263238"/>
<path opacity="0.2" d="M39.0164 106.226C39.0164 106.226 41.8306 117.032 49.1476 116.813C56.4646 116.593 63.337 113.464 63.337 113.464L63.0105 113.126C63.0105 113.126 50.6279 115.794 47.1889 114.117C40.6543 110.942 39.0164 106.226 39.0164 106.226Z" fill="black"/>
<path d="M74.2055 108.336H76.5076C78.5957 108.134 79.7608 108.1 80.3462 107.548C81.1285 106.8 80.0535 106.074 80.0535 106.074C80.0535 106.074 81.5619 105.55 81.4212 104.633C81.3255 104.003 80.6107 103.935 80.6107 103.935C80.6107 103.935 81.9447 103.412 82.2092 102.854C82.5638 102.1 81.6464 101.695 81.6464 101.695C83.4644 100.569 83.3011 99.4435 82.879 99.3535C82.4569 99.2634 81.0441 99.9163 81.0441 99.9163C79.8453 100.26 76.5751 101.256 77.7852 99.4548C78.9954 97.6537 79.2486 95.8132 78.9728 95.2672C78.8957 95.1484 78.7835 95.0566 78.6517 95.0046C78.52 94.9526 78.3753 94.9429 78.2378 94.977C78.1004 95.011 77.9769 95.0871 77.8847 95.1946C77.7925 95.3021 77.7361 95.4357 77.7233 95.5768C77.5366 96.2852 77.2505 96.9636 76.8734 97.5918C76.5889 98.1091 76.2198 98.5751 75.7815 98.9707C75.2693 99.4266 74.8134 99.7925 74.4251 100.096L72.3763 102.066L74.2055 108.336Z" fill="#FFBE9D"/>
</svg>
